<?xml version="1.0" encoding="utf-8"?>
<!-- Generator: Adobe Illustrator 24.3.0, SVG Export Plug-In . SVG Version: 6.00 Build 0)  -->
<svg version="1.1" id="Layer_1" xmlns="http://www.w3.org/2000/svg" xmlns:xlink="http://www.w3.org/1999/xlink" x="0px" y="0px"
	 viewBox="0 0 90.6 90.6" enable-background="new 0 0 90.6 90.6" xml:space="preserve">
<g>
	<rect x="0.3" y="0.3" fill="#F2F2F2" stroke="#E2E2E2" stroke-width="0.5616" stroke-miterlimit="10" width="90" height="90"/>
</g>
<g>
	<g>
		<path fill-rule="evenodd" clip-rule="evenodd" fill="#666666" d="M45.4,62.5c-0.8,0.6-1.7,1.4-2.5,2.1c0.8,4.1,1.7,8,2.5,12
			c0.8-3.9,1.6-7.9,2.4-12C46.9,63.9,46.1,63.2,45.4,62.5z M45.2,59.2c-5.2,0-9.6-5.4-9.6-11.8c-0.9-2.4-0.3-10.7,5.2-10.6
			c6.2-3.2,10.6,0.3,13.6,2.4c1.1,2.2,1.7,5.7,0.5,7.7C55,53.7,50.7,59.2,45.2,59.2z M45.2,57.9c-4.6,0-8.4-4.7-8.4-10.6
			c0-0.9,0.2-1.7,0.2-2.4c0.6-1.6,2.1-2.4,3.2-1.4c3.8,3.2,8.4,3,12.6,2.4c1.1-0.2,0.9,1.1,0.8,2.1C53.4,53.4,49.8,57.9,45.2,57.9z
			 M25.5,82.9c0-4.6,0.2-9.2,0-13.6c0-3.8,1.7-4.6,4.6-5.5l7.3-2.7c0.6-0.6,1.3-1.4,1.7-2.1c2.1,0.8,4.3,1.7,6.3,2.5
			c2.1-0.8,4.1-1.7,6.2-2.5c0.6,0.6,1.1,1.4,1.7,2.1l7.4,2.7c2.8,0.9,4.4,1.7,4.4,5.5c0,4.4,0,9,0,13.6
			C51.8,82.9,38.7,82.9,25.5,82.9z M45.7,78.5c2.5-5.5,4.9-11,7.4-16.6c0.5,0.8,1.1,1.7,1.7,2.5c-0.9,0.9-1.9,1.9-2.7,2.8
			c0.6,0.8,1.4,1.6,2.2,2.4C51.5,72.5,48.7,75.5,45.7,78.5z M44.9,78.5c-2.4-5.5-4.9-11-7.3-16.6c-0.6,0.8-1.3,1.7-1.7,2.5
			c0.8,0.9,1.7,1.9,2.7,2.8c-0.8,0.8-1.6,1.6-2.4,2.4C39,72.5,42,75.5,44.9,78.5z"/>
	</g>
	<g>
		<g>
			<path fill="#999999" d="M37,22.7h-6.3c-0.7,0-1.3,0.6-1.3,1.3v6.3c0,0.7,0.6,1.3,1.3,1.3h2.6v-3.1h-1v-1.6h1v-1.1
				c0-0.9,0.7-1.6,1.6-1.6h1.6v1.6h-1.6v1.1h1.6l-0.3,1.6h-1.3v3.1H37c0.7,0,1.3-0.6,1.3-1.3V24C38.3,23.3,37.7,22.7,37,22.7z"/>
			<g>
				<path fill="#999999" d="M49.3,23.1c-0.3-0.3-0.7-0.5-1.2-0.5h-5.6c-0.5,0-0.9,0.2-1.2,0.5c-0.3,0.3-0.5,0.7-0.5,1.2v5.6
					c0,0.5,0.2,0.9,0.5,1.2c0.3,0.3,0.7,0.5,1.2,0.5h5.6c0.5,0,0.9-0.2,1.2-0.5c0.3-0.3,0.5-0.7,0.5-1.2v-5.6
					C49.7,23.8,49.6,23.5,49.3,23.1z M47.6,26.1c0,0,0,0.1,0,0.2c0,0.3,0,0.7-0.1,1c-0.1,0.3-0.2,0.6-0.4,0.9
					c-0.2,0.3-0.4,0.6-0.7,0.8c-0.3,0.2-0.6,0.4-1,0.6c-0.4,0.1-0.8,0.2-1.2,0.2c-0.7,0-1.3-0.2-1.9-0.5c0.1,0,0.2,0,0.3,0
					c0.6,0,1.1-0.2,1.5-0.5c-0.3,0-0.5-0.1-0.7-0.2c-0.2-0.2-0.4-0.4-0.4-0.6c0.1,0,0.2,0,0.2,0c0.1,0,0.2,0,0.3,0
					c-0.3-0.1-0.5-0.2-0.7-0.4c-0.2-0.2-0.3-0.5-0.3-0.8v0c0.2,0.1,0.4,0.1,0.6,0.2c-0.4-0.2-0.5-0.6-0.5-1c0-0.2,0.1-0.4,0.2-0.6
					c0.3,0.4,0.7,0.7,1.1,0.9c0.4,0.2,0.9,0.4,1.4,0.4c0-0.1,0-0.2,0-0.3c0-0.3,0.1-0.6,0.4-0.9c0.2-0.2,0.5-0.4,0.9-0.4
					c0.4,0,0.7,0.1,0.9,0.4c0.3-0.1,0.5-0.1,0.8-0.3c-0.1,0.3-0.3,0.5-0.5,0.7c0.3,0,0.5-0.1,0.7-0.2C48.1,25.7,47.9,25.9,47.6,26.1
					z"/>
			</g>
			<path fill="#999999" d="M59.8,22.7h-6.3c-0.7,0-1.3,0.6-1.3,1.3v6.3c0,0.7,0.6,1.3,1.3,1.3h6.3c0.7,0,1.3-0.6,1.3-1.3V24
				C61.1,23.2,60.5,22.7,59.8,22.7z M55.4,29.7h-1v-3.6h1V29.7z M55.4,25.5h-1v-1h1V25.5z M59,29.7h-1v-2.1c0-0.3-0.2-0.5-0.5-0.5
				c-0.3,0-0.5,0.2-0.5,0.5v2.1h-1v-3.6h1v0.2c0.3-0.1,0.5-0.2,0.8-0.2c0.7,0,1.3,0.6,1.3,1.4V29.7z"/>
		</g>
		<g>
			<path fill="#444444" d="M31.7,12.5H31c-0.1,0-0.1,0-0.2-0.1c0,0-0.1-0.1-0.1-0.1l-0.4-1h-1.9l-0.4,1c0,0-0.1,0.1-0.1,0.1
				c-0.1,0-0.1,0.1-0.2,0.1h-0.7l1.8-4.7h0.9L31.7,12.5z M28.6,10.7h1.5l-0.6-1.6c0-0.1-0.1-0.2-0.1-0.2c0-0.1-0.1-0.2-0.1-0.3
				c0,0.1-0.1,0.2-0.1,0.3c0,0.1-0.1,0.2-0.1,0.2L28.6,10.7z"/>
			<path fill="#444444" d="M34.7,12.5h-0.4c-0.1,0-0.1,0-0.2,0c0,0-0.1-0.1-0.1-0.1L34,12.1c-0.1,0.1-0.2,0.1-0.2,0.2
				c-0.1,0.1-0.2,0.1-0.3,0.1c-0.1,0-0.2,0.1-0.3,0.1s-0.2,0-0.3,0c-0.1,0-0.3,0-0.4-0.1s-0.2-0.1-0.3-0.2c-0.1-0.1-0.2-0.2-0.2-0.3
				c0-0.1-0.1-0.2-0.1-0.4c0-0.1,0-0.3,0.1-0.4c0.1-0.1,0.2-0.2,0.3-0.3s0.4-0.2,0.6-0.2c0.3-0.1,0.6-0.1,1-0.1v-0.2
				c0-0.2,0-0.4-0.1-0.5c-0.1-0.1-0.2-0.2-0.4-0.2c-0.1,0-0.2,0-0.3,0s-0.2,0.1-0.2,0.1c-0.1,0-0.1,0.1-0.2,0.1c-0.1,0-0.1,0-0.2,0
				c-0.1,0-0.1,0-0.1,0s-0.1-0.1-0.1-0.1l-0.1-0.3c0.4-0.4,0.8-0.5,1.4-0.5c0.2,0,0.4,0,0.5,0.1c0.2,0.1,0.3,0.2,0.4,0.3
				s0.2,0.2,0.2,0.4c0.1,0.2,0.1,0.3,0.1,0.5V12.5z M33.2,12c0.1,0,0.2,0,0.2,0c0.1,0,0.1,0,0.2-0.1c0.1,0,0.1-0.1,0.2-0.1
				c0.1,0,0.1-0.1,0.2-0.2v-0.6c-0.2,0-0.4,0-0.6,0c-0.2,0-0.3,0.1-0.4,0.1c-0.1,0-0.2,0.1-0.2,0.2s-0.1,0.1-0.1,0.2
				c0,0.1,0,0.2,0.1,0.3C32.9,12,33,12,33.2,12z"/>
			<path fill="#444444" d="M35.5,12.5V9.2H36c0.1,0,0.1,0,0.2,0c0,0,0.1,0.1,0.1,0.2l0,0.4c0.1-0.2,0.3-0.4,0.4-0.5
				c0.2-0.1,0.3-0.2,0.5-0.2c0.2,0,0.3,0,0.4,0.1l-0.1,0.6c0,0,0,0.1,0,0.1c0,0-0.1,0-0.1,0c0,0-0.1,0-0.1,0c-0.1,0-0.1,0-0.2,0
				c-0.2,0-0.3,0-0.4,0.1c-0.1,0.1-0.2,0.2-0.3,0.4v2.1H35.5z"/>
			<path fill="#444444" d="M39.6,9.1c0.2,0,0.5,0,0.7,0.1c0.2,0.1,0.4,0.2,0.5,0.3c0.1,0.1,0.3,0.3,0.3,0.5s0.1,0.4,0.1,0.7
				c0,0.3,0,0.5-0.1,0.7s-0.2,0.4-0.3,0.5c-0.1,0.1-0.3,0.3-0.5,0.3c-0.2,0.1-0.4,0.1-0.7,0.1c-0.2,0-0.5,0-0.7-0.1
				c-0.2-0.1-0.4-0.2-0.5-0.3c-0.1-0.1-0.3-0.3-0.3-0.5S38,11.1,38,10.8c0-0.3,0-0.5,0.1-0.7s0.2-0.4,0.3-0.5
				c0.1-0.1,0.3-0.3,0.5-0.3C39.1,9.2,39.4,9.1,39.6,9.1z M39.6,12c0.3,0,0.5-0.1,0.6-0.3c0.1-0.2,0.2-0.5,0.2-0.8
				c0-0.4-0.1-0.6-0.2-0.8c-0.1-0.2-0.3-0.3-0.6-0.3c-0.3,0-0.5,0.1-0.6,0.3c-0.1,0.2-0.2,0.5-0.2,0.8c0,0.4,0.1,0.6,0.2,0.8
				C39.1,11.9,39.3,12,39.6,12z"/>
			<path fill="#444444" d="M41.9,12.5V9.2h0.5c0.1,0,0.2,0,0.2,0.1l0.1,0.3c0.1-0.1,0.1-0.1,0.2-0.2c0.1-0.1,0.2-0.1,0.2-0.1
				c0.1,0,0.2-0.1,0.3-0.1c0.1,0,0.2,0,0.3,0c0.2,0,0.3,0,0.5,0.1c0.1,0.1,0.3,0.1,0.4,0.3c0.1,0.1,0.2,0.2,0.2,0.4
				c0,0.2,0.1,0.3,0.1,0.5v2.1H44v-2.1c0-0.2,0-0.4-0.1-0.5c-0.1-0.1-0.2-0.2-0.4-0.2c-0.1,0-0.3,0-0.4,0.1
				c-0.1,0.1-0.2,0.1-0.3,0.3v2.4H41.9z"/>
			<path fill="#444444" d="M48.8,10.9c0,0.3,0,0.5-0.1,0.7c-0.1,0.2-0.2,0.4-0.3,0.5c-0.1,0.1-0.3,0.3-0.5,0.3
				c-0.2,0.1-0.4,0.1-0.7,0.1c-0.1,0-0.2,0-0.3,0c-0.1,0-0.2,0-0.4-0.1l0-0.5c0,0,0-0.1,0.1-0.1s0.1,0,0.1,0c0,0,0.1,0,0.1,0
				s0.1,0,0.2,0c0.1,0,0.2,0,0.3-0.1c0.1,0,0.2-0.1,0.2-0.2c0.1-0.1,0.1-0.2,0.1-0.3c0-0.1,0-0.3,0-0.5v-3h0.9V10.9z"/>
			<path fill="#444444" d="M50.4,9.2v2.1c0,0.2,0,0.4,0.1,0.5c0.1,0.1,0.2,0.2,0.4,0.2c0.1,0,0.3,0,0.4-0.1c0.1-0.1,0.2-0.1,0.3-0.3
				V9.2h0.8v3.3H52c-0.1,0-0.2,0-0.2-0.1l-0.1-0.3c-0.1,0.1-0.1,0.1-0.2,0.2s-0.2,0.1-0.2,0.1c-0.1,0-0.2,0.1-0.3,0.1
				c-0.1,0-0.2,0-0.3,0c-0.2,0-0.3,0-0.5-0.1c-0.1-0.1-0.3-0.1-0.4-0.3c-0.1-0.1-0.2-0.2-0.2-0.4c0-0.2-0.1-0.3-0.1-0.5V9.2H50.4z"
				/>
			<path fill="#444444" d="M55.7,12.5c-0.1,0-0.2,0-0.2-0.1l-0.1-0.3c-0.1,0.1-0.1,0.1-0.2,0.2c-0.1,0.1-0.2,0.1-0.2,0.2
				s-0.2,0.1-0.3,0.1s-0.2,0-0.3,0c-0.2,0-0.3,0-0.5-0.1c-0.2-0.1-0.3-0.2-0.4-0.3s-0.2-0.3-0.3-0.5s-0.1-0.5-0.1-0.7
				c0-0.2,0-0.5,0.1-0.7s0.2-0.4,0.3-0.6c0.1-0.2,0.3-0.3,0.5-0.4c0.2-0.1,0.4-0.1,0.6-0.1c0.2,0,0.3,0,0.5,0.1
				c0.1,0.1,0.2,0.1,0.4,0.2V7.7h0.8v4.8H55.7z M54.6,11.9c0.2,0,0.3,0,0.4-0.1s0.2-0.2,0.3-0.3V10c-0.1-0.1-0.2-0.2-0.3-0.2
				s-0.2-0.1-0.3-0.1c-0.1,0-0.2,0-0.3,0.1s-0.2,0.1-0.2,0.2c-0.1,0.1-0.1,0.2-0.2,0.4c0,0.1-0.1,0.3-0.1,0.5c0,0.2,0,0.4,0,0.5
				c0,0.1,0.1,0.2,0.1,0.3c0.1,0.1,0.1,0.1,0.2,0.2C54.4,11.9,54.5,11.9,54.6,11.9z"/>
			<path fill="#444444" d="M58.2,9.1c0.1,0,0.3,0,0.4,0s0.2,0.1,0.3,0.1h1v0.3c0,0,0,0.1,0,0.1s-0.1,0-0.1,0.1l-0.3,0.1
				c0,0.1,0,0.1,0.1,0.2s0,0.1,0,0.2c0,0.2,0,0.3-0.1,0.4c-0.1,0.1-0.2,0.2-0.3,0.3s-0.3,0.2-0.4,0.2c-0.2,0.1-0.3,0.1-0.5,0.1
				c-0.1,0-0.2,0-0.4,0c-0.1,0.1-0.2,0.1-0.2,0.2c0,0.1,0,0.1,0.1,0.1s0.1,0.1,0.2,0.1s0.2,0,0.3,0s0.3,0,0.4,0c0.1,0,0.3,0,0.4,0.1
				c0.1,0,0.2,0.1,0.3,0.1c0.1,0.1,0.2,0.1,0.2,0.2c0.1,0.1,0.1,0.2,0.1,0.4c0,0.1,0,0.3-0.1,0.4s-0.2,0.3-0.3,0.4s-0.3,0.2-0.5,0.3
				c-0.2,0.1-0.4,0.1-0.7,0.1c-0.3,0-0.5,0-0.7-0.1c-0.2,0-0.3-0.1-0.5-0.2c-0.1-0.1-0.2-0.2-0.3-0.3c-0.1-0.1-0.1-0.2-0.1-0.3
				c0-0.2,0-0.3,0.1-0.4c0.1-0.1,0.2-0.2,0.4-0.3c-0.1,0-0.1-0.1-0.2-0.2c0-0.1-0.1-0.2-0.1-0.3c0,0,0-0.1,0-0.2
				c0-0.1,0-0.1,0.1-0.2c0-0.1,0.1-0.1,0.1-0.1c0.1,0,0.1-0.1,0.2-0.1c-0.2-0.1-0.3-0.2-0.4-0.4c-0.1-0.2-0.1-0.3-0.1-0.5
				c0-0.2,0-0.3,0.1-0.4s0.2-0.2,0.3-0.3s0.3-0.2,0.4-0.2C57.9,9.2,58,9.1,58.2,9.1z M59.1,12.7c0-0.1,0-0.1-0.1-0.2
				c0,0-0.1-0.1-0.2-0.1c-0.1,0-0.1,0-0.2-0.1s-0.2,0-0.3,0s-0.2,0-0.3,0c-0.1,0-0.2,0-0.3,0c-0.1,0-0.2,0.1-0.2,0.2
				c-0.1,0.1-0.1,0.1-0.1,0.2c0,0.1,0,0.1,0,0.2c0,0.1,0.1,0.1,0.1,0.1c0.1,0,0.1,0.1,0.2,0.1c0.1,0,0.2,0,0.4,0c0.1,0,0.3,0,0.4,0
				c0.1,0,0.2-0.1,0.3-0.1s0.1-0.1,0.2-0.1C59.1,12.8,59.1,12.7,59.1,12.7z M58.2,10.8c0.1,0,0.2,0,0.3,0c0.1,0,0.1-0.1,0.2-0.1
				s0.1-0.1,0.1-0.2c0-0.1,0-0.1,0-0.2c0-0.2,0-0.3-0.1-0.4c-0.1-0.1-0.2-0.1-0.4-0.1s-0.3,0-0.4,0.1c-0.1,0.1-0.1,0.2-0.1,0.4
				c0,0.1,0,0.2,0,0.2c0,0.1,0.1,0.1,0.1,0.2c0,0,0.1,0.1,0.2,0.1C58,10.8,58.1,10.8,58.2,10.8z"/>
			<path fill="#444444" d="M61.8,9.1c0.2,0,0.4,0,0.6,0.1c0.2,0.1,0.3,0.2,0.5,0.3s0.2,0.3,0.3,0.5s0.1,0.4,0.1,0.6
				c0,0.1,0,0.1,0,0.2c0,0,0,0.1,0,0.1c0,0,0,0-0.1,0c0,0-0.1,0-0.1,0H61c0,0.3,0.1,0.6,0.3,0.8c0.2,0.2,0.4,0.2,0.6,0.2
				c0.1,0,0.2,0,0.3,0c0.1,0,0.2-0.1,0.2-0.1c0.1,0,0.1-0.1,0.2-0.1c0.1,0,0.1,0,0.2,0c0,0,0.1,0,0.1,0c0,0,0,0,0.1,0.1l0.2,0.3
				c-0.1,0.1-0.2,0.2-0.3,0.3c-0.1,0.1-0.2,0.1-0.3,0.2c-0.1,0-0.2,0.1-0.4,0.1c-0.1,0-0.2,0-0.4,0c-0.2,0-0.4,0-0.6-0.1
				c-0.2-0.1-0.4-0.2-0.5-0.3c-0.1-0.2-0.3-0.3-0.3-0.6c-0.1-0.2-0.1-0.5-0.1-0.8c0-0.2,0-0.4,0.1-0.6c0.1-0.2,0.2-0.4,0.3-0.5
				c0.1-0.1,0.3-0.3,0.5-0.4C61.3,9.2,61.6,9.1,61.8,9.1z M61.8,9.7c-0.2,0-0.4,0.1-0.5,0.2s-0.2,0.3-0.3,0.6h1.5c0-0.1,0-0.2,0-0.3
				s-0.1-0.2-0.1-0.2s-0.1-0.1-0.2-0.2S62,9.7,61.8,9.7z"/>
		</g>
		<g>
			<path fill="#222222" d="M43.4,18.3C43.4,18.3,43.4,18.3,43.4,18.3l0.3,0.3c-0.1,0.2-0.3,0.3-0.5,0.4c-0.2,0.1-0.4,0.1-0.7,0.1
				c-0.2,0-0.4,0-0.6-0.1c-0.2-0.1-0.3-0.2-0.5-0.3c-0.1-0.1-0.2-0.3-0.3-0.5c-0.1-0.2-0.1-0.4-0.1-0.6c0-0.2,0-0.3,0.1-0.4
				c0-0.1,0.1-0.3,0.1-0.4c0.1-0.1,0.1-0.2,0.2-0.3c0.1-0.1,0.2-0.2,0.3-0.2c0.1-0.1,0.2-0.1,0.4-0.2c0.1,0,0.3-0.1,0.4-0.1
				c0.1,0,0.2,0,0.3,0c0.1,0,0.2,0,0.3,0.1c0.1,0,0.2,0.1,0.2,0.1c0.1,0.1,0.1,0.1,0.2,0.2l-0.2,0.3c0,0,0,0,0,0c0,0,0,0-0.1,0
				c0,0-0.1,0-0.1,0c0,0-0.1-0.1-0.1-0.1c-0.1,0-0.1-0.1-0.2-0.1c-0.1,0-0.2,0-0.3,0c-0.1,0-0.3,0-0.4,0.1c-0.1,0-0.2,0.1-0.3,0.2
				c-0.1,0.1-0.1,0.2-0.2,0.3c0,0.1-0.1,0.3-0.1,0.4c0,0.2,0,0.3,0.1,0.5s0.1,0.2,0.2,0.3c0.1,0.1,0.2,0.2,0.3,0.2
				c0.1,0,0.2,0.1,0.4,0.1c0.1,0,0.1,0,0.2,0c0.1,0,0.1,0,0.2,0c0.1,0,0.1,0,0.1-0.1c0,0,0.1-0.1,0.1-0.1
				C43.3,18.3,43.3,18.3,43.4,18.3C43.3,18.3,43.3,18.3,43.4,18.3z"/>
			<path fill="#222222" d="M44.7,16.4v0.8h1v0.5h-1v0.8h1.3V19h-2v-3.1h2v0.5H44.7z"/>
			<path fill="#222222" d="M49.5,17.5c0,0.2,0,0.4-0.1,0.6c-0.1,0.2-0.2,0.4-0.3,0.5s-0.3,0.3-0.5,0.3c-0.2,0.1-0.4,0.1-0.7,0.1
				s-0.5,0-0.7-0.1c-0.2-0.1-0.4-0.2-0.5-0.3s-0.3-0.3-0.3-0.5c-0.1-0.2-0.1-0.4-0.1-0.6c0-0.2,0-0.4,0.1-0.6
				c0.1-0.2,0.2-0.4,0.3-0.5s0.3-0.3,0.5-0.3c0.2-0.1,0.4-0.1,0.7-0.1s0.5,0,0.7,0.1c0.2,0.1,0.4,0.2,0.5,0.3
				c0.1,0.1,0.2,0.3,0.3,0.5S49.5,17.2,49.5,17.5z M48.9,17.5c0-0.2,0-0.3-0.1-0.4s-0.1-0.2-0.2-0.3s-0.2-0.2-0.3-0.2
				c-0.1,0-0.2-0.1-0.4-0.1s-0.3,0-0.4,0.1c-0.1,0-0.2,0.1-0.3,0.2c-0.1,0.1-0.1,0.2-0.2,0.3c0,0.1-0.1,0.3-0.1,0.4
				c0,0.2,0,0.3,0.1,0.4c0,0.1,0.1,0.2,0.2,0.3c0.1,0.1,0.2,0.2,0.3,0.2s0.2,0.1,0.4,0.1s0.3,0,0.4-0.1s0.2-0.1,0.3-0.2
				s0.1-0.2,0.2-0.3C48.8,17.8,48.9,17.6,48.9,17.5z"/>
		</g>
	</g>
</g>
<g>
</g>
<g>
</g>
<g>
</g>
<g>
</g>
<g>
</g>
<g>
</g>
</svg>
