<?xml version="1.0" encoding="utf-8"?>
<!-- Generator: Adobe Illustrator 24.3.0, SVG Export Plug-In . SVG Version: 6.00 Build 0)  -->
<svg version="1.1" id="Layer_1" xmlns="http://www.w3.org/2000/svg" xmlns:xlink="http://www.w3.org/1999/xlink" x="0px" y="0px"
	 viewBox="0 0 90.6 90.6" enable-background="new 0 0 90.6 90.6" xml:space="preserve">
<g>
	<rect x="0.3" y="0.3" fill="#F2F2F2" stroke="#E2E2E2" stroke-width="0.5616" stroke-miterlimit="10" width="90" height="90"/>
	<g>
		<path fill-rule="evenodd" clip-rule="evenodd" fill="#666666" d="M46.1,35.4c-0.9,0.7-1.9,1.5-2.7,2.2c0.9,4.4,1.9,8.7,2.7,12.9
			c0.9-4.3,1.7-8.5,2.6-12.9C47.8,37,47,36.1,46.1,35.4z M46,31.9c-5.6,0-10.4-5.8-10.4-12.8c-1-2.6-0.3-11.6,5.6-11.4
			c6.6-3.4,11.4,0.3,14.6,2.6c1.2,2.4,1.9,6.1,0.5,8.3C56.5,25.9,51.9,31.9,46,31.9z M46,30.5c-4.9,0-9-5.1-9-11.4
			c0-1,0.2-1.9,0.2-2.6c0.7-1.7,2.2-2.6,3.4-1.5c4.1,3.4,9,3.2,13.6,2.6c1.2-0.2,1,1.2,0.9,2.2C54.8,25.6,50.9,30.5,46,30.5z
			 M24.7,57.4c0-4.9,0.2-9.9,0-14.6c0-4.1,1.9-4.9,4.9-6l7.8-2.9c0.7-0.7,1.4-1.5,1.9-2.2c2.2,0.9,4.6,1.9,6.8,2.7
			c2.2-0.9,4.4-1.9,6.6-2.7c0.7,0.7,1.2,1.5,1.9,2.2l8,2.9c3.1,1,4.8,1.9,4.8,6c0,4.8,0,9.7,0,14.6C53.1,57.4,39,57.4,24.7,57.4z
			 M46.5,52.6c2.7-6,5.3-11.9,8-17.9c0.5,0.9,1.2,1.9,1.9,2.7c-1,1-2,2-2.9,3.1c0.7,0.9,1.5,1.7,2.4,2.6
			C52.8,46.1,49.7,49.4,46.5,52.6z M45.6,52.6c-2.6-6-5.3-11.9-7.8-17.9c-0.7,0.9-1.4,1.9-1.9,2.7c0.9,1,1.9,2,2.9,3.1
			c-0.9,0.9-1.7,1.7-2.6,2.6C39.3,46.1,42.6,49.4,45.6,52.6z"/>
	</g>
	<g>
		<path fill="#999999" d="M37.8,75.3h-6.3c-0.7,0-1.3,0.6-1.3,1.3v6.3c0,0.7,0.6,1.3,1.3,1.3h2.6V81h-1v-1.6h1v-1.1
			c0-0.9,0.7-1.6,1.6-1.6h1.6v1.6h-1.6v1.1h1.6L37,81h-1.3v3.1h2.1c0.7,0,1.3-0.6,1.3-1.3v-6.3C39,75.9,38.5,75.3,37.8,75.3z"/>
		<g>
			<path fill="#999999" d="M50,75.8c-0.3-0.3-0.7-0.5-1.2-0.5h-5.6c-0.5,0-0.9,0.2-1.2,0.5c-0.3,0.3-0.5,0.7-0.5,1.2v5.6
				c0,0.5,0.2,0.9,0.5,1.2c0.3,0.3,0.7,0.5,1.2,0.5h5.6c0.5,0,0.9-0.2,1.2-0.5c0.3-0.3,0.5-0.7,0.5-1.2V77
				C50.5,76.5,50.3,76.1,50,75.8z M48.4,78.7c0,0,0,0.1,0,0.2c0,0.3,0,0.7-0.1,1c-0.1,0.3-0.2,0.6-0.4,0.9c-0.2,0.3-0.4,0.6-0.7,0.8
				c-0.3,0.2-0.6,0.4-1,0.6c-0.4,0.1-0.8,0.2-1.2,0.2c-0.7,0-1.3-0.2-1.9-0.5c0.1,0,0.2,0,0.3,0c0.6,0,1.1-0.2,1.5-0.5
				c-0.3,0-0.5-0.1-0.7-0.2c-0.2-0.2-0.4-0.4-0.4-0.6c0.1,0,0.2,0,0.2,0c0.1,0,0.2,0,0.3,0c-0.3-0.1-0.5-0.2-0.7-0.4
				c-0.2-0.2-0.3-0.5-0.3-0.8v0c0.2,0.1,0.4,0.1,0.6,0.2c-0.4-0.2-0.5-0.6-0.5-1c0-0.2,0.1-0.4,0.2-0.6c0.3,0.4,0.7,0.7,1.1,0.9
				C45,78.9,45.5,79,46,79c0-0.1,0-0.2,0-0.3c0-0.3,0.1-0.6,0.4-0.9c0.2-0.2,0.5-0.4,0.9-0.4c0.4,0,0.7,0.1,0.9,0.4
				c0.3-0.1,0.5-0.1,0.8-0.3c-0.1,0.3-0.3,0.5-0.5,0.7c0.3,0,0.5-0.1,0.7-0.2C48.9,78.3,48.7,78.5,48.4,78.7z"/>
		</g>
		<path fill="#999999" d="M60.6,75.3h-6.3c-0.7,0-1.3,0.6-1.3,1.3v6.3c0,0.7,0.6,1.3,1.3,1.3h6.3c0.7,0,1.3-0.6,1.3-1.3v-6.3
			C61.9,75.9,61.3,75.3,60.6,75.3z M56.2,82.4h-1v-3.6h1V82.4z M56.2,78.2h-1v-1h1V78.2z M59.8,82.4h-1v-2.1c0-0.3-0.2-0.5-0.5-0.5
			c-0.3,0-0.5,0.2-0.5,0.5v2.1h-1v-3.6h1v0.2c0.3-0.1,0.5-0.2,0.8-0.2c0.7,0,1.3,0.6,1.3,1.4V82.4z"/>
	</g>
	<g>
		<path fill="#444444" d="M32.4,65.2h-0.7c-0.1,0-0.1,0-0.2-0.1c0,0-0.1-0.1-0.1-0.1l-0.4-1h-1.9l-0.4,1c0,0-0.1,0.1-0.1,0.1
			c-0.1,0-0.1,0.1-0.2,0.1h-0.7l1.8-4.7h0.9L32.4,65.2z M29.4,63.4h1.5l-0.6-1.6c0-0.1-0.1-0.2-0.1-0.2c0-0.1-0.1-0.2-0.1-0.3
			c0,0.1-0.1,0.2-0.1,0.3c0,0.1-0.1,0.2-0.1,0.2L29.4,63.4z"/>
		<path fill="#444444" d="M35.5,65.2h-0.4c-0.1,0-0.1,0-0.2,0c0,0-0.1-0.1-0.1-0.1l-0.1-0.2c-0.1,0.1-0.2,0.1-0.2,0.2
			c-0.1,0.1-0.2,0.1-0.3,0.1c-0.1,0-0.2,0.1-0.3,0.1s-0.2,0-0.3,0c-0.1,0-0.3,0-0.4-0.1S33.1,65.1,33,65c-0.1-0.1-0.2-0.2-0.2-0.3
			c0-0.1-0.1-0.2-0.1-0.4c0-0.1,0-0.3,0.1-0.4c0.1-0.1,0.2-0.2,0.3-0.3s0.4-0.2,0.6-0.2c0.3-0.1,0.6-0.1,1-0.1v-0.2
			c0-0.2,0-0.4-0.1-0.5c-0.1-0.1-0.2-0.2-0.4-0.2c-0.1,0-0.2,0-0.3,0s-0.2,0.1-0.2,0.1c-0.1,0-0.1,0.1-0.2,0.1c-0.1,0-0.1,0-0.2,0
			c-0.1,0-0.1,0-0.1,0S33,62.6,33,62.6l-0.1-0.3c0.4-0.4,0.8-0.5,1.4-0.5c0.2,0,0.4,0,0.5,0.1c0.2,0.1,0.3,0.2,0.4,0.3
			s0.2,0.2,0.2,0.4c0.1,0.2,0.1,0.3,0.1,0.5V65.2z M33.9,64.7c0.1,0,0.2,0,0.2,0c0.1,0,0.1,0,0.2-0.1c0.1,0,0.1-0.1,0.2-0.1
			c0.1,0,0.1-0.1,0.2-0.2v-0.6c-0.2,0-0.4,0-0.6,0c-0.2,0-0.3,0.1-0.4,0.1c-0.1,0-0.2,0.1-0.2,0.2s-0.1,0.1-0.1,0.2
			c0,0.1,0,0.2,0.1,0.3C33.7,64.6,33.8,64.7,33.9,64.7z"/>
		<path fill="#444444" d="M36.3,65.2v-3.3h0.5c0.1,0,0.1,0,0.2,0c0,0,0.1,0.1,0.1,0.2l0,0.4c0.1-0.2,0.3-0.4,0.4-0.5
			c0.2-0.1,0.3-0.2,0.5-0.2c0.2,0,0.3,0,0.4,0.1l-0.1,0.6c0,0,0,0.1,0,0.1c0,0-0.1,0-0.1,0c0,0-0.1,0-0.1,0c-0.1,0-0.1,0-0.2,0
			c-0.2,0-0.3,0-0.4,0.1c-0.1,0.1-0.2,0.2-0.3,0.4v2.1H36.3z"/>
		<path fill="#444444" d="M40.4,61.8c0.2,0,0.5,0,0.7,0.1c0.2,0.1,0.4,0.2,0.5,0.3c0.1,0.1,0.3,0.3,0.3,0.5s0.1,0.4,0.1,0.7
			c0,0.3,0,0.5-0.1,0.7c-0.1,0.2-0.2,0.4-0.3,0.5c-0.1,0.1-0.3,0.3-0.5,0.3c-0.2,0.1-0.4,0.1-0.7,0.1c-0.2,0-0.5,0-0.7-0.1
			c-0.2-0.1-0.4-0.2-0.5-0.3c-0.1-0.1-0.3-0.3-0.3-0.5c-0.1-0.2-0.1-0.5-0.1-0.7c0-0.3,0-0.5,0.1-0.7s0.2-0.4,0.3-0.5
			c0.1-0.1,0.3-0.3,0.5-0.3C39.9,61.8,40.1,61.8,40.4,61.8z M40.4,64.6c0.3,0,0.5-0.1,0.6-0.3c0.1-0.2,0.2-0.5,0.2-0.8
			c0-0.4-0.1-0.6-0.2-0.8c-0.1-0.2-0.3-0.3-0.6-0.3c-0.3,0-0.5,0.1-0.6,0.3c-0.1,0.2-0.2,0.5-0.2,0.8c0,0.4,0.1,0.6,0.2,0.8
			C39.9,64.5,40.1,64.6,40.4,64.6z"/>
		<path fill="#444444" d="M42.6,65.2v-3.3h0.5c0.1,0,0.2,0,0.2,0.1l0.1,0.3c0.1-0.1,0.1-0.1,0.2-0.2c0.1-0.1,0.2-0.1,0.2-0.1
			c0.1,0,0.2-0.1,0.3-0.1c0.1,0,0.2,0,0.3,0c0.2,0,0.3,0,0.5,0.1c0.1,0.1,0.3,0.1,0.4,0.3c0.1,0.1,0.2,0.2,0.2,0.4
			c0,0.2,0.1,0.3,0.1,0.5v2.1h-0.8V63c0-0.2,0-0.4-0.1-0.5c-0.1-0.1-0.2-0.2-0.4-0.2c-0.1,0-0.3,0-0.4,0.1c-0.1,0.1-0.2,0.1-0.3,0.3
			v2.4H42.6z"/>
		<path fill="#444444" d="M49.5,63.5c0,0.3,0,0.5-0.1,0.7c-0.1,0.2-0.2,0.4-0.3,0.5c-0.1,0.1-0.3,0.3-0.5,0.3
			c-0.2,0.1-0.4,0.1-0.7,0.1c-0.1,0-0.2,0-0.3,0c-0.1,0-0.2,0-0.4-0.1l0-0.5c0,0,0-0.1,0.1-0.1s0.1,0,0.1,0c0,0,0.1,0,0.1,0
			s0.1,0,0.2,0c0.1,0,0.2,0,0.3-0.1c0.1,0,0.2-0.1,0.2-0.2c0.1-0.1,0.1-0.2,0.1-0.3c0-0.1,0-0.3,0-0.5v-3h0.9V63.5z"/>
		<path fill="#444444" d="M51.2,61.8V64c0,0.2,0,0.4,0.1,0.5c0.1,0.1,0.2,0.2,0.4,0.2c0.1,0,0.3,0,0.4-0.1c0.1-0.1,0.2-0.1,0.3-0.3
			v-2.4h0.8v3.3h-0.5c-0.1,0-0.2,0-0.2-0.1l-0.1-0.3c-0.1,0.1-0.1,0.1-0.2,0.2s-0.2,0.1-0.2,0.1c-0.1,0-0.2,0.1-0.3,0.1
			c-0.1,0-0.2,0-0.3,0c-0.2,0-0.3,0-0.5-0.1c-0.1-0.1-0.3-0.1-0.4-0.3c-0.1-0.1-0.2-0.2-0.2-0.4c0-0.2-0.1-0.3-0.1-0.5v-2.1H51.2z"
			/>
		<path fill="#444444" d="M56.5,65.2c-0.1,0-0.2,0-0.2-0.1l-0.1-0.3c-0.1,0.1-0.1,0.1-0.2,0.2c-0.1,0.1-0.2,0.1-0.2,0.2
			s-0.2,0.1-0.3,0.1s-0.2,0-0.3,0c-0.2,0-0.3,0-0.5-0.1c-0.2-0.1-0.3-0.2-0.4-0.3s-0.2-0.3-0.3-0.5s-0.1-0.5-0.1-0.7
			c0-0.2,0-0.5,0.1-0.7s0.2-0.4,0.3-0.6c0.1-0.2,0.3-0.3,0.5-0.4c0.2-0.1,0.4-0.1,0.6-0.1c0.2,0,0.3,0,0.5,0.1
			c0.1,0.1,0.2,0.1,0.4,0.2v-1.8H57v4.8H56.5z M55.4,64.6c0.2,0,0.3,0,0.4-0.1s0.2-0.2,0.3-0.3v-1.5c-0.1-0.1-0.2-0.2-0.3-0.2
			s-0.2-0.1-0.3-0.1c-0.1,0-0.2,0-0.3,0.1s-0.2,0.1-0.2,0.2c-0.1,0.1-0.1,0.2-0.2,0.4c0,0.1-0.1,0.3-0.1,0.5c0,0.2,0,0.4,0,0.5
			c0,0.1,0.1,0.2,0.1,0.3c0.1,0.1,0.1,0.1,0.2,0.2C55.2,64.6,55.3,64.6,55.4,64.6z"/>
		<path fill="#444444" d="M59,61.8c0.1,0,0.3,0,0.4,0s0.2,0.1,0.3,0.1h1v0.3c0,0,0,0.1,0,0.1s-0.1,0-0.1,0.1l-0.3,0.1
			c0,0.1,0,0.1,0.1,0.2s0,0.1,0,0.2c0,0.2,0,0.3-0.1,0.4c-0.1,0.1-0.2,0.2-0.3,0.3s-0.3,0.2-0.4,0.2c-0.2,0.1-0.3,0.1-0.5,0.1
			c-0.1,0-0.2,0-0.4,0c-0.1,0.1-0.2,0.1-0.2,0.2c0,0.1,0,0.1,0.1,0.1s0.1,0.1,0.2,0.1s0.2,0,0.3,0s0.3,0,0.4,0c0.1,0,0.3,0,0.4,0.1
			c0.1,0,0.2,0.1,0.3,0.1c0.1,0.1,0.2,0.1,0.2,0.2c0.1,0.1,0.1,0.2,0.1,0.4c0,0.1,0,0.3-0.1,0.4s-0.2,0.3-0.3,0.4s-0.3,0.2-0.5,0.3
			c-0.2,0.1-0.4,0.1-0.7,0.1c-0.3,0-0.5,0-0.7-0.1c-0.2,0-0.3-0.1-0.5-0.2c-0.1-0.1-0.2-0.2-0.3-0.3c-0.1-0.1-0.1-0.2-0.1-0.3
			c0-0.2,0-0.3,0.1-0.4c0.1-0.1,0.2-0.2,0.4-0.3c-0.1,0-0.1-0.1-0.2-0.2c0-0.1-0.1-0.2-0.1-0.3c0,0,0-0.1,0-0.2c0-0.1,0-0.1,0.1-0.2
			c0-0.1,0.1-0.1,0.1-0.1c0.1,0,0.1-0.1,0.2-0.1c-0.2-0.1-0.3-0.2-0.4-0.4c-0.1-0.2-0.1-0.3-0.1-0.5c0-0.2,0-0.3,0.1-0.4
			s0.2-0.2,0.3-0.3s0.3-0.2,0.4-0.2C58.6,61.8,58.8,61.8,59,61.8z M59.9,65.3c0-0.1,0-0.1-0.1-0.2c0,0-0.1-0.1-0.2-0.1
			c-0.1,0-0.1,0-0.2-0.1s-0.2,0-0.3,0s-0.2,0-0.3,0c-0.1,0-0.2,0-0.3,0c-0.1,0-0.2,0.1-0.2,0.2c-0.1,0.1-0.1,0.1-0.1,0.2
			c0,0.1,0,0.1,0,0.2c0,0.1,0.1,0.1,0.1,0.1c0.1,0,0.1,0.1,0.2,0.1c0.1,0,0.2,0,0.4,0c0.1,0,0.3,0,0.4,0c0.1,0,0.2-0.1,0.3-0.1
			s0.1-0.1,0.2-0.1C59.9,65.4,59.9,65.4,59.9,65.3z M59,63.4c0.1,0,0.2,0,0.3,0c0.1,0,0.1-0.1,0.2-0.1s0.1-0.1,0.1-0.2
			c0-0.1,0-0.1,0-0.2c0-0.2,0-0.3-0.1-0.4c-0.1-0.1-0.2-0.1-0.4-0.1s-0.3,0-0.4,0.1c-0.1,0.1-0.1,0.2-0.1,0.4c0,0.1,0,0.2,0,0.2
			c0,0.1,0.1,0.1,0.1,0.2c0,0,0.1,0.1,0.2,0.1C58.8,63.4,58.9,63.4,59,63.4z"/>
		<path fill="#444444" d="M62.6,61.8c0.2,0,0.4,0,0.6,0.1c0.2,0.1,0.3,0.2,0.5,0.3s0.2,0.3,0.3,0.5s0.1,0.4,0.1,0.6
			c0,0.1,0,0.1,0,0.2c0,0,0,0.1,0,0.1c0,0,0,0-0.1,0c0,0-0.1,0-0.1,0h-2.1c0,0.3,0.1,0.6,0.3,0.8c0.2,0.2,0.4,0.2,0.6,0.2
			c0.1,0,0.2,0,0.3,0c0.1,0,0.2-0.1,0.2-0.1c0.1,0,0.1-0.1,0.2-0.1c0.1,0,0.1,0,0.2,0c0,0,0.1,0,0.1,0c0,0,0,0,0.1,0.1l0.2,0.3
			c-0.1,0.1-0.2,0.2-0.3,0.3c-0.1,0.1-0.2,0.1-0.3,0.2c-0.1,0-0.2,0.1-0.4,0.1c-0.1,0-0.2,0-0.4,0c-0.2,0-0.4,0-0.6-0.1
			c-0.2-0.1-0.4-0.2-0.5-0.3c-0.1-0.2-0.3-0.3-0.3-0.6C61,64,61,63.7,61,63.4c0-0.2,0-0.4,0.1-0.6c0.1-0.2,0.2-0.4,0.3-0.5
			c0.1-0.1,0.3-0.3,0.5-0.4C62.1,61.8,62.3,61.8,62.6,61.8z M62.6,62.4c-0.2,0-0.4,0.1-0.5,0.2s-0.2,0.3-0.3,0.6h1.5
			c0-0.1,0-0.2,0-0.3s-0.1-0.2-0.1-0.2s-0.1-0.1-0.2-0.2S62.7,62.4,62.6,62.4z"/>
	</g>
	<g>
		<path fill="#222222" d="M44.1,70.9C44.2,70.9,44.2,70.9,44.1,70.9l0.3,0.3c-0.1,0.2-0.3,0.3-0.5,0.4c-0.2,0.1-0.4,0.1-0.7,0.1
			c-0.2,0-0.4,0-0.6-0.1c-0.2-0.1-0.3-0.2-0.5-0.3c-0.1-0.1-0.2-0.3-0.3-0.5c-0.1-0.2-0.1-0.4-0.1-0.6c0-0.2,0-0.3,0.1-0.4
			c0-0.1,0.1-0.3,0.1-0.4c0.1-0.1,0.1-0.2,0.2-0.3c0.1-0.1,0.2-0.2,0.3-0.2c0.1-0.1,0.2-0.1,0.4-0.2c0.1,0,0.3-0.1,0.4-0.1
			c0.1,0,0.2,0,0.3,0c0.1,0,0.2,0,0.3,0.1c0.1,0,0.2,0.1,0.2,0.1c0.1,0.1,0.1,0.1,0.2,0.2l-0.2,0.3c0,0,0,0,0,0c0,0,0,0-0.1,0
			c0,0-0.1,0-0.1,0c0,0-0.1-0.1-0.1-0.1c-0.1,0-0.1-0.1-0.2-0.1c-0.1,0-0.2,0-0.3,0c-0.1,0-0.3,0-0.4,0.1c-0.1,0-0.2,0.1-0.3,0.2
			c-0.1,0.1-0.1,0.2-0.2,0.3c0,0.1-0.1,0.3-0.1,0.4c0,0.2,0,0.3,0.1,0.5s0.1,0.2,0.2,0.3c0.1,0.1,0.2,0.2,0.3,0.2
			c0.1,0,0.2,0.1,0.4,0.1c0.1,0,0.1,0,0.2,0c0.1,0,0.1,0,0.2,0c0.1,0,0.1,0,0.1-0.1c0,0,0.1-0.1,0.1-0.1C44,71,44,70.9,44.1,70.9
			C44.1,70.9,44.1,70.9,44.1,70.9z"/>
		<path fill="#222222" d="M45.5,69.1v0.8h1v0.5h-1v0.8h1.3v0.5h-2v-3.1h2v0.5H45.5z"/>
		<path fill="#222222" d="M50.3,70.1c0,0.2,0,0.4-0.1,0.6c-0.1,0.2-0.2,0.4-0.3,0.5s-0.3,0.3-0.5,0.3c-0.2,0.1-0.4,0.1-0.7,0.1
			s-0.5,0-0.7-0.1c-0.2-0.1-0.4-0.2-0.5-0.3s-0.3-0.3-0.3-0.5c-0.1-0.2-0.1-0.4-0.1-0.6c0-0.2,0-0.4,0.1-0.6
			c0.1-0.2,0.2-0.4,0.3-0.5s0.3-0.3,0.5-0.3c0.2-0.1,0.4-0.1,0.7-0.1s0.5,0,0.7,0.1c0.2,0.1,0.4,0.2,0.5,0.3
			c0.1,0.1,0.2,0.3,0.3,0.5S50.3,69.9,50.3,70.1z M49.6,70.1c0-0.2,0-0.3-0.1-0.4s-0.1-0.2-0.2-0.3s-0.2-0.2-0.3-0.2
			c-0.1,0-0.2-0.1-0.4-0.1s-0.3,0-0.4,0.1c-0.1,0-0.2,0.1-0.3,0.2c-0.1,0.1-0.1,0.2-0.2,0.3c0,0.1-0.1,0.3-0.1,0.4
			c0,0.2,0,0.3,0.1,0.4c0,0.1,0.1,0.2,0.2,0.3c0.1,0.1,0.2,0.2,0.3,0.2s0.2,0.1,0.4,0.1s0.3,0,0.4-0.1s0.2-0.1,0.3-0.2
			s0.1-0.2,0.2-0.3C49.6,70.4,49.6,70.3,49.6,70.1z"/>
	</g>
</g>
<g>
</g>
<g>
</g>
<g>
</g>
<g>
</g>
<g>
</g>
<g>
</g>
</svg>
