<?xml version="1.0" encoding="utf-8"?>
<!-- Generator: Adobe Illustrator 17.0.0, SVG Export Plug-In . SVG Version: 6.00 Build 0)  -->
<!DOCTYPE svg PUBLIC "-//W3C//DTD SVG 1.1//EN" "http://www.w3.org/Graphics/SVG/1.1/DTD/svg11.dtd">
<svg version="1.1" id="Layer_1" xmlns="http://www.w3.org/2000/svg" xmlns:xlink="http://www.w3.org/1999/xlink" x="0px" y="0px"
	 width="30px" height="30px" viewBox="0 0 30 30" enable-background="new 0 0 30 30" xml:space="preserve">
<path fill="#3FAD43" d="M15,29.808c8.168,0,14.808-6.641,14.808-14.808c0-1.411-0.201-2.8-0.586-4.126
	c-0.193-0.656-0.872-1.034-1.527-0.841c-0.656,0.193-1.026,0.879-0.841,1.527c0.324,1.103,0.486,2.26,0.486,3.432
	c0,6.803-5.538,12.34-12.34,12.34S2.66,21.803,2.66,15S8.197,2.66,15,2.66c2.476,0,4.851,0.725,6.88,2.09
	c0.563,0.378,1.334,0.231,1.712-0.332c0.378-0.563,0.231-1.334-0.332-1.712C20.823,1.063,17.969,0.192,15,0.192
	C6.832,0.192,0.192,6.832,0.192,15S6.832,29.808,15,29.808z M27.703,3.022L15,15.725l-4.065-4.065c-0.478-0.478-1.265-0.478-1.743,0
	c-0.478,0.478-0.478,1.265,0,1.743l4.936,4.936c0.239,0.239,0.555,0.362,0.872,0.362s0.632-0.123,0.872-0.362L29.446,4.765
	c0.478-0.478,0.478-1.265,0-1.743C28.968,2.536,28.181,2.536,27.703,3.022z"/>
</svg>
