<?xml version="1.0" encoding="utf-8"?>
<!-- Generator: Adobe Illustrator 24.3.0, SVG Export Plug-In . SVG Version: 6.00 Build 0)  -->
<svg version="1.1" id="Layer_1" xmlns="http://www.w3.org/2000/svg" xmlns:xlink="http://www.w3.org/1999/xlink" x="0px" y="0px"
	 viewBox="0 0 90.6 90.6" enable-background="new 0 0 90.6 90.6" xml:space="preserve">
<g>
	<rect x="0.3" y="0.3" fill="#F2F2F2" stroke="#E2E2E2" stroke-width="0.5616" stroke-miterlimit="10" width="90" height="90"/>
	<g>
		<path fill-rule="evenodd" clip-rule="evenodd" fill="#666666" d="M45.4,48.9c-0.9,0.7-1.9,1.5-2.7,2.2c0.9,4.4,1.9,8.7,2.7,12.9
			c0.9-4.3,1.7-8.5,2.6-12.9C47.1,50.4,46.2,49.5,45.4,48.9z M45.2,45.3c-5.6,0-10.4-5.8-10.4-12.8c-1-2.6-0.3-11.6,5.6-11.4
			c6.6-3.4,11.4,0.3,14.6,2.6c1.2,2.4,1.9,6.1,0.5,8.3C55.7,39.3,51.1,45.3,45.2,45.3z M45.2,43.9c-4.9,0-9-5.1-9-11.4
			c0-1,0.2-1.9,0.2-2.6c0.7-1.7,2.2-2.6,3.4-1.5c4.1,3.4,9,3.2,13.6,2.6c1.2-0.2,1,1.2,0.9,2.2C54,39,50.1,43.9,45.2,43.9z
			 M23.9,70.8c0-4.9,0.2-9.9,0-14.6c0-4.1,1.9-4.9,4.9-6l7.8-2.9c0.7-0.7,1.4-1.5,1.9-2.2c2.2,0.9,4.6,1.9,6.8,2.7
			c2.2-0.9,4.4-1.9,6.6-2.7c0.7,0.7,1.2,1.5,1.9,2.2l8,2.9c3.1,1,4.8,1.9,4.8,6c0,4.8,0,9.7,0,14.6C52.3,70.8,38.2,70.8,23.9,70.8z
			 M45.7,66c2.7-6,5.3-11.9,8-17.9c0.5,0.9,1.2,1.9,1.9,2.7c-1,1-2,2-2.9,3.1c0.7,0.9,1.5,1.7,2.4,2.6C52,59.6,48.9,62.8,45.7,66z
			 M44.9,66c-2.6-6-5.3-11.9-7.8-17.9c-0.7,0.9-1.4,1.9-1.9,2.7c0.9,1,1.9,2,2.9,3.1c-0.9,0.9-1.7,1.7-2.6,2.6
			C38.6,59.6,41.8,62.8,44.9,66z"/>
	</g>
	<rect x="0.3" y="0.3" opacity="0.7" fill="#666666" width="90" height="90"/>
	<g>
		<g>
			<path fill="#F2F2F2" d="M37.1,48.3h-6.3c-0.7,0-1.3,0.6-1.3,1.3v6.3c0,0.7,0.6,1.3,1.3,1.3h2.6V54h-1v-1.6h1v-1.1
				c0-0.9,0.7-1.6,1.6-1.6h1.6v1.6H35v1.1h1.6L36.3,54H35v3.1h2.1c0.7,0,1.3-0.6,1.3-1.3v-6.3C38.4,48.9,37.8,48.3,37.1,48.3z"/>
			<g>
				<path fill="#F2F2F2" d="M49.4,48.8c-0.3-0.3-0.7-0.5-1.2-0.5h-5.6c-0.5,0-0.9,0.2-1.2,0.5c-0.3,0.3-0.5,0.7-0.5,1.2v5.6
					c0,0.5,0.2,0.9,0.5,1.2c0.3,0.3,0.7,0.5,1.2,0.5h5.6c0.5,0,0.9-0.2,1.2-0.5c0.3-0.3,0.5-0.7,0.5-1.2V50
					C49.8,49.5,49.7,49.1,49.4,48.8z M47.7,51.7c0,0,0,0.1,0,0.2c0,0.3,0,0.7-0.1,1c-0.1,0.3-0.2,0.6-0.4,0.9
					c-0.2,0.3-0.4,0.6-0.7,0.8c-0.3,0.2-0.6,0.4-1,0.6c-0.4,0.1-0.8,0.2-1.2,0.2c-0.7,0-1.3-0.2-1.9-0.5c0.1,0,0.2,0,0.3,0
					c0.6,0,1.1-0.2,1.5-0.5c-0.3,0-0.5-0.1-0.7-0.2c-0.2-0.2-0.4-0.4-0.4-0.6c0.1,0,0.2,0,0.2,0c0.1,0,0.2,0,0.3,0
					c-0.3-0.1-0.5-0.2-0.7-0.4c-0.2-0.2-0.3-0.5-0.3-0.8v0c0.2,0.1,0.4,0.1,0.6,0.2c-0.4-0.2-0.5-0.6-0.5-1c0-0.2,0.1-0.4,0.2-0.6
					c0.3,0.4,0.7,0.7,1.1,0.9c0.4,0.2,0.9,0.4,1.4,0.4c0-0.1,0-0.2,0-0.3c0-0.3,0.1-0.6,0.4-0.9c0.2-0.2,0.5-0.4,0.9-0.4
					c0.4,0,0.7,0.1,0.9,0.4c0.3-0.1,0.5-0.1,0.8-0.3c-0.1,0.3-0.3,0.5-0.5,0.7c0.3,0,0.5-0.1,0.7-0.2C48.2,51.3,48,51.5,47.7,51.7z"
					/>
			</g>
			<path fill="#F2F2F2" d="M59.9,48.3h-6.3c-0.7,0-1.3,0.6-1.3,1.3v6.3c0,0.7,0.6,1.3,1.3,1.3h6.3c0.7,0,1.3-0.6,1.3-1.3v-6.3
				C61.2,48.9,60.7,48.3,59.9,48.3z M55.5,55.4h-1v-3.6h1V55.4z M55.5,51.2h-1v-1h1V51.2z M59.1,55.4h-1v-2.1c0-0.3-0.2-0.5-0.5-0.5
				c-0.3,0-0.5,0.2-0.5,0.5v2.1h-1v-3.6h1v0.2c0.3-0.1,0.5-0.2,0.8-0.2c0.7,0,1.3,0.6,1.3,1.4V55.4z"/>
		</g>
		<g>
			<path fill="#F2F2F2" d="M31.8,38.2h-0.7c-0.1,0-0.1,0-0.2-0.1c0,0-0.1-0.1-0.1-0.1l-0.4-1h-1.9l-0.4,1c0,0-0.1,0.1-0.1,0.1
				c-0.1,0-0.1,0.1-0.2,0.1h-0.7l1.8-4.7h0.9L31.8,38.2z M28.7,36.4h1.5l-0.6-1.6c0-0.1-0.1-0.2-0.1-0.2c0-0.1-0.1-0.2-0.1-0.3
				c0,0.1-0.1,0.2-0.1,0.3c0,0.1-0.1,0.2-0.1,0.2L28.7,36.4z"/>
			<path fill="#F2F2F2" d="M34.8,38.2h-0.4c-0.1,0-0.1,0-0.2,0c0,0-0.1-0.1-0.1-0.1l-0.1-0.2C34,37.8,34,37.9,33.9,38
				c-0.1,0.1-0.2,0.1-0.3,0.1c-0.1,0-0.2,0.1-0.3,0.1s-0.2,0-0.3,0c-0.1,0-0.3,0-0.4-0.1s-0.2-0.1-0.3-0.2c-0.1-0.1-0.2-0.2-0.2-0.3
				c0-0.1-0.1-0.2-0.1-0.4c0-0.1,0-0.3,0.1-0.4c0.1-0.1,0.2-0.2,0.3-0.3s0.4-0.2,0.6-0.2c0.3-0.1,0.6-0.1,1-0.1v-0.2
				c0-0.2,0-0.4-0.1-0.5c-0.1-0.1-0.2-0.2-0.4-0.2c-0.1,0-0.2,0-0.3,0S33,35.5,33,35.6c-0.1,0-0.1,0.1-0.2,0.1c-0.1,0-0.1,0-0.2,0
				c-0.1,0-0.1,0-0.1,0s-0.1-0.1-0.1-0.1l-0.1-0.3c0.4-0.4,0.8-0.5,1.4-0.5c0.2,0,0.4,0,0.5,0.1c0.2,0.1,0.3,0.2,0.4,0.3
				s0.2,0.2,0.2,0.4c0.1,0.2,0.1,0.3,0.1,0.5V38.2z M33.3,37.7c0.1,0,0.2,0,0.2,0c0.1,0,0.1,0,0.2-0.1c0.1,0,0.1-0.1,0.2-0.1
				c0.1,0,0.1-0.1,0.2-0.2v-0.6c-0.2,0-0.4,0-0.6,0c-0.2,0-0.3,0.1-0.4,0.1c-0.1,0-0.2,0.1-0.2,0.2s-0.1,0.1-0.1,0.2
				c0,0.1,0,0.2,0.1,0.3C33,37.6,33.1,37.7,33.3,37.7z"/>
			<path fill="#F2F2F2" d="M35.6,38.2v-3.3h0.5c0.1,0,0.1,0,0.2,0c0,0,0.1,0.1,0.1,0.2l0,0.4c0.1-0.2,0.3-0.4,0.4-0.5
				c0.2-0.1,0.3-0.2,0.5-0.2c0.2,0,0.3,0,0.4,0.1l-0.1,0.6c0,0,0,0.1,0,0.1c0,0-0.1,0-0.1,0c0,0-0.1,0-0.1,0c-0.1,0-0.1,0-0.2,0
				c-0.2,0-0.3,0-0.4,0.1c-0.1,0.1-0.2,0.2-0.3,0.4v2.1H35.6z"/>
			<path fill="#F2F2F2" d="M39.7,34.8c0.2,0,0.5,0,0.7,0.1c0.2,0.1,0.4,0.2,0.5,0.3c0.1,0.1,0.3,0.3,0.3,0.5s0.1,0.4,0.1,0.7
				c0,0.3,0,0.5-0.1,0.7s-0.2,0.4-0.3,0.5c-0.1,0.1-0.3,0.3-0.5,0.3c-0.2,0.1-0.4,0.1-0.7,0.1c-0.2,0-0.5,0-0.7-0.1
				c-0.2-0.1-0.4-0.2-0.5-0.3c-0.1-0.1-0.3-0.3-0.3-0.5s-0.1-0.5-0.1-0.7c0-0.3,0-0.5,0.1-0.7s0.2-0.4,0.3-0.5
				c0.1-0.1,0.3-0.3,0.5-0.3C39.2,34.8,39.5,34.8,39.7,34.8z M39.7,37.6c0.3,0,0.5-0.1,0.6-0.3c0.1-0.2,0.2-0.5,0.2-0.8
				c0-0.4-0.1-0.6-0.2-0.8c-0.1-0.2-0.3-0.3-0.6-0.3c-0.3,0-0.5,0.1-0.6,0.3c-0.1,0.2-0.2,0.5-0.2,0.8c0,0.4,0.1,0.6,0.2,0.8
				C39.2,37.5,39.4,37.6,39.7,37.6z"/>
			<path fill="#F2F2F2" d="M42,38.2v-3.3h0.5c0.1,0,0.2,0,0.2,0.1l0.1,0.3c0.1-0.1,0.1-0.1,0.2-0.2c0.1-0.1,0.2-0.1,0.2-0.1
				c0.1,0,0.2-0.1,0.3-0.1c0.1,0,0.2,0,0.3,0c0.2,0,0.3,0,0.5,0.1c0.1,0.1,0.3,0.1,0.4,0.3c0.1,0.1,0.2,0.2,0.2,0.4
				c0,0.2,0.1,0.3,0.1,0.5v2.1h-0.8V36c0-0.2,0-0.4-0.1-0.5c-0.1-0.1-0.2-0.2-0.4-0.2c-0.1,0-0.3,0-0.4,0.1
				c-0.1,0.1-0.2,0.1-0.3,0.3v2.4H42z"/>
			<path fill="#F2F2F2" d="M48.9,36.5c0,0.3,0,0.5-0.1,0.7c-0.1,0.2-0.2,0.4-0.3,0.5c-0.1,0.1-0.3,0.3-0.5,0.3
				c-0.2,0.1-0.4,0.1-0.7,0.1c-0.1,0-0.2,0-0.3,0c-0.1,0-0.2,0-0.4-0.1l0-0.5c0,0,0-0.1,0.1-0.1s0.1,0,0.1,0c0,0,0.1,0,0.1,0
				s0.1,0,0.2,0c0.1,0,0.2,0,0.3-0.1c0.1,0,0.2-0.1,0.2-0.2c0.1-0.1,0.1-0.2,0.1-0.3c0-0.1,0-0.3,0-0.5v-3h0.9V36.5z"/>
			<path fill="#F2F2F2" d="M50.5,34.8V37c0,0.2,0,0.4,0.1,0.5c0.1,0.1,0.2,0.2,0.4,0.2c0.1,0,0.3,0,0.4-0.1c0.1-0.1,0.2-0.1,0.3-0.3
				v-2.4h0.8v3.3h-0.5c-0.1,0-0.2,0-0.2-0.1l-0.1-0.3c-0.1,0.1-0.1,0.1-0.2,0.2s-0.2,0.1-0.2,0.1c-0.1,0-0.2,0.1-0.3,0.1
				c-0.1,0-0.2,0-0.3,0c-0.2,0-0.3,0-0.5-0.1c-0.1-0.1-0.3-0.1-0.4-0.3c-0.1-0.1-0.2-0.2-0.2-0.4c0-0.2-0.1-0.3-0.1-0.5v-2.1H50.5z"
				/>
			<path fill="#F2F2F2" d="M55.8,38.2c-0.1,0-0.2,0-0.2-0.1l-0.1-0.3c-0.1,0.1-0.1,0.1-0.2,0.2c-0.1,0.1-0.2,0.1-0.2,0.2
				s-0.2,0.1-0.3,0.1s-0.2,0-0.3,0c-0.2,0-0.3,0-0.5-0.1c-0.2-0.1-0.3-0.2-0.4-0.3s-0.2-0.3-0.3-0.5s-0.1-0.5-0.1-0.7
				c0-0.2,0-0.5,0.1-0.7s0.2-0.4,0.3-0.6c0.1-0.2,0.3-0.3,0.5-0.4c0.2-0.1,0.4-0.1,0.6-0.1c0.2,0,0.3,0,0.5,0.1
				c0.1,0.1,0.2,0.1,0.4,0.2v-1.8h0.8v4.8H55.8z M54.7,37.6c0.2,0,0.3,0,0.4-0.1s0.2-0.2,0.3-0.3v-1.5c-0.1-0.1-0.2-0.2-0.3-0.2
				s-0.2-0.1-0.3-0.1c-0.1,0-0.2,0-0.3,0.1s-0.2,0.1-0.2,0.2c-0.1,0.1-0.1,0.2-0.2,0.4c0,0.1-0.1,0.3-0.1,0.5c0,0.2,0,0.4,0,0.5
				c0,0.1,0.1,0.2,0.1,0.3c0.1,0.1,0.1,0.1,0.2,0.2C54.5,37.6,54.6,37.6,54.7,37.6z"/>
			<path fill="#F2F2F2" d="M58.3,34.8c0.1,0,0.3,0,0.4,0s0.2,0.1,0.3,0.1h1v0.3c0,0,0,0.1,0,0.1s-0.1,0-0.1,0.1l-0.3,0.1
				c0,0.1,0,0.1,0.1,0.2s0,0.1,0,0.2c0,0.2,0,0.3-0.1,0.4c-0.1,0.1-0.2,0.2-0.3,0.3s-0.3,0.2-0.4,0.2c-0.2,0.1-0.3,0.1-0.5,0.1
				c-0.1,0-0.2,0-0.4,0c-0.1,0.1-0.2,0.1-0.2,0.2c0,0.1,0,0.1,0.1,0.1s0.1,0.1,0.2,0.1s0.2,0,0.3,0s0.3,0,0.4,0c0.1,0,0.3,0,0.4,0.1
				c0.1,0,0.2,0.1,0.3,0.1c0.1,0.1,0.2,0.1,0.2,0.2c0.1,0.1,0.1,0.2,0.1,0.4c0,0.1,0,0.3-0.1,0.4s-0.2,0.3-0.3,0.4s-0.3,0.2-0.5,0.3
				c-0.2,0.1-0.4,0.1-0.7,0.1c-0.3,0-0.5,0-0.7-0.1c-0.2,0-0.3-0.1-0.5-0.2c-0.1-0.1-0.2-0.2-0.3-0.3c-0.1-0.1-0.1-0.2-0.1-0.3
				c0-0.2,0-0.3,0.1-0.4c0.1-0.1,0.2-0.2,0.4-0.3c-0.1,0-0.1-0.1-0.2-0.2c0-0.1-0.1-0.2-0.1-0.3c0,0,0-0.1,0-0.2
				c0-0.1,0-0.1,0.1-0.2c0-0.1,0.1-0.1,0.1-0.1c0.1,0,0.1-0.1,0.2-0.1c-0.2-0.1-0.3-0.2-0.4-0.4c-0.1-0.2-0.1-0.3-0.1-0.5
				c0-0.2,0-0.3,0.1-0.4s0.2-0.2,0.3-0.3s0.3-0.2,0.4-0.2C58,34.8,58.1,34.8,58.3,34.8z M59.2,38.3c0-0.1,0-0.1-0.1-0.2
				c0,0-0.1-0.1-0.2-0.1c-0.1,0-0.1,0-0.2-0.1s-0.2,0-0.3,0s-0.2,0-0.3,0c-0.1,0-0.2,0-0.3,0c-0.1,0-0.2,0.1-0.2,0.2
				c-0.1,0.1-0.1,0.1-0.1,0.2c0,0.1,0,0.1,0,0.2c0,0.1,0.1,0.1,0.1,0.1c0.1,0,0.1,0.1,0.2,0.1c0.1,0,0.2,0,0.4,0c0.1,0,0.3,0,0.4,0
				c0.1,0,0.2-0.1,0.3-0.1s0.1-0.1,0.2-0.1C59.2,38.4,59.2,38.4,59.2,38.3z M58.3,36.4c0.1,0,0.2,0,0.3,0c0.1,0,0.1-0.1,0.2-0.1
				s0.1-0.1,0.1-0.2c0-0.1,0-0.1,0-0.2c0-0.2,0-0.3-0.1-0.4c-0.1-0.1-0.2-0.1-0.4-0.1s-0.3,0-0.4,0.1c-0.1,0.1-0.1,0.2-0.1,0.4
				c0,0.1,0,0.2,0,0.2c0,0.1,0.1,0.1,0.1,0.2c0,0,0.1,0.1,0.2,0.1C58.1,36.4,58.2,36.4,58.3,36.4z"/>
			<path fill="#F2F2F2" d="M61.9,34.8c0.2,0,0.4,0,0.6,0.1c0.2,0.1,0.3,0.2,0.5,0.3s0.2,0.3,0.3,0.5s0.1,0.4,0.1,0.6
				c0,0.1,0,0.1,0,0.2c0,0,0,0.1,0,0.1c0,0,0,0-0.1,0c0,0-0.1,0-0.1,0h-2.1c0,0.3,0.1,0.6,0.3,0.8c0.2,0.2,0.4,0.2,0.6,0.2
				c0.1,0,0.2,0,0.3,0c0.1,0,0.2-0.1,0.2-0.1c0.1,0,0.1-0.1,0.2-0.1c0.1,0,0.1,0,0.2,0c0,0,0.1,0,0.1,0c0,0,0,0,0.1,0.1l0.2,0.3
				c-0.1,0.1-0.2,0.2-0.3,0.3c-0.1,0.1-0.2,0.1-0.3,0.2c-0.1,0-0.2,0.1-0.4,0.1c-0.1,0-0.2,0-0.4,0c-0.2,0-0.4,0-0.6-0.1
				c-0.2-0.1-0.4-0.2-0.5-0.3c-0.1-0.2-0.3-0.3-0.3-0.6c-0.1-0.2-0.1-0.5-0.1-0.8c0-0.2,0-0.4,0.1-0.6c0.1-0.2,0.2-0.4,0.3-0.5
				c0.1-0.1,0.3-0.3,0.5-0.4C61.4,34.8,61.7,34.8,61.9,34.8z M61.9,35.4c-0.2,0-0.4,0.1-0.5,0.2s-0.2,0.3-0.3,0.6h1.5
				c0-0.1,0-0.2,0-0.3s-0.1-0.2-0.1-0.2s-0.1-0.1-0.2-0.2S62.1,35.4,61.9,35.4z"/>
		</g>
		<g>
			<path fill="#FFFFFF" d="M43.5,43.9C43.5,43.9,43.5,43.9,43.5,43.9l0.3,0.3c-0.1,0.2-0.3,0.3-0.5,0.4c-0.2,0.1-0.4,0.1-0.7,0.1
				c-0.2,0-0.4,0-0.6-0.1c-0.2-0.1-0.3-0.2-0.5-0.3c-0.1-0.1-0.2-0.3-0.3-0.5c-0.1-0.2-0.1-0.4-0.1-0.6c0-0.2,0-0.3,0.1-0.4
				c0-0.1,0.1-0.3,0.1-0.4c0.1-0.1,0.1-0.2,0.2-0.3c0.1-0.1,0.2-0.2,0.3-0.2c0.1-0.1,0.2-0.1,0.4-0.2c0.1,0,0.3-0.1,0.4-0.1
				c0.1,0,0.2,0,0.3,0c0.1,0,0.2,0,0.3,0.1c0.1,0,0.2,0.1,0.2,0.1c0.1,0.1,0.1,0.1,0.2,0.2l-0.2,0.3c0,0,0,0,0,0c0,0,0,0-0.1,0
				c0,0-0.1,0-0.1,0c0,0-0.1-0.1-0.1-0.1c-0.1,0-0.1-0.1-0.2-0.1c-0.1,0-0.2,0-0.3,0c-0.1,0-0.3,0-0.4,0.1c-0.1,0-0.2,0.1-0.3,0.2
				c-0.1,0.1-0.1,0.2-0.2,0.3c0,0.1-0.1,0.3-0.1,0.4c0,0.2,0,0.3,0.1,0.5s0.1,0.2,0.2,0.3c0.1,0.1,0.2,0.2,0.3,0.2
				c0.1,0,0.2,0.1,0.4,0.1c0.1,0,0.1,0,0.2,0c0.1,0,0.1,0,0.2,0c0.1,0,0.1,0,0.1-0.1c0,0,0.1-0.1,0.1-0.1
				C43.4,44,43.4,43.9,43.5,43.9C43.4,43.9,43.4,43.9,43.5,43.9z"/>
			<path fill="#FFFFFF" d="M44.8,42.1v0.8h1v0.5h-1v0.8h1.3v0.5h-2v-3.1h2v0.5H44.8z"/>
			<path fill="#FFFFFF" d="M49.6,43.1c0,0.2,0,0.4-0.1,0.6c-0.1,0.2-0.2,0.4-0.3,0.5s-0.3,0.3-0.5,0.3c-0.2,0.1-0.4,0.1-0.7,0.1
				s-0.5,0-0.7-0.1c-0.2-0.1-0.4-0.2-0.5-0.3s-0.3-0.3-0.3-0.5c-0.1-0.2-0.1-0.4-0.1-0.6c0-0.2,0-0.4,0.1-0.6
				c0.1-0.2,0.2-0.4,0.3-0.5s0.3-0.3,0.5-0.3c0.2-0.1,0.4-0.1,0.7-0.1s0.5,0,0.7,0.1c0.2,0.1,0.4,0.2,0.5,0.3
				c0.1,0.1,0.2,0.3,0.3,0.5S49.6,42.9,49.6,43.1z M49,43.1c0-0.2,0-0.3-0.1-0.4s-0.1-0.2-0.2-0.3s-0.2-0.2-0.3-0.2
				c-0.1,0-0.2-0.1-0.4-0.1s-0.3,0-0.4,0.1c-0.1,0-0.2,0.1-0.3,0.2c-0.1,0.1-0.1,0.2-0.2,0.3c0,0.1-0.1,0.3-0.1,0.4
				c0,0.2,0,0.3,0.1,0.4c0,0.1,0.1,0.2,0.2,0.3c0.1,0.1,0.2,0.2,0.3,0.2s0.2,0.1,0.4,0.1s0.3,0,0.4-0.1s0.2-0.1,0.3-0.2
				s0.1-0.2,0.2-0.3C48.9,43.4,49,43.3,49,43.1z"/>
		</g>
	</g>
</g>
<g>
</g>
<g>
</g>
<g>
</g>
<g>
</g>
<g>
</g>
<g>
</g>
</svg>
