<?xml version="1.0" encoding="utf-8"?>
<!-- Generator: Adobe Illustrator 24.3.0, SVG Export Plug-In . SVG Version: 6.00 Build 0)  -->
<svg version="1.1" id="Layer_1" xmlns="http://www.w3.org/2000/svg" xmlns:xlink="http://www.w3.org/1999/xlink" x="0px" y="0px"
	 viewBox="0 0 90.6 90.6" enable-background="new 0 0 90.6 90.6" xml:space="preserve">
<g>
	<rect x="0.3" y="0.3" fill="#F2F2F2" stroke="#E2E2E2" stroke-width="0.5616" stroke-miterlimit="10" width="90" height="90"/>
	<g>
		<g>
			<path fill-rule="evenodd" clip-rule="evenodd" fill="#666666" d="M66.9,47.5c-0.5,0.4-1.2,1-1.7,1.4c0.5,2.7,1.2,5.4,1.7,8
				c0.5-2.6,1.1-5.3,1.6-8C67.9,48.5,67.4,47.9,66.9,47.5z M66.8,45.3c-3.5,0-6.5-3.6-6.5-7.9c-0.6-1.6-0.2-7.2,3.5-7.1
				c4.1-2.1,7.1,0.2,9.1,1.6c0.7,1.5,1.2,3.8,0.3,5.2C73.3,41.6,70.5,45.3,66.8,45.3z M66.8,44.4c-3.1,0-5.6-3.2-5.6-7.1
				c0-0.6,0.1-1.2,0.1-1.6c0.4-1.1,1.4-1.6,2.1-1c2.5,2.1,5.6,2,8.5,1.6c0.7-0.1,0.6,0.7,0.5,1.4C72.3,41.4,69.9,44.4,66.8,44.4z
				 M53.6,61.1c0-3.1,0.1-6.1,0-9.1c0-2.5,1.2-3.1,3.1-3.7l4.9-1.8c0.4-0.4,0.8-1,1.2-1.4c1.4,0.5,2.9,1.2,4.2,1.7
				c1.4-0.5,2.7-1.2,4.1-1.7c0.4,0.4,0.7,1,1.2,1.4l5,1.8c1.9,0.6,3,1.2,3,3.7c0,3,0,6,0,9.1C71.2,61.1,62.5,61.1,53.6,61.1z
				 M67.1,58.2c1.7-3.7,3.3-7.4,5-11.1c0.3,0.5,0.7,1.2,1.2,1.7c-0.6,0.6-1.3,1.3-1.8,1.9c0.4,0.5,1,1.1,1.5,1.6
				C71,54.2,69.1,56.2,67.1,58.2z M66.6,58.2c-1.6-3.7-3.3-7.4-4.9-11.1c-0.4,0.5-0.8,1.2-1.2,1.7c0.5,0.6,1.2,1.3,1.8,1.9
				c-0.5,0.5-1.1,1.1-1.6,1.6C62.7,54.2,64.7,56.2,66.6,58.2z"/>
		</g>
		<g>
			<g>
				<path fill="#999999" d="M21.8,48.2h-5.9c-0.7,0-1.2,0.6-1.2,1.2v5.9c0,0.7,0.6,1.2,1.2,1.2h2.5v-3h-1v-1.5h1v-1
					c0-0.8,0.7-1.5,1.5-1.5h1.5v1.5h-1.5v1h1.5l-0.2,1.5h-1.2v3h2c0.7,0,1.2-0.6,1.2-1.2v-5.9C23.1,48.7,22.5,48.2,21.8,48.2z"/>
				<g>
					<path fill="#999999" d="M33.5,48.6c-0.3-0.3-0.7-0.5-1.1-0.5H27c-0.4,0-0.8,0.2-1.1,0.5c-0.3,0.3-0.5,0.7-0.5,1.1V55
						c0,0.4,0.2,0.8,0.5,1.1c0.3,0.3,0.7,0.5,1.1,0.5h5.3c0.4,0,0.8-0.2,1.1-0.5c0.3-0.3,0.5-0.7,0.5-1.1v-5.3
						C33.9,49.3,33.8,48.9,33.5,48.6z M31.9,51.4c0,0,0,0.1,0,0.1c0,0.3,0,0.6-0.1,0.9c-0.1,0.3-0.2,0.6-0.4,0.9
						c-0.2,0.3-0.4,0.5-0.7,0.8c-0.3,0.2-0.6,0.4-0.9,0.5c-0.4,0.1-0.7,0.2-1.2,0.2c-0.6,0-1.2-0.2-1.8-0.5c0.1,0,0.2,0,0.3,0
						c0.5,0,1-0.2,1.4-0.5c-0.3,0-0.5-0.1-0.7-0.2c-0.2-0.2-0.3-0.3-0.4-0.6c0.1,0,0.2,0,0.2,0c0.1,0,0.2,0,0.3,0
						c-0.3-0.1-0.5-0.2-0.7-0.4c-0.2-0.2-0.3-0.5-0.3-0.7v0c0.2,0.1,0.4,0.1,0.6,0.1c-0.3-0.2-0.5-0.5-0.5-1c0-0.2,0.1-0.4,0.2-0.6
						c0.3,0.4,0.6,0.6,1.1,0.9c0.4,0.2,0.9,0.3,1.3,0.4c0-0.1,0-0.2,0-0.3c0-0.3,0.1-0.6,0.3-0.8c0.2-0.2,0.5-0.3,0.8-0.3
						c0.3,0,0.6,0.1,0.8,0.4c0.3,0,0.5-0.1,0.7-0.3c-0.1,0.3-0.3,0.5-0.5,0.6c0.2,0,0.5-0.1,0.7-0.2C32.4,51,32.2,51.2,31.9,51.4z"
						/>
				</g>
				<path fill="#999999" d="M43.5,48.1h-6c-0.7,0-1.2,0.6-1.2,1.2v6c0,0.7,0.6,1.2,1.2,1.2h6c0.7,0,1.2-0.6,1.2-1.2v-6
					C44.7,48.7,44.2,48.1,43.5,48.1z M39.3,54.8h-1v-3.5h1V54.8z M39.3,50.9h-1v-1h1V50.9z M42.7,54.8h-1v-2c0-0.3-0.2-0.5-0.5-0.5
					s-0.5,0.2-0.5,0.5v2h-1v-3.5h1v0.2c0.3-0.1,0.4-0.2,0.7-0.2c0.7,0,1.2,0.6,1.2,1.3V54.8z"/>
			</g>
			<g>
				<path fill="#444444" d="M14.8,38.5h-0.6c-0.1,0-0.1,0-0.2-0.1c0,0-0.1-0.1-0.1-0.1l-0.3-0.9h-1.8l-0.3,0.9c0,0,0,0.1-0.1,0.1
					c0,0-0.1,0.1-0.2,0.1h-0.6l1.7-4.5H13L14.8,38.5z M11.9,36.9h1.4l-0.5-1.5c0-0.1-0.1-0.1-0.1-0.2c0-0.1-0.1-0.2-0.1-0.3
					c0,0.1-0.1,0.2-0.1,0.3c0,0.1-0.1,0.2-0.1,0.2L11.9,36.9z"/>
				<path fill="#444444" d="M17.7,38.5h-0.3c-0.1,0-0.1,0-0.2,0c0,0-0.1-0.1-0.1-0.1L17,38.2c-0.1,0.1-0.2,0.1-0.2,0.2
					c-0.1,0.1-0.2,0.1-0.2,0.1c-0.1,0-0.2,0.1-0.3,0.1c-0.1,0-0.2,0-0.3,0c-0.1,0-0.3,0-0.4-0.1c-0.1,0-0.2-0.1-0.3-0.2
					c-0.1-0.1-0.1-0.2-0.2-0.3c0-0.1-0.1-0.2-0.1-0.4c0-0.1,0-0.2,0.1-0.4c0.1-0.1,0.2-0.2,0.3-0.3c0.1-0.1,0.3-0.2,0.6-0.2
					c0.2-0.1,0.5-0.1,0.9-0.1v-0.2c0-0.2,0-0.4-0.1-0.5c-0.1-0.1-0.2-0.2-0.4-0.2c-0.1,0-0.2,0-0.3,0C16,36,16,36,15.9,36.1
					c-0.1,0-0.1,0.1-0.2,0.1c-0.1,0-0.1,0-0.2,0c-0.1,0-0.1,0-0.1,0s-0.1-0.1-0.1-0.1l-0.1-0.2c0.4-0.3,0.8-0.5,1.3-0.5
					c0.2,0,0.3,0,0.5,0.1c0.1,0.1,0.3,0.1,0.4,0.3c0.1,0.1,0.2,0.2,0.2,0.4c0.1,0.1,0.1,0.3,0.1,0.5V38.5z M16.2,38.1
					c0.1,0,0.1,0,0.2,0c0.1,0,0.1,0,0.2-0.1c0.1,0,0.1-0.1,0.2-0.1c0.1,0,0.1-0.1,0.2-0.1v-0.5c-0.2,0-0.4,0-0.6,0
					c-0.1,0-0.3,0.1-0.4,0.1c-0.1,0-0.2,0.1-0.2,0.2c0,0.1-0.1,0.1-0.1,0.2c0,0.1,0,0.2,0.1,0.3C16,38,16.1,38.1,16.2,38.1z"/>
				<path fill="#444444" d="M18.4,38.5v-3.2h0.4c0.1,0,0.1,0,0.2,0c0,0,0.1,0.1,0.1,0.1l0,0.4c0.1-0.2,0.2-0.3,0.4-0.5
					c0.2-0.1,0.3-0.2,0.5-0.2c0.2,0,0.3,0,0.4,0.1L20.4,36c0,0,0,0.1,0,0.1c0,0,0,0-0.1,0c0,0-0.1,0-0.1,0c-0.1,0-0.1,0-0.2,0
					c-0.2,0-0.3,0-0.4,0.1c-0.1,0.1-0.2,0.2-0.3,0.4v2H18.4z"/>
				<path fill="#444444" d="M22.3,35.3c0.2,0,0.4,0,0.6,0.1c0.2,0.1,0.4,0.2,0.5,0.3c0.1,0.1,0.2,0.3,0.3,0.5
					c0.1,0.2,0.1,0.4,0.1,0.7c0,0.3,0,0.5-0.1,0.7c-0.1,0.2-0.2,0.4-0.3,0.5c-0.1,0.1-0.3,0.3-0.5,0.3c-0.2,0.1-0.4,0.1-0.6,0.1
					c-0.2,0-0.5,0-0.6-0.1c-0.2-0.1-0.4-0.2-0.5-0.3c-0.1-0.1-0.2-0.3-0.3-0.5s-0.1-0.4-0.1-0.7c0-0.2,0-0.5,0.1-0.7
					s0.2-0.4,0.3-0.5c0.1-0.1,0.3-0.2,0.5-0.3C21.8,35.4,22.1,35.3,22.3,35.3z M22.3,38c0.3,0,0.5-0.1,0.6-0.3
					c0.1-0.2,0.2-0.4,0.2-0.8c0-0.3-0.1-0.6-0.2-0.8c-0.1-0.2-0.3-0.3-0.6-0.3c-0.3,0-0.5,0.1-0.6,0.3c-0.1,0.2-0.2,0.4-0.2,0.8
					c0,0.3,0.1,0.6,0.2,0.8C21.8,37.9,22,38,22.3,38z"/>
				<path fill="#444444" d="M24.5,38.5v-3.2h0.5c0.1,0,0.2,0,0.2,0.1l0.1,0.2c0.1-0.1,0.1-0.1,0.2-0.2c0.1-0.1,0.1-0.1,0.2-0.1
					c0.1,0,0.2-0.1,0.3-0.1c0.1,0,0.2,0,0.3,0c0.2,0,0.3,0,0.5,0.1c0.1,0.1,0.2,0.1,0.3,0.2c0.1,0.1,0.2,0.2,0.2,0.4
					c0,0.1,0.1,0.3,0.1,0.5v2h-0.8v-2c0-0.2,0-0.3-0.1-0.4c-0.1-0.1-0.2-0.2-0.4-0.2c-0.1,0-0.3,0-0.4,0.1c-0.1,0.1-0.2,0.1-0.3,0.2
					v2.3H24.5z"/>
				<path fill="#444444" d="M31,37c0,0.3,0,0.5-0.1,0.7c-0.1,0.2-0.2,0.4-0.3,0.5c-0.1,0.1-0.3,0.3-0.5,0.3
					c-0.2,0.1-0.4,0.1-0.6,0.1c-0.1,0-0.2,0-0.3,0c-0.1,0-0.2,0-0.3-0.1l0-0.5c0,0,0-0.1,0.1-0.1c0,0,0.1,0,0.1,0c0,0,0.1,0,0.1,0
					c0.1,0,0.1,0,0.2,0c0.1,0,0.2,0,0.3-0.1c0.1,0,0.2-0.1,0.2-0.2c0.1-0.1,0.1-0.2,0.1-0.3c0-0.1,0-0.3,0-0.4v-2.9H31V37z"/>
				<path fill="#444444" d="M32.5,35.4v2c0,0.2,0,0.3,0.1,0.4c0.1,0.1,0.2,0.2,0.4,0.2c0.1,0,0.3,0,0.4-0.1c0.1-0.1,0.2-0.1,0.3-0.2
					v-2.3h0.8v3.2h-0.5c-0.1,0-0.2,0-0.2-0.1l-0.1-0.3c-0.1,0.1-0.1,0.1-0.2,0.2c-0.1,0.1-0.1,0.1-0.2,0.1c-0.1,0-0.2,0.1-0.3,0.1
					c-0.1,0-0.2,0-0.3,0c-0.2,0-0.3,0-0.5-0.1c-0.1-0.1-0.2-0.1-0.3-0.2c-0.1-0.1-0.2-0.2-0.2-0.4c0-0.1-0.1-0.3-0.1-0.5v-2H32.5z"
					/>
				<path fill="#444444" d="M37.6,38.5c-0.1,0-0.2,0-0.2-0.1l-0.1-0.3c-0.1,0.1-0.1,0.1-0.2,0.2c-0.1,0.1-0.1,0.1-0.2,0.2
					c-0.1,0-0.2,0.1-0.3,0.1c-0.1,0-0.2,0-0.3,0c-0.2,0-0.3,0-0.5-0.1c-0.1-0.1-0.3-0.2-0.4-0.3c-0.1-0.1-0.2-0.3-0.2-0.5
					c-0.1-0.2-0.1-0.4-0.1-0.7c0-0.2,0-0.5,0.1-0.7s0.2-0.4,0.3-0.5c0.1-0.1,0.3-0.3,0.4-0.3c0.2-0.1,0.4-0.1,0.6-0.1
					c0.2,0,0.3,0,0.5,0.1c0.1,0.1,0.2,0.1,0.3,0.2V34H38v4.6H37.6z M36.5,38c0.2,0,0.3,0,0.4-0.1c0.1-0.1,0.2-0.2,0.3-0.3v-1.4
					C37.2,36.1,37.1,36,37,36c-0.1,0-0.2-0.1-0.3-0.1c-0.1,0-0.2,0-0.3,0.1c-0.1,0-0.2,0.1-0.2,0.2C36,36.3,36,36.4,36,36.5
					c0,0.1-0.1,0.3-0.1,0.5c0,0.2,0,0.3,0,0.5c0,0.1,0.1,0.2,0.1,0.3c0.1,0.1,0.1,0.1,0.2,0.2C36.4,38,36.4,38,36.5,38z"/>
				<path fill="#444444" d="M39.9,35.3c0.1,0,0.3,0,0.4,0c0.1,0,0.2,0.1,0.3,0.1h0.9v0.3c0,0,0,0.1,0,0.1c0,0-0.1,0-0.1,0.1L41.1,36
					c0,0.1,0,0.1,0,0.2c0,0.1,0,0.1,0,0.2c0,0.2,0,0.3-0.1,0.4c-0.1,0.1-0.1,0.2-0.3,0.3s-0.2,0.2-0.4,0.2c-0.2,0-0.3,0.1-0.5,0.1
					c-0.1,0-0.2,0-0.3,0c-0.1,0.1-0.1,0.1-0.1,0.2c0,0.1,0,0.1,0.1,0.1c0.1,0,0.1,0.1,0.2,0.1s0.2,0,0.3,0s0.2,0,0.4,0
					c0.1,0,0.3,0,0.4,0.1c0.1,0,0.2,0.1,0.3,0.1c0.1,0.1,0.2,0.1,0.2,0.2c0.1,0.1,0.1,0.2,0.1,0.4c0,0.1,0,0.3-0.1,0.4
					c-0.1,0.1-0.2,0.2-0.3,0.4c-0.1,0.1-0.3,0.2-0.5,0.2c-0.2,0.1-0.4,0.1-0.6,0.1c-0.2,0-0.4,0-0.6-0.1c-0.2,0-0.3-0.1-0.4-0.2
					c-0.1-0.1-0.2-0.2-0.3-0.3c-0.1-0.1-0.1-0.2-0.1-0.3c0-0.1,0-0.3,0.1-0.4c0.1-0.1,0.2-0.2,0.4-0.2c-0.1,0-0.1-0.1-0.2-0.2
					c0-0.1-0.1-0.2-0.1-0.3c0,0,0-0.1,0-0.1c0,0,0-0.1,0.1-0.1c0,0,0.1-0.1,0.1-0.1c0.1,0,0.1-0.1,0.2-0.1c-0.2-0.1-0.3-0.2-0.4-0.3
					c-0.1-0.1-0.1-0.3-0.1-0.5c0-0.2,0-0.3,0.1-0.4c0.1-0.1,0.1-0.2,0.3-0.3s0.2-0.2,0.4-0.2C39.6,35.4,39.8,35.3,39.9,35.3z
					 M40.8,38.7c0-0.1,0-0.1-0.1-0.2c0,0-0.1-0.1-0.2-0.1c-0.1,0-0.1,0-0.2,0c-0.1,0-0.2,0-0.3,0s-0.2,0-0.3,0c-0.1,0-0.2,0-0.3,0
					c-0.1,0-0.2,0.1-0.2,0.2c-0.1,0.1-0.1,0.1-0.1,0.2c0,0.1,0,0.1,0,0.2c0,0,0.1,0.1,0.1,0.1c0.1,0,0.1,0.1,0.2,0.1
					c0.1,0,0.2,0,0.4,0c0.1,0,0.3,0,0.4,0c0.1,0,0.2-0.1,0.3-0.1c0.1,0,0.1-0.1,0.1-0.1C40.8,38.8,40.8,38.7,40.8,38.7z M39.9,36.9
					c0.1,0,0.2,0,0.2,0c0.1,0,0.1-0.1,0.2-0.1c0,0,0.1-0.1,0.1-0.2c0-0.1,0-0.1,0-0.2c0-0.2,0-0.3-0.1-0.4c-0.1-0.1-0.2-0.1-0.4-0.1
					s-0.3,0-0.4,0.1c-0.1,0.1-0.1,0.2-0.1,0.4c0,0.1,0,0.1,0,0.2c0,0.1,0.1,0.1,0.1,0.2c0,0,0.1,0.1,0.2,0.1
					C39.8,36.9,39.8,36.9,39.9,36.9z"/>
				<path fill="#444444" d="M43.3,35.3c0.2,0,0.4,0,0.5,0.1c0.2,0.1,0.3,0.2,0.4,0.3s0.2,0.3,0.3,0.4s0.1,0.4,0.1,0.6
					c0,0.1,0,0.1,0,0.1c0,0,0,0.1,0,0.1c0,0,0,0-0.1,0c0,0-0.1,0-0.1,0h-2c0,0.3,0.1,0.6,0.3,0.7c0.2,0.2,0.4,0.2,0.6,0.2
					c0.1,0,0.2,0,0.3,0c0.1,0,0.2-0.1,0.2-0.1c0.1,0,0.1-0.1,0.2-0.1c0,0,0.1,0,0.1,0c0,0,0.1,0,0.1,0c0,0,0,0,0.1,0.1l0.2,0.3
					c-0.1,0.1-0.2,0.2-0.3,0.2c-0.1,0.1-0.2,0.1-0.3,0.2c-0.1,0-0.2,0.1-0.3,0.1c-0.1,0-0.2,0-0.3,0c-0.2,0-0.4,0-0.6-0.1
					c-0.2-0.1-0.4-0.2-0.5-0.3c-0.1-0.1-0.2-0.3-0.3-0.5c-0.1-0.2-0.1-0.5-0.1-0.7c0-0.2,0-0.4,0.1-0.6c0.1-0.2,0.2-0.4,0.3-0.5
					c0.1-0.1,0.3-0.3,0.5-0.3C42.9,35.4,43.1,35.3,43.3,35.3z M43.4,35.9c-0.2,0-0.4,0.1-0.5,0.2c-0.1,0.1-0.2,0.3-0.2,0.5H44
					c0-0.1,0-0.2,0-0.3c0-0.1-0.1-0.2-0.1-0.2c-0.1-0.1-0.1-0.1-0.2-0.2C43.6,35.9,43.5,35.9,43.4,35.9z"/>
			</g>
		</g>
	</g>
	<g>
		<path fill="#222222" d="M39,45.5C39,45.5,39,45.5,39,45.5l0.3,0.3c-0.1,0.2-0.3,0.3-0.4,0.3c-0.2,0.1-0.4,0.1-0.6,0.1
			c-0.2,0-0.4,0-0.6-0.1c-0.2-0.1-0.3-0.2-0.5-0.3c-0.1-0.1-0.2-0.3-0.3-0.5c-0.1-0.2-0.1-0.4-0.1-0.6c0-0.1,0-0.3,0-0.4
			c0-0.1,0.1-0.3,0.1-0.4c0.1-0.1,0.1-0.2,0.2-0.3c0.1-0.1,0.2-0.2,0.3-0.2c0.1-0.1,0.2-0.1,0.4-0.1c0.1,0,0.3-0.1,0.4-0.1
			c0.1,0,0.2,0,0.3,0c0.1,0,0.2,0,0.3,0.1c0.1,0,0.2,0.1,0.2,0.1c0.1,0,0.1,0.1,0.2,0.2L39,43.9c0,0,0,0,0,0c0,0,0,0-0.1,0
			c0,0-0.1,0-0.1,0c0,0-0.1,0-0.1-0.1c0,0-0.1-0.1-0.2-0.1c-0.1,0-0.2,0-0.3,0c-0.1,0-0.2,0-0.3,0.1c-0.1,0-0.2,0.1-0.3,0.2
			c-0.1,0.1-0.1,0.2-0.2,0.3c0,0.1-0.1,0.3-0.1,0.4c0,0.2,0,0.3,0.1,0.4c0,0.1,0.1,0.2,0.2,0.3c0.1,0.1,0.2,0.2,0.3,0.2
			c0.1,0,0.2,0.1,0.3,0.1c0.1,0,0.1,0,0.2,0c0.1,0,0.1,0,0.2,0c0,0,0.1,0,0.1-0.1c0,0,0.1-0.1,0.1-0.1C38.9,45.5,38.9,45.5,39,45.5
			C38.9,45.5,38.9,45.5,39,45.5z"/>
		<path fill="#222222" d="M40.3,43.7v0.8h1V45h-1v0.8h1.3v0.5h-1.9v-3h1.9v0.5H40.3z"/>
		<path fill="#222222" d="M44.8,44.7c0,0.2,0,0.4-0.1,0.6c-0.1,0.2-0.2,0.3-0.3,0.5s-0.3,0.2-0.5,0.3c-0.2,0.1-0.4,0.1-0.6,0.1
			s-0.4,0-0.6-0.1c-0.2-0.1-0.3-0.2-0.5-0.3c-0.1-0.1-0.2-0.3-0.3-0.5c-0.1-0.2-0.1-0.4-0.1-0.6c0-0.2,0-0.4,0.1-0.6
			c0.1-0.2,0.2-0.3,0.3-0.5c0.1-0.1,0.3-0.2,0.5-0.3c0.2-0.1,0.4-0.1,0.6-0.1s0.4,0,0.6,0.1c0.2,0.1,0.3,0.2,0.5,0.3
			c0.1,0.1,0.2,0.3,0.3,0.5S44.8,44.5,44.8,44.7z M44.2,44.7c0-0.2,0-0.3-0.1-0.4c0-0.1-0.1-0.2-0.2-0.3c-0.1-0.1-0.2-0.2-0.3-0.2
			c-0.1,0-0.2-0.1-0.4-0.1s-0.3,0-0.4,0.1c-0.1,0-0.2,0.1-0.3,0.2c-0.1,0.1-0.1,0.2-0.2,0.3c0,0.1-0.1,0.3-0.1,0.4
			c0,0.2,0,0.3,0.1,0.4c0,0.1,0.1,0.2,0.2,0.3c0.1,0.1,0.2,0.2,0.3,0.2c0.1,0,0.2,0.1,0.4,0.1s0.3,0,0.4-0.1c0.1,0,0.2-0.1,0.3-0.2
			c0.1-0.1,0.1-0.2,0.2-0.3C44.2,45,44.2,44.9,44.2,44.7z"/>
	</g>
</g>
<g>
</g>
<g>
</g>
<g>
</g>
<g>
</g>
<g>
</g>
<g>
</g>
</svg>
