<?xml version="1.0" encoding="utf-8"?>
<!-- Generator: Adobe Illustrator 24.3.0, SVG Export Plug-In . SVG Version: 6.00 Build 0)  -->
<svg version="1.1" id="Layer_1" xmlns="http://www.w3.org/2000/svg" xmlns:xlink="http://www.w3.org/1999/xlink" x="0px" y="0px"
	 viewBox="0 0 151 91" enable-background="new 0 0 151 91" xml:space="preserve">
<g>
	<rect x="0.5" y="0.5" fill="#F7F8F9" stroke="#D2D2D2" stroke-miterlimit="10" width="150" height="90"/>
	<g>
		<g>
			<rect x="28" y="11" fill="#BDC5CB" width="26" height="20"/>
			<g>
				<rect x="58" y="18" fill="#BDC5CB" width="68" height="2"/>
				<rect x="58" y="21" fill="#BDC5CB" width="68" height="2"/>
				<rect x="58" y="13" fill="#BDC5CB" width="22" height="3"/>
				<rect x="58" y="26" fill="#BDC5CB" width="20" height="2"/>
			</g>
		</g>
		<g>
			<rect x="28" y="36" fill="#BDC5CB" width="26" height="20"/>
			<g>
				<rect x="58" y="43" fill="#BDC5CB" width="68" height="2"/>
				<rect x="58" y="46" fill="#BDC5CB" width="68" height="2"/>
				<rect x="58" y="38" fill="#BDC5CB" width="22" height="3"/>
				<rect x="58" y="51" fill="#BDC5CB" width="20" height="2"/>
			</g>
		</g>
		<g>
			<rect x="28" y="61" fill="#BDC5CB" width="26" height="20"/>
			<g>
				<rect x="58" y="68" fill="#BDC5CB" width="68" height="2"/>
				<rect x="58" y="71" fill="#BDC5CB" width="68" height="2"/>
				<rect x="58" y="63" fill="#BDC5CB" width="22" height="3"/>
				<rect x="58" y="76" fill="#BDC5CB" width="20" height="2"/>
			</g>
		</g>
	</g>
</g>
<g>
</g>
<g>
</g>
<g>
</g>
<g>
</g>
<g>
</g>
<g>
</g>
</svg>
