<?xml version="1.0" encoding="utf-8"?>
<!-- Generator: Adobe Illustrator 24.3.0, SVG Export Plug-In . SVG Version: 6.00 Build 0)  -->
<svg version="1.1" id="Layer_1" xmlns="http://www.w3.org/2000/svg" xmlns:xlink="http://www.w3.org/1999/xlink" x="0px" y="0px"
	 viewBox="0 0 121 91" enable-background="new 0 0 121 91" xml:space="preserve">
<g>
	<rect x="0.5" y="0.5" fill="#F7F8F9" stroke="#D2D2D2" stroke-miterlimit="10" width="120" height="90"/>
	<rect x="18" y="19" fill="#BDC5CB" width="26" height="25"/>
	<rect x="78" y="19" fill="#BDC5CB" width="26" height="25"/>
	<rect x="18" y="48" fill="#BDC5CB" width="26" height="25"/>
	<rect x="78" y="48" fill="#BDC5CB" width="26" height="25"/>
	<g>
		<rect x="48" y="19" fill="#134E5E" width="26" height="54.1"/>
		<g>
			<path fill-rule="evenodd" clip-rule="evenodd" fill="#FFFFFF" d="M61.2,37c-0.3,0.2-0.7,0.5-1,0.8c0.3,1.6,0.7,3.1,1,4.6
				c0.3-1.5,0.6-3,0.9-4.6C61.8,37.6,61.5,37.2,61.2,37 M61.1,35.7c-2,0-3.7-2.1-3.7-4.6c-0.4-0.9-0.1-4.1,2-4.1
				c2.4-1.2,4.1,0.1,5.2,0.9c0.4,0.9,0.7,2.2,0.2,3C64.9,33.6,63.2,35.7,61.1,35.7 M61.1,35.2c-1.8,0-3.2-1.8-3.2-4.1
				c0-0.4,0.1-0.7,0.1-0.9c0.2-0.6,0.8-0.9,1.2-0.5c1.5,1.2,3.2,1.2,4.9,0.9c0.4-0.1,0.4,0.4,0.3,0.8C64.3,33.5,62.9,35.2,61.1,35.2
				 M53.5,44.8c0-1.8,0.1-3.5,0-5.2c0-1.5,0.7-1.8,1.8-2.1l2.8-1c0.2-0.2,0.5-0.5,0.7-0.8c0.8,0.3,1.6,0.7,2.4,1
				c0.8-0.3,1.6-0.7,2.4-1c0.2,0.2,0.4,0.5,0.7,0.8l2.9,1c1.1,0.4,1.7,0.7,1.7,2.1v5.2H53.5z M61.3,43.1c1-2.1,1.9-4.3,2.9-6.4
				c0.2,0.3,0.4,0.7,0.7,1c-0.4,0.4-0.7,0.7-1,1.1c0.2,0.3,0.5,0.6,0.9,0.9C63.5,40.8,62.4,42,61.3,43.1 M61,43.1
				c-0.9-2.1-1.9-4.3-2.8-6.4c-0.2,0.3-0.5,0.7-0.7,1c0.3,0.4,0.7,0.7,1,1.1c-0.3,0.3-0.6,0.6-0.9,0.9C58.7,40.8,59.9,42,61,43.1"/>
			<g>
				<path fill="#FFFFFF" d="M57.5,61.5h-2.8c-0.3,0-0.6,0.3-0.6,0.6v2.8c0,0.3,0.3,0.6,0.6,0.6h1.2v-1.4h-0.5v-0.7h0.5v-0.5
					c0-0.4,0.3-0.7,0.7-0.7h0.7v0.7h-0.7v0.5h0.7l-0.1,0.7h-0.6v1.4h0.9c0.3,0,0.6-0.3,0.6-0.6v-2.8C58,61.8,57.8,61.5,57.5,61.5"/>
				<path fill="#FFFFFF" d="M62.9,61.7c-0.1-0.1-0.3-0.2-0.5-0.2h-2.5c-0.2,0-0.4,0.1-0.5,0.2c-0.1,0.1-0.2,0.3-0.2,0.5v2.5
					c0,0.2,0.1,0.4,0.2,0.5c0.1,0.1,0.3,0.2,0.5,0.2h2.5c0.2,0,0.4-0.1,0.5-0.2c0.1-0.1,0.2-0.3,0.2-0.5v-2.5
					C63.1,62,63,61.9,62.9,61.7 M62.2,63C62.2,63,62.2,63.1,62.2,63c0,0.2,0,0.4-0.1,0.5c0,0.1-0.1,0.3-0.2,0.4
					c-0.1,0.1-0.2,0.2-0.3,0.4c-0.1,0.1-0.3,0.2-0.4,0.2c-0.2,0.1-0.3,0.1-0.5,0.1c-0.3,0-0.6-0.1-0.8-0.2c0,0,0.1,0,0.1,0
					c0.2,0,0.5-0.1,0.7-0.2c-0.1,0-0.2,0-0.3-0.1c-0.1-0.1-0.2-0.2-0.2-0.3c0,0,0.1,0,0.1,0c0,0,0.1,0,0.1,0c-0.1,0-0.2-0.1-0.3-0.2
					c-0.1-0.1-0.1-0.2-0.1-0.3v0c0.1,0,0.2,0.1,0.3,0.1c-0.2-0.1-0.2-0.3-0.2-0.4c0-0.1,0-0.2,0.1-0.3c0.1,0.2,0.3,0.3,0.5,0.4
					c0.2,0.1,0.4,0.2,0.6,0.2c0,0,0-0.1,0-0.1c0-0.1,0.1-0.3,0.2-0.4c0.1-0.1,0.2-0.2,0.4-0.2c0.2,0,0.3,0.1,0.4,0.2
					c0.1,0,0.2-0.1,0.3-0.1c0,0.1-0.1,0.2-0.2,0.3c0.1,0,0.2,0,0.3-0.1C62.4,62.9,62.3,63,62.2,63"/>
				<path fill="#FFFFFF" d="M67.5,61.5h-2.8c-0.3,0-0.6,0.3-0.6,0.6v2.8c0,0.3,0.3,0.6,0.6,0.6h2.8c0.3,0,0.6-0.3,0.6-0.6v-2.8
					C68.1,61.8,67.9,61.5,67.5,61.5 M65.6,64.6h-0.5V63h0.5V64.6z M65.6,62.8h-0.5v-0.5h0.5V62.8z M67.2,64.6h-0.5v-0.9
					c0-0.1-0.1-0.2-0.2-0.2c-0.1,0-0.2,0.1-0.2,0.2v0.9h-0.5V63h0.5v0.1c0.1,0,0.2-0.1,0.3-0.1c0.3,0,0.6,0.3,0.6,0.6V64.6z"/>
			</g>
			<g>
				<path fill="#FFFFFF" d="M55.7,48.9h-0.3c0,0-0.1,0-0.1,0c0,0,0,0,0-0.1l-0.1-0.4h-0.8l-0.1,0.4c0,0,0,0,0,0.1c0,0,0,0-0.1,0
					h-0.3l0.7-1.9h0.4L55.7,48.9z M54.4,48.2h0.6l-0.2-0.6c0,0,0-0.1,0-0.1c0,0,0-0.1,0-0.1c0,0,0,0.1,0,0.1c0,0,0,0.1,0,0.1
					L54.4,48.2z"/>
				<path fill="#FFFFFF" d="M56.9,48.9h-0.1c0,0-0.1,0-0.1,0c0,0,0,0,0-0.1l0-0.1c0,0-0.1,0.1-0.1,0.1c0,0-0.1,0-0.1,0.1
					c0,0-0.1,0-0.1,0c0,0-0.1,0-0.1,0c-0.1,0-0.1,0-0.2,0c0,0-0.1,0-0.1-0.1c0,0-0.1-0.1-0.1-0.1c0,0,0-0.1,0-0.2c0-0.1,0-0.1,0-0.2
					c0,0,0.1-0.1,0.1-0.1c0.1,0,0.1-0.1,0.2-0.1s0.2,0,0.4,0v-0.1c0-0.1,0-0.2-0.1-0.2c0,0-0.1-0.1-0.2-0.1c-0.1,0-0.1,0-0.1,0
					c0,0-0.1,0-0.1,0c0,0,0,0-0.1,0c0,0,0,0-0.1,0c0,0,0,0-0.1,0c0,0,0,0,0,0l-0.1-0.1c0.2-0.1,0.3-0.2,0.6-0.2c0.1,0,0.1,0,0.2,0
					c0.1,0,0.1,0.1,0.2,0.1c0,0,0.1,0.1,0.1,0.2c0,0.1,0,0.1,0,0.2V48.9z M56.3,48.7C56.3,48.7,56.3,48.7,56.3,48.7
					c0.1,0,0.1,0,0.2,0c0,0,0,0,0.1,0c0,0,0,0,0.1-0.1v-0.2c-0.1,0-0.2,0-0.2,0c-0.1,0-0.1,0-0.2,0c0,0-0.1,0-0.1,0.1
					c0,0,0,0.1,0,0.1c0,0.1,0,0.1,0.1,0.1C56.2,48.7,56.2,48.7,56.3,48.7"/>
				<path fill="#FFFFFF" d="M57.2,48.9v-1.3h0.2c0,0,0.1,0,0.1,0c0,0,0,0,0,0.1l0,0.2c0-0.1,0.1-0.1,0.2-0.2c0.1,0,0.1-0.1,0.2-0.1
					c0.1,0,0.1,0,0.2,0l0,0.2c0,0,0,0,0,0c0,0,0,0,0,0c0,0,0,0-0.1,0c0,0-0.1,0-0.1,0c-0.1,0-0.1,0-0.2,0.1c0,0-0.1,0.1-0.1,0.2v0.8
					H57.2z"/>
				<path fill="#FFFFFF" d="M58.9,47.5c0.1,0,0.2,0,0.3,0c0.1,0,0.2,0.1,0.2,0.1c0.1,0.1,0.1,0.1,0.1,0.2c0,0.1,0,0.2,0,0.3
					c0,0.1,0,0.2,0,0.3c0,0.1-0.1,0.2-0.1,0.2c-0.1,0.1-0.1,0.1-0.2,0.1c-0.1,0-0.2,0-0.3,0c-0.1,0-0.2,0-0.3,0
					c-0.1,0-0.2-0.1-0.2-0.1c-0.1-0.1-0.1-0.1-0.1-0.2c0-0.1,0-0.2,0-0.3c0-0.1,0-0.2,0-0.3c0-0.1,0.1-0.2,0.1-0.2
					c0.1-0.1,0.1-0.1,0.2-0.1C58.7,47.6,58.8,47.5,58.9,47.5 M58.9,48.7c0.1,0,0.2,0,0.2-0.1c0.1-0.1,0.1-0.2,0.1-0.3
					c0-0.1,0-0.3-0.1-0.3c-0.1-0.1-0.1-0.1-0.2-0.1c-0.1,0-0.2,0-0.3,0.1c-0.1,0.1-0.1,0.2-0.1,0.3c0,0.1,0,0.3,0.1,0.3
					C58.7,48.6,58.8,48.7,58.9,48.7"/>
				<path fill="#FFFFFF" d="M59.8,48.9v-1.3H60c0,0,0.1,0,0.1,0.1l0,0.1c0,0,0.1-0.1,0.1-0.1c0,0,0.1,0,0.1-0.1c0,0,0.1,0,0.1,0
					c0,0,0.1,0,0.1,0c0.1,0,0.1,0,0.2,0c0.1,0,0.1,0.1,0.1,0.1c0,0,0.1,0.1,0.1,0.2c0,0.1,0,0.1,0,0.2v0.9h-0.3v-0.9
					c0-0.1,0-0.1-0.1-0.2c0,0-0.1-0.1-0.2-0.1c-0.1,0-0.1,0-0.2,0c0,0-0.1,0.1-0.1,0.1v1H59.8z"/>
				<path fill="#FFFFFF" d="M62.6,48.2c0,0.1,0,0.2,0,0.3c0,0.1-0.1,0.2-0.1,0.2c-0.1,0.1-0.1,0.1-0.2,0.1c-0.1,0-0.2,0-0.3,0
					c0,0-0.1,0-0.1,0c0,0-0.1,0-0.1,0l0-0.2c0,0,0,0,0,0c0,0,0,0,0.1,0c0,0,0,0,0.1,0c0,0,0.1,0,0.1,0c0.1,0,0.1,0,0.1,0
					c0,0,0.1,0,0.1-0.1c0,0,0-0.1,0.1-0.1c0-0.1,0-0.1,0-0.2V47h0.4V48.2z"/>
				<path fill="#FFFFFF" d="M63.2,47.6v0.9c0,0.1,0,0.1,0.1,0.2c0,0,0.1,0.1,0.2,0.1c0.1,0,0.1,0,0.2,0c0,0,0.1-0.1,0.1-0.1v-1h0.3
					v1.3h-0.2c0,0-0.1,0-0.1-0.1l0-0.1c0,0-0.1,0.1-0.1,0.1c0,0-0.1,0-0.1,0.1c0,0-0.1,0-0.1,0c0,0-0.1,0-0.1,0c-0.1,0-0.1,0-0.2,0
					c-0.1,0-0.1-0.1-0.1-0.1c0,0-0.1-0.1-0.1-0.2c0-0.1,0-0.1,0-0.2v-0.9H63.2z"/>
				<path fill="#FFFFFF" d="M65.4,48.9C65.3,48.9,65.3,48.9,65.4,48.9l-0.1-0.2c0,0-0.1,0.1-0.1,0.1c0,0-0.1,0-0.1,0.1
					c0,0-0.1,0-0.1,0c0,0-0.1,0-0.1,0c-0.1,0-0.1,0-0.2,0c-0.1,0-0.1-0.1-0.2-0.1c0-0.1-0.1-0.1-0.1-0.2c0-0.1,0-0.2,0-0.3
					c0-0.1,0-0.2,0-0.3c0-0.1,0.1-0.2,0.1-0.2c0.1-0.1,0.1-0.1,0.2-0.1c0.1,0,0.2-0.1,0.2-0.1c0.1,0,0.1,0,0.2,0
					c0.1,0,0.1,0.1,0.1,0.1V47h0.3v2H65.4z M64.9,48.7c0.1,0,0.1,0,0.2,0c0,0,0.1-0.1,0.1-0.1v-0.6c0,0-0.1-0.1-0.1-0.1
					c0,0-0.1,0-0.1,0c0,0-0.1,0-0.1,0c0,0-0.1,0-0.1,0.1c0,0,0,0.1-0.1,0.1c0,0.1,0,0.1,0,0.2c0,0.1,0,0.1,0,0.2
					c0,0.1,0,0.1,0.1,0.1c0,0,0.1,0.1,0.1,0.1C64.9,48.7,64.9,48.7,64.9,48.7"/>
				<path fill="#FFFFFF" d="M66.4,47.5c0.1,0,0.1,0,0.2,0s0.1,0,0.1,0.1h0.4v0.1c0,0,0,0,0,0c0,0,0,0-0.1,0l-0.1,0c0,0,0,0,0,0.1
					c0,0,0,0.1,0,0.1c0,0.1,0,0.1,0,0.2c0,0.1-0.1,0.1-0.1,0.1c0,0-0.1,0.1-0.2,0.1c-0.1,0-0.1,0-0.2,0c-0.1,0-0.1,0-0.1,0
					c0,0-0.1,0.1-0.1,0.1c0,0,0,0,0,0.1c0,0,0.1,0,0.1,0c0,0,0.1,0,0.1,0c0.1,0,0.1,0,0.2,0c0.1,0,0.1,0,0.2,0c0.1,0,0.1,0,0.1,0.1
					c0,0,0.1,0.1,0.1,0.1c0,0,0,0.1,0,0.2c0,0.1,0,0.1,0,0.2c0,0.1-0.1,0.1-0.1,0.2c-0.1,0-0.1,0.1-0.2,0.1c-0.1,0-0.2,0-0.3,0
					c-0.1,0-0.2,0-0.3,0c-0.1,0-0.1,0-0.2-0.1c0,0-0.1-0.1-0.1-0.1c0,0,0-0.1,0-0.1c0-0.1,0-0.1,0.1-0.2c0,0,0.1-0.1,0.2-0.1
					c0,0-0.1,0-0.1-0.1c0,0,0-0.1,0-0.1c0,0,0,0,0-0.1c0,0,0,0,0-0.1c0,0,0,0,0.1-0.1c0,0,0,0,0.1-0.1c-0.1,0-0.1-0.1-0.2-0.1
					c0-0.1-0.1-0.1-0.1-0.2c0-0.1,0-0.1,0-0.2c0-0.1,0.1-0.1,0.1-0.1c0,0,0.1-0.1,0.2-0.1C66.2,47.5,66.3,47.5,66.4,47.5 M66.7,49
					C66.7,48.9,66.7,48.9,66.7,49c0-0.1-0.1-0.1-0.1-0.1c0,0-0.1,0-0.1,0s-0.1,0-0.1,0h-0.1c0,0-0.1,0-0.1,0c0,0-0.1,0-0.1,0.1
					c0,0,0,0.1,0,0.1c0,0,0,0,0,0.1c0,0,0,0,0.1,0.1c0,0,0.1,0,0.1,0c0,0,0.1,0,0.2,0c0.1,0,0.1,0,0.2,0c0,0,0.1,0,0.1,0
					C66.7,49.1,66.7,49.1,66.7,49C66.7,49,66.7,49,66.7,49 M66.4,48.2c0,0,0.1,0,0.1,0c0,0,0.1,0,0.1,0c0,0,0,0,0-0.1
					c0,0,0-0.1,0-0.1c0-0.1,0-0.1-0.1-0.2c0,0-0.1-0.1-0.2-0.1c-0.1,0-0.1,0-0.2,0.1c0,0-0.1,0.1-0.1,0.2c0,0,0,0.1,0,0.1
					c0,0,0,0.1,0,0.1c0,0,0,0,0.1,0C66.3,48.2,66.4,48.2,66.4,48.2"/>
				<path fill="#FFFFFF" d="M67.8,47.5c0.1,0,0.2,0,0.2,0c0.1,0,0.1,0.1,0.2,0.1c0.1,0.1,0.1,0.1,0.1,0.2c0,0.1,0,0.2,0,0.3
					c0,0,0,0,0,0.1c0,0,0,0,0,0c0,0,0,0,0,0c0,0,0,0,0,0h-0.8c0,0.1,0,0.2,0.1,0.3c0.1,0.1,0.2,0.1,0.3,0.1c0.1,0,0.1,0,0.1,0
					c0,0,0.1,0,0.1,0c0,0,0.1,0,0.1,0c0,0,0,0,0.1,0c0,0,0,0,0,0c0,0,0,0,0,0l0.1,0.1c0,0-0.1,0.1-0.1,0.1c0,0-0.1,0.1-0.1,0.1
					c0,0-0.1,0-0.1,0c-0.1,0-0.1,0-0.1,0c-0.1,0-0.2,0-0.3,0c-0.1,0-0.2-0.1-0.2-0.1c-0.1-0.1-0.1-0.1-0.1-0.2
					c0-0.1-0.1-0.2-0.1-0.3c0-0.1,0-0.2,0-0.3c0-0.1,0.1-0.2,0.1-0.2c0.1-0.1,0.1-0.1,0.2-0.1C67.7,47.6,67.7,47.5,67.8,47.5
					 M67.9,47.8c-0.1,0-0.2,0-0.2,0.1c-0.1,0.1-0.1,0.1-0.1,0.2h0.6c0,0,0-0.1,0-0.1c0,0,0-0.1-0.1-0.1c0,0-0.1-0.1-0.1-0.1
					C67.9,47.8,67.9,47.8,67.9,47.8"/>
			</g>
			<g>
				<path fill="#FFFFFF" d="M60.3,51.2C60.4,51.2,60.4,51.2,60.3,51.2l0.1,0.1c-0.1,0.1-0.1,0.1-0.2,0.1c-0.1,0-0.2,0.1-0.3,0.1
					c-0.1,0-0.2,0-0.3,0c-0.1,0-0.1-0.1-0.2-0.1c-0.1-0.1-0.1-0.1-0.1-0.2c0-0.1,0-0.2,0-0.3c0-0.1,0-0.1,0-0.2c0-0.1,0-0.1,0.1-0.2
					c0,0,0.1-0.1,0.1-0.1c0,0,0.1-0.1,0.1-0.1c0,0,0.1,0,0.2-0.1c0.1,0,0.1,0,0.2,0c0,0,0.1,0,0.1,0c0,0,0.1,0,0.1,0
					c0,0,0.1,0,0.1,0.1c0,0,0.1,0,0.1,0.1l-0.1,0.1c0,0,0,0,0,0c0,0,0,0,0,0c0,0,0,0,0,0c0,0,0,0-0.1,0c0,0,0,0-0.1,0
					c0,0-0.1,0-0.1,0c-0.1,0-0.1,0-0.1,0c0,0-0.1,0-0.1,0.1c0,0-0.1,0.1-0.1,0.1c0,0.1,0,0.1,0,0.2c0,0.1,0,0.1,0,0.2
					c0,0.1,0,0.1,0.1,0.1c0,0,0.1,0.1,0.1,0.1c0,0,0.1,0,0.1,0c0,0,0.1,0,0.1,0c0,0,0,0,0.1,0C60.2,51.3,60.2,51.3,60.3,51.2
					C60.3,51.3,60.3,51.3,60.3,51.2C60.3,51.2,60.3,51.2,60.3,51.2C60.3,51.2,60.3,51.2,60.3,51.2"/>
				<polygon fill="#FFFFFF" points="60.9,50.5 60.9,50.8 61.3,50.8 61.3,51 60.9,51 60.9,51.3 61.4,51.3 61.4,51.5 60.6,51.5 
					60.6,50.3 61.4,50.3 61.4,50.5 				"/>
				<path fill="#FFFFFF" d="M62.8,50.9c0,0.1,0,0.2,0,0.3c0,0.1-0.1,0.1-0.1,0.2c-0.1,0.1-0.1,0.1-0.2,0.1c-0.1,0-0.2,0-0.3,0
					c-0.1,0-0.2,0-0.3,0c-0.1,0-0.1-0.1-0.2-0.1c-0.1-0.1-0.1-0.1-0.1-0.2c0-0.1,0-0.2,0-0.3c0-0.1,0-0.2,0-0.3
					c0-0.1,0.1-0.1,0.1-0.2c0.1-0.1,0.1-0.1,0.2-0.1c0.1,0,0.2,0,0.3,0c0.1,0,0.2,0,0.3,0c0.1,0,0.1,0.1,0.2,0.1
					c0.1,0.1,0.1,0.1,0.1,0.2C62.8,50.7,62.8,50.8,62.8,50.9 M62.6,50.9c0-0.1,0-0.1,0-0.2c0-0.1,0-0.1-0.1-0.1c0,0-0.1-0.1-0.1-0.1
					c0,0-0.1,0-0.2,0c-0.1,0-0.1,0-0.2,0c0,0-0.1,0-0.1,0.1c0,0-0.1,0.1-0.1,0.1c0,0.1,0,0.1,0,0.2c0,0.1,0,0.1,0,0.2
					c0,0.1,0,0.1,0.1,0.1c0,0,0.1,0.1,0.1,0.1c0,0,0.1,0,0.2,0c0.1,0,0.1,0,0.2,0c0,0,0.1,0,0.1-0.1c0,0,0.1-0.1,0.1-0.1
					C62.6,51,62.6,51,62.6,50.9"/>
			</g>
			<g>
				<rect x="53" y="54" fill="#FFFFFF" width="16" height="1"/>
				<rect x="53" y="56" fill="#FFFFFF" width="16" height="1"/>
				<rect x="53" y="58" fill="#FFFFFF" width="11" height="1"/>
			</g>
		</g>
		<path fill="#FFFFFF" d="M71.5,21.8l1-1c0.1-0.1,0.1-0.3,0-0.4l-0.1-0.1c-0.1-0.1-0.3-0.1-0.4,0l-1,1l-1-1c-0.1-0.1-0.3-0.1-0.4,0
			l-0.1,0.1c-0.1,0.1-0.1,0.3,0,0.4l1,1l-1,1c-0.1,0.1-0.1,0.3,0,0.4l0.1,0.1c0.1,0.1,0.3,0.1,0.4,0l1-1l1,1c0.1,0.1,0.3,0.1,0.4,0
			l0.1-0.1c0.1-0.1,0.1-0.3,0-0.4L71.5,21.8z"/>
	</g>
</g>
<g>
</g>
<g>
</g>
<g>
</g>
<g>
</g>
<g>
</g>
<g>
</g>
</svg>
