<?xml version="1.0" encoding="utf-8"?>
<!-- Generator: Adobe Illustrator 24.3.0, SVG Export Plug-In . SVG Version: 6.00 Build 0)  -->
<svg version="1.1" id="Layer_1" xmlns="http://www.w3.org/2000/svg" xmlns:xlink="http://www.w3.org/1999/xlink" x="0px" y="0px"
	 viewBox="0 0 121 91" enable-background="new 0 0 121 91" xml:space="preserve">
<g>
	<rect x="0.5" y="0.5" fill="#F7F8F9" stroke="#D2D2D2" stroke-miterlimit="10" width="120" height="90"/>
	<g>
		<rect x="18" y="19" fill="#BDC5CB" width="26" height="25"/>
		<rect x="78" y="19" fill="#BDC5CB" width="26" height="25"/>
		<rect x="18" y="48" fill="#BDC5CB" width="26" height="25"/>
		<rect x="78" y="48" fill="#BDC5CB" width="26" height="25"/>
		<rect x="48" y="19" fill="#BDC5CB" width="26" height="25"/>
		<rect x="48" y="48" fill="#BDC5CB" width="26" height="25"/>
	</g>
	<g>
		<rect x="35.2" y="29.8" fill="#134E5E" width="50.6" height="31.3"/>
		<g>
			<path fill-rule="evenodd" clip-rule="evenodd" fill="#FFFFFF" d="M50.4,46.8c-0.3,0.2-0.7,0.5-1,0.8c0.3,1.6,0.7,3.1,1,4.6
				c0.3-1.5,0.6-3,0.9-4.6C51,47.3,50.7,47,50.4,46.8 M50.3,45.5c-2,0-3.7-2.1-3.7-4.6c-0.4-0.9-0.1-4.1,2-4.1
				c2.4-1.2,4.1,0.1,5.2,0.9c0.4,0.9,0.7,2.2,0.2,3C54.1,43.4,52.5,45.5,50.3,45.5 M50.3,45c-1.8,0-3.2-1.8-3.2-4.1
				c0-0.4,0.1-0.7,0.1-0.9c0.2-0.6,0.8-0.9,1.2-0.5c1.5,1.2,3.2,1.2,4.9,0.9c0.4-0.1,0.4,0.4,0.3,0.8C53.5,43.3,52.1,45,50.3,45
				 M42.7,54.6c0-1.8,0.1-3.5,0-5.2c0-1.5,0.7-1.8,1.8-2.1l2.8-1c0.2-0.2,0.5-0.5,0.7-0.8c0.8,0.3,1.6,0.7,2.4,1
				c0.8-0.3,1.6-0.7,2.4-1c0.2,0.2,0.4,0.5,0.7,0.8l2.9,1c1.1,0.4,1.7,0.7,1.7,2.1v5.2H42.7z M50.5,52.9c1-2.1,1.9-4.3,2.9-6.4
				c0.2,0.3,0.4,0.7,0.7,1c-0.4,0.4-0.7,0.7-1,1.1c0.2,0.3,0.5,0.6,0.9,0.9C52.8,50.6,51.7,51.8,50.5,52.9 M50.2,52.9
				c-0.9-2.1-1.9-4.3-2.8-6.4c-0.2,0.3-0.5,0.7-0.7,1c0.3,0.4,0.7,0.7,1,1.1c-0.3,0.3-0.6,0.6-0.9,0.9C48,50.6,49.1,51.8,50.2,52.9"
				/>
			<g>
				<path fill="#FFFFFF" d="M65.4,50.5h-2.4c-0.3,0-0.5,0.2-0.5,0.5v2.4c0,0.3,0.2,0.5,0.5,0.5h1v-1.2h-0.4v-0.6h0.4v-0.4
					c0-0.3,0.3-0.6,0.6-0.6h0.6v0.6h-0.6v0.4h0.6l-0.1,0.6h-0.5V54h0.8c0.3,0,0.5-0.2,0.5-0.5V51C65.9,50.8,65.6,50.5,65.4,50.5"/>
				<path fill="#FFFFFF" d="M70.2,50.7c-0.1-0.1-0.3-0.2-0.5-0.2h-2.2c-0.2,0-0.3,0.1-0.5,0.2c-0.1,0.1-0.2,0.3-0.2,0.5v2.2
					c0,0.2,0.1,0.3,0.2,0.5c0.1,0.1,0.3,0.2,0.5,0.2h2.2c0.2,0,0.3-0.1,0.5-0.2c0.1-0.1,0.2-0.3,0.2-0.5v-2.2
					C70.3,51,70.3,50.8,70.2,50.7 M69.5,51.9C69.5,51.9,69.5,51.9,69.5,51.9c0,0.2,0,0.3-0.1,0.4c0,0.1-0.1,0.3-0.2,0.4
					c-0.1,0.1-0.2,0.2-0.3,0.3c-0.1,0.1-0.2,0.2-0.4,0.2c-0.1,0.1-0.3,0.1-0.5,0.1c-0.3,0-0.5-0.1-0.7-0.2c0,0,0.1,0,0.1,0
					c0.2,0,0.4-0.1,0.6-0.2c-0.1,0-0.2,0-0.3-0.1c-0.1-0.1-0.1-0.1-0.2-0.2c0,0,0.1,0,0.1,0c0,0,0.1,0,0.1,0c-0.1,0-0.2-0.1-0.3-0.2
					c-0.1-0.1-0.1-0.2-0.1-0.3v0c0.1,0,0.2,0.1,0.2,0.1c-0.1-0.1-0.2-0.2-0.2-0.4c0-0.1,0-0.2,0.1-0.2c0.1,0.1,0.3,0.3,0.4,0.4
					c0.2,0.1,0.4,0.1,0.6,0.1c0,0,0-0.1,0-0.1c0-0.1,0-0.2,0.1-0.3c0.1-0.1,0.2-0.1,0.3-0.1c0.1,0,0.3,0.1,0.3,0.2
					c0.1,0,0.2-0.1,0.3-0.1c0,0.1-0.1,0.2-0.2,0.3c0.1,0,0.2,0,0.3-0.1C69.7,51.7,69.6,51.8,69.5,51.9"/>
				<path fill="#FFFFFF" d="M74.3,50.5h-2.5c-0.3,0-0.5,0.2-0.5,0.5v2.5c0,0.3,0.2,0.5,0.5,0.5h2.5c0.3,0,0.5-0.2,0.5-0.5V51
					C74.8,50.8,74.6,50.5,74.3,50.5 M72.5,53.3h-0.4v-1.4h0.4V53.3z M72.5,51.6h-0.4v-0.4h0.4V51.6z M74,53.3h-0.4v-0.8
					c0-0.1-0.1-0.2-0.2-0.2c-0.1,0-0.2,0.1-0.2,0.2v0.8h-0.4v-1.4h0.4v0.1c0.1,0,0.2-0.1,0.3-0.1c0.3,0,0.5,0.2,0.5,0.5V53.3z"/>
			</g>
			<g>
				<path fill="#FFFFFF" d="M63.9,38.7h-0.3c0,0-0.1,0-0.1,0c0,0,0,0,0-0.1l-0.1-0.4h-0.8l-0.1,0.4c0,0,0,0,0,0.1c0,0,0,0-0.1,0H62
					l0.7-1.9h0.4L63.9,38.7z M62.7,38h0.6L63,37.3c0,0,0-0.1,0-0.1c0,0,0-0.1,0-0.1c0,0,0,0.1,0,0.1c0,0,0,0.1,0,0.1L62.7,38z"/>
				<path fill="#FFFFFF" d="M65.1,38.7H65c0,0-0.1,0-0.1,0c0,0,0,0,0-0.1l0-0.1c0,0-0.1,0.1-0.1,0.1c0,0-0.1,0-0.1,0.1
					c0,0-0.1,0-0.1,0c0,0-0.1,0-0.1,0c-0.1,0-0.1,0-0.2,0c0,0-0.1,0-0.1-0.1c0,0-0.1-0.1-0.1-0.1c0,0,0-0.1,0-0.2c0-0.1,0-0.1,0-0.2
					c0,0,0.1-0.1,0.1-0.1c0.1,0,0.1-0.1,0.2-0.1c0.1,0,0.2,0,0.4,0v-0.1c0-0.1,0-0.2-0.1-0.2c0,0-0.1-0.1-0.2-0.1
					c-0.1,0-0.1,0-0.1,0c0,0-0.1,0-0.1,0c0,0,0,0-0.1,0c0,0,0,0-0.1,0c0,0,0,0-0.1,0c0,0,0,0,0,0l-0.1-0.1c0.2-0.1,0.3-0.2,0.6-0.2
					c0.1,0,0.1,0,0.2,0c0.1,0,0.1,0.1,0.2,0.1c0,0,0.1,0.1,0.1,0.2c0,0.1,0,0.1,0,0.2V38.7z M64.5,38.5
					C64.5,38.5,64.6,38.5,64.5,38.5c0.1,0,0.1,0,0.2,0c0,0,0,0,0.1,0c0,0,0,0,0.1-0.1v-0.2c-0.1,0-0.2,0-0.2,0c-0.1,0-0.1,0-0.2,0
					c0,0-0.1,0-0.1,0.1c0,0,0,0.1,0,0.1c0,0.1,0,0.1,0.1,0.1C64.4,38.5,64.4,38.5,64.5,38.5"/>
				<path fill="#FFFFFF" d="M65.4,38.7v-1.3h0.2c0,0,0.1,0,0.1,0c0,0,0,0,0,0.1l0,0.2c0-0.1,0.1-0.1,0.2-0.2c0.1,0,0.1-0.1,0.2-0.1
					c0.1,0,0.1,0,0.2,0l0,0.2c0,0,0,0,0,0c0,0,0,0,0,0c0,0,0,0-0.1,0c0,0-0.1,0-0.1,0c-0.1,0-0.1,0-0.2,0.1c0,0-0.1,0.1-0.1,0.2v0.8
					H65.4z"/>
				<path fill="#FFFFFF" d="M67.1,37.3c0.1,0,0.2,0,0.3,0c0.1,0,0.2,0.1,0.2,0.1c0.1,0.1,0.1,0.1,0.1,0.2c0,0.1,0,0.2,0,0.3
					c0,0.1,0,0.2,0,0.3c0,0.1-0.1,0.2-0.1,0.2c-0.1,0.1-0.1,0.1-0.2,0.1c-0.1,0-0.2,0-0.3,0c-0.1,0-0.2,0-0.3,0
					c-0.1,0-0.2-0.1-0.2-0.1c-0.1-0.1-0.1-0.1-0.1-0.2c0-0.1,0-0.2,0-0.3c0-0.1,0-0.2,0-0.3c0-0.1,0.1-0.2,0.1-0.2
					c0.1-0.1,0.1-0.1,0.2-0.1C66.9,37.3,67,37.3,67.1,37.3 M67.1,38.5c0.1,0,0.2,0,0.2-0.1c0.1-0.1,0.1-0.2,0.1-0.3
					c0-0.1,0-0.3-0.1-0.3c-0.1-0.1-0.1-0.1-0.2-0.1c-0.1,0-0.2,0-0.3,0.1c-0.1,0.1-0.1,0.2-0.1,0.3c0,0.1,0,0.3,0.1,0.3
					C66.9,38.4,67,38.5,67.1,38.5"/>
				<path fill="#FFFFFF" d="M68,38.7v-1.3h0.2c0,0,0.1,0,0.1,0.1l0,0.1c0,0,0.1-0.1,0.1-0.1c0,0,0.1,0,0.1-0.1c0,0,0.1,0,0.1,0
					c0,0,0.1,0,0.1,0c0.1,0,0.1,0,0.2,0c0.1,0,0.1,0.1,0.1,0.1c0,0,0.1,0.1,0.1,0.2c0,0.1,0,0.1,0,0.2v0.9h-0.3v-0.9
					c0-0.1,0-0.1-0.1-0.2c0,0-0.1-0.1-0.2-0.1c-0.1,0-0.1,0-0.2,0c0,0-0.1,0.1-0.1,0.1v1H68z"/>
				<path fill="#FFFFFF" d="M70.8,38c0,0.1,0,0.2,0,0.3c0,0.1-0.1,0.2-0.1,0.2c-0.1,0.1-0.1,0.1-0.2,0.1c-0.1,0-0.2,0-0.3,0
					c0,0-0.1,0-0.1,0c0,0-0.1,0-0.1,0l0-0.2c0,0,0,0,0,0c0,0,0,0,0.1,0c0,0,0,0,0.1,0c0,0,0.1,0,0.1,0c0.1,0,0.1,0,0.1,0
					c0,0,0.1,0,0.1-0.1c0,0,0-0.1,0.1-0.1c0-0.1,0-0.1,0-0.2v-1.2h0.4V38z"/>
				<path fill="#FFFFFF" d="M71.5,37.3v0.9c0,0.1,0,0.1,0.1,0.2c0,0,0.1,0.1,0.2,0.1c0.1,0,0.1,0,0.2,0c0,0,0.1-0.1,0.1-0.1v-1h0.3
					v1.3h-0.2c0,0-0.1,0-0.1-0.1l0-0.1c0,0-0.1,0.1-0.1,0.1c0,0-0.1,0-0.1,0.1c0,0-0.1,0-0.1,0c0,0-0.1,0-0.1,0c-0.1,0-0.1,0-0.2,0
					c-0.1,0-0.1-0.1-0.1-0.1c0,0-0.1-0.1-0.1-0.2c0-0.1,0-0.1,0-0.2v-0.9H71.5z"/>
				<path fill="#FFFFFF" d="M73.6,38.7C73.6,38.7,73.5,38.7,73.6,38.7l-0.1-0.2c0,0-0.1,0.1-0.1,0.1c0,0-0.1,0-0.1,0.1
					c0,0-0.1,0-0.1,0c0,0-0.1,0-0.1,0c-0.1,0-0.1,0-0.2,0c-0.1,0-0.1-0.1-0.2-0.1c0-0.1-0.1-0.1-0.1-0.2c0-0.1,0-0.2,0-0.3
					c0-0.1,0-0.2,0-0.3c0-0.1,0.1-0.2,0.1-0.2c0.1-0.1,0.1-0.1,0.2-0.1c0.1,0,0.2-0.1,0.2-0.1c0.1,0,0.1,0,0.2,0
					c0.1,0,0.1,0.1,0.1,0.1v-0.7h0.3v2H73.6z M73.2,38.4c0.1,0,0.1,0,0.2,0c0,0,0.1-0.1,0.1-0.1v-0.6c0,0-0.1-0.1-0.1-0.1
					c0,0-0.1,0-0.1,0c0,0-0.1,0-0.1,0c0,0-0.1,0-0.1,0.1c0,0,0,0.1-0.1,0.1c0,0.1,0,0.1,0,0.2c0,0.1,0,0.1,0,0.2
					c0,0.1,0,0.1,0.1,0.1c0,0,0.1,0.1,0.1,0.1C73.1,38.4,73.1,38.4,73.2,38.4"/>
				<path fill="#FFFFFF" d="M74.6,37.3c0.1,0,0.1,0,0.2,0c0.1,0,0.1,0,0.1,0.1h0.4v0.1c0,0,0,0,0,0c0,0,0,0-0.1,0l-0.1,0
					c0,0,0,0,0,0.1c0,0,0,0.1,0,0.1c0,0.1,0,0.1,0,0.2c0,0.1-0.1,0.1-0.1,0.1c0,0-0.1,0.1-0.2,0.1c-0.1,0-0.1,0-0.2,0
					c-0.1,0-0.1,0-0.1,0c0,0-0.1,0.1-0.1,0.1c0,0,0,0,0,0.1c0,0,0.1,0,0.1,0c0,0,0.1,0,0.1,0c0.1,0,0.1,0,0.2,0c0.1,0,0.1,0,0.2,0
					c0.1,0,0.1,0,0.1,0.1c0,0,0.1,0.1,0.1,0.1c0,0,0,0.1,0,0.2c0,0.1,0,0.1,0,0.2c0,0.1-0.1,0.1-0.1,0.2c-0.1,0-0.1,0.1-0.2,0.1
					c-0.1,0-0.2,0-0.3,0c-0.1,0-0.2,0-0.3,0c-0.1,0-0.1,0-0.2-0.1c0,0-0.1-0.1-0.1-0.1c0,0,0-0.1,0-0.1c0-0.1,0-0.1,0.1-0.2
					c0,0,0.1-0.1,0.2-0.1c0,0-0.1,0-0.1-0.1c0,0,0-0.1,0-0.1c0,0,0,0,0-0.1c0,0,0,0,0-0.1c0,0,0,0,0.1-0.1c0,0,0,0,0.1-0.1
					c-0.1,0-0.1-0.1-0.2-0.1c0-0.1-0.1-0.1-0.1-0.2c0-0.1,0-0.1,0-0.2c0-0.1,0.1-0.1,0.1-0.1c0,0,0.1-0.1,0.2-0.1
					C74.5,37.3,74.5,37.3,74.6,37.3 M75,38.7C75,38.7,75,38.7,75,38.7c0-0.1-0.1-0.1-0.1-0.1c0,0-0.1,0-0.1,0c0,0-0.1,0-0.1,0h-0.1
					c0,0-0.1,0-0.1,0c0,0-0.1,0-0.1,0.1c0,0,0,0.1,0,0.1c0,0,0,0,0,0.1c0,0,0,0,0.1,0.1c0,0,0.1,0,0.1,0c0,0,0.1,0,0.2,0
					c0.1,0,0.1,0,0.2,0c0,0,0.1,0,0.1,0C74.9,38.9,74.9,38.8,75,38.7C75,38.8,75,38.8,75,38.7 M74.6,38c0,0,0.1,0,0.1,0
					c0,0,0.1,0,0.1,0c0,0,0,0,0-0.1c0,0,0-0.1,0-0.1c0-0.1,0-0.1-0.1-0.2c0,0-0.1-0.1-0.2-0.1c-0.1,0-0.1,0-0.2,0.1
					c0,0-0.1,0.1-0.1,0.2c0,0,0,0.1,0,0.1c0,0,0,0.1,0,0.1c0,0,0,0,0.1,0C74.5,38,74.6,38,74.6,38"/>
				<path fill="#FFFFFF" d="M76.1,37.3c0.1,0,0.2,0,0.2,0c0.1,0,0.1,0.1,0.2,0.1c0.1,0.1,0.1,0.1,0.1,0.2c0,0.1,0,0.2,0,0.3
					c0,0,0,0,0,0.1c0,0,0,0,0,0c0,0,0,0,0,0c0,0,0,0,0,0h-0.8c0,0.1,0,0.2,0.1,0.3c0.1,0.1,0.2,0.1,0.3,0.1c0.1,0,0.1,0,0.1,0
					c0,0,0.1,0,0.1,0c0,0,0.1,0,0.1,0c0,0,0,0,0.1,0c0,0,0,0,0,0c0,0,0,0,0,0l0.1,0.1c0,0-0.1,0.1-0.1,0.1c0,0-0.1,0.1-0.1,0.1
					c0,0-0.1,0-0.1,0c-0.1,0-0.1,0-0.1,0c-0.1,0-0.2,0-0.3,0c-0.1,0-0.2-0.1-0.2-0.1c-0.1-0.1-0.1-0.1-0.1-0.2
					c0-0.1-0.1-0.2-0.1-0.3c0-0.1,0-0.2,0-0.3c0-0.1,0.1-0.2,0.1-0.2c0.1-0.1,0.1-0.1,0.2-0.1C75.9,37.3,76,37.3,76.1,37.3
					 M76.1,37.5c-0.1,0-0.2,0-0.2,0.1c-0.1,0.1-0.1,0.1-0.1,0.2h0.6c0,0,0-0.1,0-0.1c0,0,0-0.1-0.1-0.1c0,0-0.1-0.1-0.1-0.1
					C76.2,37.6,76.1,37.5,76.1,37.5"/>
			</g>
			<g>
				<path fill="#FFFFFF" d="M63,41C63,41,63,41,63,41l0.1,0.1c-0.1,0.1-0.1,0.1-0.2,0.1c-0.1,0-0.2,0.1-0.3,0.1c-0.1,0-0.2,0-0.3,0
					c-0.1,0-0.1-0.1-0.2-0.1c-0.1-0.1-0.1-0.1-0.1-0.2c0-0.1,0-0.2,0-0.3c0-0.1,0-0.1,0-0.2c0-0.1,0-0.1,0.1-0.2
					c0,0,0.1-0.1,0.1-0.1c0,0,0.1-0.1,0.1-0.1c0,0,0.1,0,0.2-0.1c0.1,0,0.1,0,0.2,0c0,0,0.1,0,0.1,0c0,0,0.1,0,0.1,0
					c0,0,0.1,0,0.1,0.1c0,0,0.1,0,0.1,0.1L63,40.3c0,0,0,0,0,0c0,0,0,0,0,0c0,0,0,0,0,0c0,0,0,0-0.1,0c0,0,0,0-0.1,0
					c0,0-0.1,0-0.1,0c-0.1,0-0.1,0-0.1,0c0,0-0.1,0-0.1,0.1c0,0-0.1,0.1-0.1,0.1c0,0.1,0,0.1,0,0.2c0,0.1,0,0.1,0,0.2
					c0,0.1,0,0.1,0.1,0.1c0,0,0.1,0.1,0.1,0.1c0,0,0.1,0,0.1,0c0,0,0.1,0,0.1,0c0,0,0,0,0.1,0C62.8,41.1,62.9,41.1,63,41
					C62.9,41.1,62.9,41,63,41C62.9,41,63,41,63,41C63,41,63,41,63,41"/>
				<polygon fill="#FFFFFF" points="63.5,40.3 63.5,40.6 64,40.6 64,40.8 63.5,40.8 63.5,41.1 64.1,41.1 64.1,41.3 63.3,41.3 
					63.3,40 64.1,40 64.1,40.3 				"/>
				<path fill="#FFFFFF" d="M65.5,40.7c0,0.1,0,0.2,0,0.3c0,0.1-0.1,0.1-0.1,0.2c-0.1,0.1-0.1,0.1-0.2,0.1c-0.1,0-0.2,0-0.3,0
					c-0.1,0-0.2,0-0.3,0c-0.1,0-0.1-0.1-0.2-0.1c-0.1-0.1-0.1-0.1-0.1-0.2c0-0.1,0-0.2,0-0.3c0-0.1,0-0.2,0-0.3s0.1-0.1,0.1-0.2
					c0.1-0.1,0.1-0.1,0.2-0.1c0.1,0,0.2,0,0.3,0c0.1,0,0.2,0,0.3,0c0.1,0,0.1,0.1,0.2,0.1c0.1,0.1,0.1,0.1,0.1,0.2
					C65.5,40.5,65.5,40.6,65.5,40.7 M65.2,40.7c0-0.1,0-0.1,0-0.2c0-0.1,0-0.1-0.1-0.1c0,0-0.1-0.1-0.1-0.1c0,0-0.1,0-0.2,0
					c-0.1,0-0.1,0-0.2,0c0,0-0.1,0-0.1,0.1c0,0-0.1,0.1-0.1,0.1c0,0.1,0,0.1,0,0.2c0,0.1,0,0.1,0,0.2c0,0.1,0,0.1,0.1,0.1
					c0,0,0.1,0.1,0.1,0.1c0,0,0.1,0,0.2,0c0.1,0,0.1,0,0.2,0c0,0,0.1,0,0.1-0.1c0,0,0.1-0.1,0.1-0.1C65.2,40.8,65.2,40.8,65.2,40.7"
					/>
			</g>
			<g>
				<rect x="62" y="44" fill="#FFFFFF" width="16" height="1"/>
				<rect x="62" y="46" fill="#FFFFFF" width="16" height="1"/>
				<rect x="62" y="48" fill="#FFFFFF" width="11" height="1"/>
			</g>
		</g>
		<path fill="#FFFFFF" d="M83.2,32.7l1-1c0.1-0.1,0.1-0.3,0-0.4l-0.1-0.1c-0.1-0.1-0.3-0.1-0.4,0l-1,1l-1-1c-0.1-0.1-0.3-0.1-0.4,0
			l-0.1,0.1c-0.1,0.1-0.1,0.3,0,0.4l1,1l-1,1c-0.1,0.1-0.1,0.3,0,0.4l0.1,0.1c0.1,0.1,0.3,0.1,0.4,0l1-1l1,1c0.1,0.1,0.3,0.1,0.4,0
			l0.1-0.1c0.1-0.1,0.1-0.3,0-0.4L83.2,32.7z"/>
	</g>
	<g>
		<g>
			<path fill="#134E5E" d="M30.3,46l2.6-2.6c0.1-0.1,0.1-0.2,0.1-0.3c0-0.1,0-0.2-0.1-0.3l-0.2-0.2c-0.1-0.1-0.2-0.1-0.3-0.1
				s-0.2,0-0.3,0.1l-3.1,3.1c-0.1,0.1-0.1,0.2-0.1,0.3c0,0.1,0,0.2,0.1,0.3l3.1,3.1c0.1,0.1,0.2,0.1,0.3,0.1c0.1,0,0.2,0,0.3-0.1
				l0.2-0.2c0.1-0.1,0.1-0.4,0-0.5L30.3,46z"/>
		</g>
	</g>
	<g>
		<g>
			<path fill="#134E5E" d="M90.8,46l-2.6,2.6c-0.1,0.1-0.1,0.2-0.1,0.3c0,0.1,0,0.2,0.1,0.3l0.2,0.2c0.1,0.1,0.2,0.1,0.3,0.1
				c0.1,0,0.2,0,0.3-0.1l3.1-3.1c0.1-0.1,0.1-0.2,0.1-0.3c0-0.1,0-0.2-0.1-0.3L89,42.6c-0.1-0.1-0.2-0.1-0.3-0.1
				c-0.1,0-0.2,0-0.3,0.1l-0.2,0.2c-0.1,0.1-0.1,0.4,0,0.5L90.8,46z"/>
		</g>
	</g>
</g>
<g>
</g>
<g>
</g>
<g>
</g>
<g>
</g>
<g>
</g>
<g>
</g>
</svg>
