<?xml version="1.0" encoding="utf-8"?>
<!-- Generator: Adobe Illustrator 24.3.0, SVG Export Plug-In . SVG Version: 6.00 Build 0)  -->
<svg version="1.1" id="Layer_1" xmlns="http://www.w3.org/2000/svg" xmlns:xlink="http://www.w3.org/1999/xlink" x="0px" y="0px"
	 viewBox="0 0 121 91" enable-background="new 0 0 121 91" xml:space="preserve">
<g>
	<rect x="0.5" y="0.5" fill="#F7F8F9" stroke="#D2D2D2" stroke-miterlimit="10" width="120" height="90"/>
	<rect x="18" y="19" fill="#BDC5CB" width="26" height="25"/>
	<rect x="48" y="19" fill="#BDC5CB" width="26" height="25"/>
	<rect x="18" y="48" fill="#BDC5CB" width="26" height="25"/>
	<rect x="48" y="48" fill="#BDC5CB" width="26" height="25"/>
	<g>
		<rect x="78" y="19" fill="#134E5E" width="26" height="54.1"/>
		<g>
			<path fill-rule="evenodd" clip-rule="evenodd" fill="#FFFFFF" d="M91.2,37c-0.3,0.2-0.7,0.5-1,0.8c0.3,1.6,0.7,3.1,1,4.6
				c0.3-1.5,0.6-3,0.9-4.6C91.8,37.6,91.5,37.2,91.2,37 M91.1,35.7c-2,0-3.7-2.1-3.7-4.6c-0.4-0.9-0.1-4.1,2-4.1
				c2.4-1.2,4.1,0.1,5.2,0.9c0.4,0.9,0.7,2.2,0.2,3C94.9,33.6,93.2,35.7,91.1,35.7 M91.1,35.2c-1.8,0-3.2-1.8-3.2-4.1
				c0-0.4,0.1-0.7,0.1-0.9c0.2-0.6,0.8-0.9,1.2-0.5c1.5,1.2,3.2,1.2,4.9,0.9c0.4-0.1,0.4,0.4,0.3,0.8C94.3,33.5,92.9,35.2,91.1,35.2
				 M83.5,44.8c0-1.8,0.1-3.5,0-5.2c0-1.5,0.7-1.8,1.8-2.1l2.8-1c0.2-0.2,0.5-0.5,0.7-0.8c0.8,0.3,1.6,0.7,2.4,1
				c0.8-0.3,1.6-0.7,2.4-1c0.2,0.2,0.4,0.5,0.7,0.8l2.9,1c1.1,0.4,1.7,0.7,1.7,2.1v5.2H83.5z M91.3,43.1c1-2.1,1.9-4.3,2.9-6.4
				c0.2,0.3,0.4,0.7,0.7,1c-0.4,0.4-0.7,0.7-1,1.1c0.2,0.3,0.5,0.6,0.9,0.9C93.5,40.8,92.4,42,91.3,43.1 M91,43.1
				c-0.9-2.1-1.9-4.3-2.8-6.4c-0.2,0.3-0.5,0.7-0.7,1c0.3,0.4,0.7,0.7,1,1.1c-0.3,0.3-0.6,0.6-0.9,0.9C88.7,40.8,89.9,42,91,43.1"/>
			<g>
				<path fill="#FFFFFF" d="M87.5,61.5h-2.8c-0.3,0-0.6,0.3-0.6,0.6v2.8c0,0.3,0.3,0.6,0.6,0.6h1.2v-1.4h-0.5v-0.7h0.5v-0.5
					c0-0.4,0.3-0.7,0.7-0.7h0.7v0.7h-0.7v0.5h0.7l-0.1,0.7h-0.6v1.4h0.9c0.3,0,0.6-0.3,0.6-0.6v-2.8C88,61.8,87.8,61.5,87.5,61.5"/>
				<path fill="#FFFFFF" d="M92.9,61.7c-0.1-0.1-0.3-0.2-0.5-0.2h-2.5c-0.2,0-0.4,0.1-0.5,0.2c-0.1,0.1-0.2,0.3-0.2,0.5v2.5
					c0,0.2,0.1,0.4,0.2,0.5c0.1,0.1,0.3,0.2,0.5,0.2h2.5c0.2,0,0.4-0.1,0.5-0.2c0.1-0.1,0.2-0.3,0.2-0.5v-2.5
					C93.1,62,93,61.9,92.9,61.7 M92.2,63C92.2,63,92.2,63.1,92.2,63c0,0.2,0,0.4-0.1,0.5c0,0.1-0.1,0.3-0.2,0.4
					c-0.1,0.1-0.2,0.2-0.3,0.4c-0.1,0.1-0.3,0.2-0.4,0.2c-0.2,0.1-0.3,0.1-0.5,0.1c-0.3,0-0.6-0.1-0.8-0.2c0,0,0.1,0,0.1,0
					c0.2,0,0.5-0.1,0.7-0.2c-0.1,0-0.2,0-0.3-0.1c-0.1-0.1-0.2-0.2-0.2-0.3c0,0,0.1,0,0.1,0c0,0,0.1,0,0.1,0c-0.1,0-0.2-0.1-0.3-0.2
					c-0.1-0.1-0.1-0.2-0.1-0.3v0c0.1,0,0.2,0.1,0.3,0.1c-0.2-0.1-0.2-0.3-0.2-0.4c0-0.1,0-0.2,0.1-0.3c0.1,0.2,0.3,0.3,0.5,0.4
					c0.2,0.1,0.4,0.2,0.6,0.2c0,0,0-0.1,0-0.1c0-0.1,0.1-0.3,0.2-0.4c0.1-0.1,0.2-0.2,0.4-0.2c0.2,0,0.3,0.1,0.4,0.2
					c0.1,0,0.2-0.1,0.3-0.1c0,0.1-0.1,0.2-0.2,0.3c0.1,0,0.2,0,0.3-0.1C92.4,62.9,92.3,63,92.2,63"/>
				<path fill="#FFFFFF" d="M97.5,61.5h-2.8c-0.3,0-0.6,0.3-0.6,0.6v2.8c0,0.3,0.3,0.6,0.6,0.6h2.8c0.3,0,0.6-0.3,0.6-0.6v-2.8
					C98.1,61.8,97.9,61.5,97.5,61.5 M95.6,64.6h-0.5V63h0.5V64.6z M95.6,62.8h-0.5v-0.5h0.5V62.8z M97.2,64.6h-0.5v-0.9
					c0-0.1-0.1-0.2-0.2-0.2c-0.1,0-0.2,0.1-0.2,0.2v0.9h-0.5V63h0.5v0.1c0.1,0,0.2-0.1,0.3-0.1c0.3,0,0.6,0.3,0.6,0.6V64.6z"/>
			</g>
			<g>
				<path fill="#FFFFFF" d="M85.7,48.9h-0.3c0,0-0.1,0-0.1,0c0,0,0,0,0-0.1l-0.1-0.4h-0.8l-0.1,0.4c0,0,0,0,0,0.1c0,0,0,0-0.1,0
					h-0.3l0.7-1.9h0.4L85.7,48.9z M84.4,48.2h0.6l-0.2-0.6c0,0,0-0.1,0-0.1c0,0,0-0.1,0-0.1c0,0,0,0.1,0,0.1c0,0,0,0.1,0,0.1
					L84.4,48.2z"/>
				<path fill="#FFFFFF" d="M86.9,48.9h-0.1c0,0-0.1,0-0.1,0c0,0,0,0,0-0.1l0-0.1c0,0-0.1,0.1-0.1,0.1c0,0-0.1,0-0.1,0.1
					c0,0-0.1,0-0.1,0c0,0-0.1,0-0.1,0c-0.1,0-0.1,0-0.2,0c0,0-0.1,0-0.1-0.1c0,0-0.1-0.1-0.1-0.1c0,0,0-0.1,0-0.2c0-0.1,0-0.1,0-0.2
					c0,0,0.1-0.1,0.1-0.1c0.1,0,0.1-0.1,0.2-0.1c0.1,0,0.2,0,0.4,0v-0.1c0-0.1,0-0.2-0.1-0.2c0,0-0.1-0.1-0.2-0.1
					c-0.1,0-0.1,0-0.1,0c0,0-0.1,0-0.1,0c0,0,0,0-0.1,0c0,0,0,0-0.1,0c0,0,0,0-0.1,0c0,0,0,0,0,0l-0.1-0.1c0.2-0.1,0.3-0.2,0.6-0.2
					c0.1,0,0.1,0,0.2,0c0.1,0,0.1,0.1,0.2,0.1c0,0,0.1,0.1,0.1,0.2c0,0.1,0,0.1,0,0.2V48.9z M86.3,48.7
					C86.3,48.7,86.3,48.7,86.3,48.7c0.1,0,0.1,0,0.2,0c0,0,0,0,0.1,0c0,0,0,0,0.1-0.1v-0.2c-0.1,0-0.2,0-0.2,0c-0.1,0-0.1,0-0.2,0
					c0,0-0.1,0-0.1,0.1c0,0,0,0.1,0,0.1c0,0.1,0,0.1,0.1,0.1C86.2,48.7,86.2,48.7,86.3,48.7"/>
				<path fill="#FFFFFF" d="M87.2,48.9v-1.3h0.2c0,0,0.1,0,0.1,0c0,0,0,0,0,0.1l0,0.2c0-0.1,0.1-0.1,0.2-0.2c0.1,0,0.1-0.1,0.2-0.1
					c0.1,0,0.1,0,0.2,0l0,0.2c0,0,0,0,0,0c0,0,0,0,0,0c0,0,0,0-0.1,0c0,0-0.1,0-0.1,0c-0.1,0-0.1,0-0.2,0.1c0,0-0.1,0.1-0.1,0.2v0.8
					H87.2z"/>
				<path fill="#FFFFFF" d="M88.9,47.5c0.1,0,0.2,0,0.3,0c0.1,0,0.2,0.1,0.2,0.1c0.1,0.1,0.1,0.1,0.1,0.2c0,0.1,0,0.2,0,0.3
					c0,0.1,0,0.2,0,0.3c0,0.1-0.1,0.2-0.1,0.2c-0.1,0.1-0.1,0.1-0.2,0.1c-0.1,0-0.2,0-0.3,0c-0.1,0-0.2,0-0.3,0
					c-0.1,0-0.2-0.1-0.2-0.1c-0.1-0.1-0.1-0.1-0.1-0.2c0-0.1,0-0.2,0-0.3c0-0.1,0-0.2,0-0.3c0-0.1,0.1-0.2,0.1-0.2
					c0.1-0.1,0.1-0.1,0.2-0.1C88.7,47.6,88.8,47.5,88.9,47.5 M88.9,48.7c0.1,0,0.2,0,0.2-0.1c0.1-0.1,0.1-0.2,0.1-0.3
					c0-0.1,0-0.3-0.1-0.3c-0.1-0.1-0.1-0.1-0.2-0.1c-0.1,0-0.2,0-0.3,0.1c-0.1,0.1-0.1,0.2-0.1,0.3c0,0.1,0,0.3,0.1,0.3
					C88.7,48.6,88.8,48.7,88.9,48.7"/>
				<path fill="#FFFFFF" d="M89.8,48.9v-1.3H90c0,0,0.1,0,0.1,0.1l0,0.1c0,0,0.1-0.1,0.1-0.1c0,0,0.1,0,0.1-0.1c0,0,0.1,0,0.1,0
					c0,0,0.1,0,0.1,0c0.1,0,0.1,0,0.2,0c0.1,0,0.1,0.1,0.1,0.1c0,0,0.1,0.1,0.1,0.2c0,0.1,0,0.1,0,0.2v0.9h-0.3v-0.9
					c0-0.1,0-0.1-0.1-0.2c0,0-0.1-0.1-0.2-0.1c-0.1,0-0.1,0-0.2,0c0,0-0.1,0.1-0.1,0.1v1H89.8z"/>
				<path fill="#FFFFFF" d="M92.6,48.2c0,0.1,0,0.2,0,0.3c0,0.1-0.1,0.2-0.1,0.2c-0.1,0.1-0.1,0.1-0.2,0.1c-0.1,0-0.2,0-0.3,0
					c0,0-0.1,0-0.1,0c0,0-0.1,0-0.1,0l0-0.2c0,0,0,0,0,0c0,0,0,0,0.1,0c0,0,0,0,0.1,0c0,0,0.1,0,0.1,0c0.1,0,0.1,0,0.1,0
					c0,0,0.1,0,0.1-0.1c0,0,0-0.1,0.1-0.1s0-0.1,0-0.2V47h0.4V48.2z"/>
				<path fill="#FFFFFF" d="M93.2,47.6v0.9c0,0.1,0,0.1,0.1,0.2c0,0,0.1,0.1,0.2,0.1c0.1,0,0.1,0,0.2,0c0,0,0.1-0.1,0.1-0.1v-1h0.3
					v1.3h-0.2c0,0-0.1,0-0.1-0.1l0-0.1c0,0-0.1,0.1-0.1,0.1c0,0-0.1,0-0.1,0.1c0,0-0.1,0-0.1,0c0,0-0.1,0-0.1,0c-0.1,0-0.1,0-0.2,0
					c-0.1,0-0.1-0.1-0.1-0.1c0,0-0.1-0.1-0.1-0.2c0-0.1,0-0.1,0-0.2v-0.9H93.2z"/>
				<path fill="#FFFFFF" d="M95.4,48.9C95.3,48.9,95.3,48.9,95.4,48.9l-0.1-0.2c0,0-0.1,0.1-0.1,0.1c0,0-0.1,0-0.1,0.1
					c0,0-0.1,0-0.1,0c0,0-0.1,0-0.1,0c-0.1,0-0.1,0-0.2,0c-0.1,0-0.1-0.1-0.2-0.1c0-0.1-0.1-0.1-0.1-0.2c0-0.1,0-0.2,0-0.3
					c0-0.1,0-0.2,0-0.3c0-0.1,0.1-0.2,0.1-0.2c0.1-0.1,0.1-0.1,0.2-0.1c0.1,0,0.2-0.1,0.2-0.1c0.1,0,0.1,0,0.2,0
					c0.1,0,0.1,0.1,0.1,0.1V47h0.3v2H95.4z M94.9,48.7c0.1,0,0.1,0,0.2,0c0,0,0.1-0.1,0.1-0.1v-0.6c0,0-0.1-0.1-0.1-0.1
					c0,0-0.1,0-0.1,0c0,0-0.1,0-0.1,0c0,0-0.1,0-0.1,0.1c0,0,0,0.1-0.1,0.1c0,0.1,0,0.1,0,0.2c0,0.1,0,0.1,0,0.2
					c0,0.1,0,0.1,0.1,0.1c0,0,0.1,0.1,0.1,0.1C94.9,48.7,94.9,48.7,94.9,48.7"/>
				<path fill="#FFFFFF" d="M96.4,47.5c0.1,0,0.1,0,0.2,0s0.1,0,0.1,0.1h0.4v0.1c0,0,0,0,0,0c0,0,0,0-0.1,0l-0.1,0c0,0,0,0,0,0.1
					c0,0,0,0.1,0,0.1c0,0.1,0,0.1,0,0.2c0,0.1-0.1,0.1-0.1,0.1c0,0-0.1,0.1-0.2,0.1c-0.1,0-0.1,0-0.2,0c-0.1,0-0.1,0-0.1,0
					c0,0-0.1,0.1-0.1,0.1c0,0,0,0,0,0.1c0,0,0.1,0,0.1,0c0,0,0.1,0,0.1,0c0.1,0,0.1,0,0.2,0c0.1,0,0.1,0,0.2,0c0.1,0,0.1,0,0.1,0.1
					c0,0,0.1,0.1,0.1,0.1c0,0,0,0.1,0,0.2c0,0.1,0,0.1,0,0.2c0,0.1-0.1,0.1-0.1,0.2c-0.1,0-0.1,0.1-0.2,0.1c-0.1,0-0.2,0-0.3,0
					c-0.1,0-0.2,0-0.3,0c-0.1,0-0.1,0-0.2-0.1c0,0-0.1-0.1-0.1-0.1c0,0,0-0.1,0-0.1c0-0.1,0-0.1,0.1-0.2c0,0,0.1-0.1,0.2-0.1
					c0,0-0.1,0-0.1-0.1c0,0,0-0.1,0-0.1c0,0,0,0,0-0.1c0,0,0,0,0-0.1c0,0,0,0,0.1-0.1c0,0,0,0,0.1-0.1c-0.1,0-0.1-0.1-0.2-0.1
					c0-0.1-0.1-0.1-0.1-0.2c0-0.1,0-0.1,0-0.2c0-0.1,0.1-0.1,0.1-0.1c0,0,0.1-0.1,0.2-0.1C96.2,47.5,96.3,47.5,96.4,47.5 M96.7,49
					C96.7,48.9,96.7,48.9,96.7,49c0-0.1-0.1-0.1-0.1-0.1c0,0-0.1,0-0.1,0s-0.1,0-0.1,0h-0.1c0,0-0.1,0-0.1,0c0,0-0.1,0-0.1,0.1
					c0,0,0,0.1,0,0.1c0,0,0,0,0,0.1c0,0,0,0,0.1,0.1c0,0,0.1,0,0.1,0c0,0,0.1,0,0.2,0c0.1,0,0.1,0,0.2,0c0,0,0.1,0,0.1,0
					C96.7,49.1,96.7,49.1,96.7,49C96.7,49,96.7,49,96.7,49 M96.4,48.2c0,0,0.1,0,0.1,0c0,0,0.1,0,0.1,0c0,0,0,0,0-0.1
					c0,0,0-0.1,0-0.1c0-0.1,0-0.1-0.1-0.2c0,0-0.1-0.1-0.2-0.1c-0.1,0-0.1,0-0.2,0.1c0,0-0.1,0.1-0.1,0.2c0,0,0,0.1,0,0.1
					c0,0,0,0.1,0,0.1c0,0,0,0,0.1,0C96.3,48.2,96.4,48.2,96.4,48.2"/>
				<path fill="#FFFFFF" d="M97.8,47.5c0.1,0,0.2,0,0.2,0c0.1,0,0.1,0.1,0.2,0.1c0.1,0.1,0.1,0.1,0.1,0.2c0,0.1,0,0.2,0,0.3
					c0,0,0,0,0,0.1c0,0,0,0,0,0c0,0,0,0,0,0c0,0,0,0,0,0h-0.8c0,0.1,0,0.2,0.1,0.3c0.1,0.1,0.2,0.1,0.3,0.1c0.1,0,0.1,0,0.1,0
					c0,0,0.1,0,0.1,0c0,0,0.1,0,0.1,0c0,0,0,0,0.1,0c0,0,0,0,0,0c0,0,0,0,0,0l0.1,0.1c0,0-0.1,0.1-0.1,0.1c0,0-0.1,0.1-0.1,0.1
					c0,0-0.1,0-0.1,0c-0.1,0-0.1,0-0.1,0c-0.1,0-0.2,0-0.3,0c-0.1,0-0.2-0.1-0.2-0.1c-0.1-0.1-0.1-0.1-0.1-0.2
					c0-0.1-0.1-0.2-0.1-0.3c0-0.1,0-0.2,0-0.3c0-0.1,0.1-0.2,0.1-0.2c0.1-0.1,0.1-0.1,0.2-0.1C97.7,47.6,97.7,47.5,97.8,47.5
					 M97.9,47.8c-0.1,0-0.2,0-0.2,0.1c-0.1,0.1-0.1,0.1-0.1,0.2h0.6c0,0,0-0.1,0-0.1c0,0,0-0.1-0.1-0.1c0,0-0.1-0.1-0.1-0.1
					C97.9,47.8,97.9,47.8,97.9,47.8"/>
			</g>
			<g>
				<path fill="#FFFFFF" d="M90.3,51.2C90.4,51.2,90.4,51.2,90.3,51.2l0.1,0.1c-0.1,0.1-0.1,0.1-0.2,0.1c-0.1,0-0.2,0.1-0.3,0.1
					c-0.1,0-0.2,0-0.3,0c-0.1,0-0.1-0.1-0.2-0.1c-0.1-0.1-0.1-0.1-0.1-0.2c0-0.1,0-0.2,0-0.3c0-0.1,0-0.1,0-0.2c0-0.1,0-0.1,0.1-0.2
					c0,0,0.1-0.1,0.1-0.1c0,0,0.1-0.1,0.1-0.1c0,0,0.1,0,0.2-0.1c0.1,0,0.1,0,0.2,0c0,0,0.1,0,0.1,0c0,0,0.1,0,0.1,0
					c0,0,0.1,0,0.1,0.1c0,0,0.1,0,0.1,0.1l-0.1,0.1c0,0,0,0,0,0c0,0,0,0,0,0c0,0,0,0,0,0c0,0,0,0-0.1,0c0,0,0,0-0.1,0
					c0,0-0.1,0-0.1,0c-0.1,0-0.1,0-0.1,0c0,0-0.1,0-0.1,0.1c0,0-0.1,0.1-0.1,0.1c0,0.1,0,0.1,0,0.2c0,0.1,0,0.1,0,0.2
					c0,0.1,0,0.1,0.1,0.1c0,0,0.1,0.1,0.1,0.1c0,0,0.1,0,0.1,0c0,0,0.1,0,0.1,0c0,0,0,0,0.1,0C90.2,51.3,90.2,51.3,90.3,51.2
					C90.3,51.3,90.3,51.3,90.3,51.2C90.3,51.2,90.3,51.2,90.3,51.2C90.3,51.2,90.3,51.2,90.3,51.2"/>
				<polygon fill="#FFFFFF" points="90.9,50.5 90.9,50.8 91.3,50.8 91.3,51 90.9,51 90.9,51.3 91.4,51.3 91.4,51.5 90.6,51.5 
					90.6,50.3 91.4,50.3 91.4,50.5 				"/>
				<path fill="#FFFFFF" d="M92.8,50.9c0,0.1,0,0.2,0,0.3c0,0.1-0.1,0.1-0.1,0.2c-0.1,0.1-0.1,0.1-0.2,0.1c-0.1,0-0.2,0-0.3,0
					c-0.1,0-0.2,0-0.3,0c-0.1,0-0.1-0.1-0.2-0.1c-0.1-0.1-0.1-0.1-0.1-0.2c0-0.1,0-0.2,0-0.3c0-0.1,0-0.2,0-0.3s0.1-0.1,0.1-0.2
					c0.1-0.1,0.1-0.1,0.2-0.1c0.1,0,0.2,0,0.3,0c0.1,0,0.2,0,0.3,0c0.1,0,0.1,0.1,0.2,0.1c0.1,0.1,0.1,0.1,0.1,0.2
					C92.8,50.7,92.8,50.8,92.8,50.9 M92.6,50.9c0-0.1,0-0.1,0-0.2c0-0.1,0-0.1-0.1-0.1c0,0-0.1-0.1-0.1-0.1c0,0-0.1,0-0.2,0
					c-0.1,0-0.1,0-0.2,0c0,0-0.1,0-0.1,0.1c0,0-0.1,0.1-0.1,0.1c0,0.1,0,0.1,0,0.2c0,0.1,0,0.1,0,0.2c0,0.1,0,0.1,0.1,0.1
					c0,0,0.1,0.1,0.1,0.1c0,0,0.1,0,0.2,0c0.1,0,0.1,0,0.2,0c0,0,0.1,0,0.1-0.1c0,0,0.1-0.1,0.1-0.1C92.6,51,92.6,51,92.6,50.9"/>
			</g>
			<g>
				<rect x="83" y="54" fill="#FFFFFF" width="16" height="1"/>
				<rect x="83" y="56" fill="#FFFFFF" width="16" height="1"/>
				<rect x="83" y="58" fill="#FFFFFF" width="11" height="1"/>
			</g>
		</g>
		<path fill="#FFFFFF" d="M101.5,21.8l1-1c0.1-0.1,0.1-0.3,0-0.4l-0.1-0.1c-0.1-0.1-0.3-0.1-0.4,0l-1,1l-1-1c-0.1-0.1-0.3-0.1-0.4,0
			l-0.1,0.1c-0.1,0.1-0.1,0.3,0,0.4l1,1l-1,1c-0.1,0.1-0.1,0.3,0,0.4l0.1,0.1c0.1,0.1,0.3,0.1,0.4,0l1-1l1,1c0.1,0.1,0.3,0.1,0.4,0
			l0.1-0.1c0.1-0.1,0.1-0.3,0-0.4L101.5,21.8z"/>
	</g>
</g>
<g>
</g>
<g>
</g>
<g>
</g>
<g>
</g>
<g>
</g>
<g>
</g>
</svg>
