<?xml version="1.0" encoding="utf-8"?>
<!-- Generator: Adobe Illustrator 24.3.0, SVG Export Plug-In . SVG Version: 6.00 Build 0)  -->
<svg version="1.1" id="Layer_1" xmlns="http://www.w3.org/2000/svg" xmlns:xlink="http://www.w3.org/1999/xlink" x="0px" y="0px"
	 viewBox="0 0 121 91" enable-background="new 0 0 121 91" xml:space="preserve">
<g>
	<g>
		<rect x="0.5" y="0.5" fill="#F7F8F9" stroke="#D2D2D2" stroke-miterlimit="10" width="120" height="90"/>
		<g>
			<rect x="48" y="19" fill="#BDC5CB" width="26" height="25"/>
			<rect x="78" y="19" fill="#BDC5CB" width="26" height="25"/>
			<rect x="48" y="48" fill="#BDC5CB" width="26" height="25"/>
			<rect x="78" y="48" fill="#BDC5CB" width="26" height="25"/>
		</g>
	</g>
	<g>
		<rect x="18" y="19" fill="#134E5E" width="26" height="54.1"/>
		<g>
			<path fill-rule="evenodd" clip-rule="evenodd" fill="#FFFFFF" d="M31.2,37c-0.3,0.2-0.7,0.5-1,0.8c0.3,1.6,0.7,3.1,1,4.6
				c0.3-1.5,0.6-3,0.9-4.6C31.8,37.6,31.5,37.2,31.2,37 M31.1,35.7c-2,0-3.7-2.1-3.7-4.6c-0.4-0.9-0.1-4.1,2-4.1
				c2.4-1.2,4.1,0.1,5.2,0.9c0.4,0.9,0.7,2.2,0.2,3C34.9,33.6,33.2,35.7,31.1,35.7 M31.1,35.2c-1.8,0-3.2-1.8-3.2-4.1
				c0-0.4,0.1-0.7,0.1-0.9c0.2-0.6,0.8-0.9,1.2-0.5c1.5,1.2,3.2,1.2,4.9,0.9c0.4-0.1,0.4,0.4,0.3,0.8C34.3,33.5,32.9,35.2,31.1,35.2
				 M23.5,44.8c0-1.8,0.1-3.5,0-5.2c0-1.5,0.7-1.8,1.8-2.1l2.8-1c0.2-0.2,0.5-0.5,0.7-0.8c0.8,0.3,1.6,0.7,2.4,1
				c0.8-0.3,1.6-0.7,2.4-1c0.2,0.2,0.4,0.5,0.7,0.8l2.9,1c1.1,0.4,1.7,0.7,1.7,2.1v5.2H23.5z M31.3,43.1c1-2.1,1.9-4.3,2.9-6.4
				c0.2,0.3,0.4,0.7,0.7,1c-0.4,0.4-0.7,0.7-1,1.1c0.2,0.3,0.5,0.6,0.9,0.9C33.5,40.8,32.4,42,31.3,43.1 M31,43.1
				c-0.9-2.1-1.9-4.3-2.8-6.4c-0.2,0.3-0.5,0.7-0.7,1c0.3,0.4,0.7,0.7,1,1.1c-0.3,0.3-0.6,0.6-0.9,0.9C28.7,40.8,29.9,42,31,43.1"/>
			<g>
				<path fill="#FFFFFF" d="M27.5,61.5h-2.8c-0.3,0-0.6,0.3-0.6,0.6v2.8c0,0.3,0.3,0.6,0.6,0.6h1.2v-1.4h-0.5v-0.7h0.5v-0.5
					c0-0.4,0.3-0.7,0.7-0.7h0.7v0.7h-0.7v0.5h0.7l-0.1,0.7h-0.6v1.4h0.9c0.3,0,0.6-0.3,0.6-0.6v-2.8C28,61.8,27.8,61.5,27.5,61.5"/>
				<path fill="#FFFFFF" d="M32.9,61.7c-0.1-0.1-0.3-0.2-0.5-0.2h-2.5c-0.2,0-0.4,0.1-0.5,0.2c-0.1,0.1-0.2,0.3-0.2,0.5v2.5
					c0,0.2,0.1,0.4,0.2,0.5c0.1,0.1,0.3,0.2,0.5,0.2h2.5c0.2,0,0.4-0.1,0.5-0.2c0.1-0.1,0.2-0.3,0.2-0.5v-2.5
					C33.1,62,33,61.9,32.9,61.7 M32.2,63C32.2,63,32.2,63.1,32.2,63c0,0.2,0,0.4-0.1,0.5c0,0.1-0.1,0.3-0.2,0.4
					c-0.1,0.1-0.2,0.2-0.3,0.4c-0.1,0.1-0.3,0.2-0.4,0.2c-0.2,0.1-0.3,0.1-0.5,0.1c-0.3,0-0.6-0.1-0.8-0.2c0,0,0.1,0,0.1,0
					c0.2,0,0.5-0.1,0.7-0.2c-0.1,0-0.2,0-0.3-0.1c-0.1-0.1-0.2-0.2-0.2-0.3c0,0,0.1,0,0.1,0c0,0,0.1,0,0.1,0c-0.1,0-0.2-0.1-0.3-0.2
					c-0.1-0.1-0.1-0.2-0.1-0.3v0c0.1,0,0.2,0.1,0.3,0.1c-0.2-0.1-0.2-0.3-0.2-0.4c0-0.1,0-0.2,0.1-0.3c0.1,0.2,0.3,0.3,0.5,0.4
					c0.2,0.1,0.4,0.2,0.6,0.2c0,0,0-0.1,0-0.1c0-0.1,0.1-0.3,0.2-0.4c0.1-0.1,0.2-0.2,0.4-0.2c0.2,0,0.3,0.1,0.4,0.2
					c0.1,0,0.2-0.1,0.3-0.1c0,0.1-0.1,0.2-0.2,0.3c0.1,0,0.2,0,0.3-0.1C32.4,62.9,32.3,63,32.2,63"/>
				<path fill="#FFFFFF" d="M37.5,61.5h-2.8c-0.3,0-0.6,0.3-0.6,0.6v2.8c0,0.3,0.3,0.6,0.6,0.6h2.8c0.3,0,0.6-0.3,0.6-0.6v-2.8
					C38.1,61.8,37.9,61.5,37.5,61.5 M35.6,64.6h-0.5V63h0.5V64.6z M35.6,62.8h-0.5v-0.5h0.5V62.8z M37.2,64.6h-0.5v-0.9
					c0-0.1-0.1-0.2-0.2-0.2c-0.1,0-0.2,0.1-0.2,0.2v0.9h-0.5V63h0.5v0.1c0.1,0,0.2-0.1,0.3-0.1c0.3,0,0.6,0.3,0.6,0.6V64.6z"/>
			</g>
			<g>
				<path fill="#FFFFFF" d="M25.7,48.9h-0.3c0,0-0.1,0-0.1,0c0,0,0,0,0-0.1l-0.1-0.4h-0.8l-0.1,0.4c0,0,0,0,0,0.1c0,0,0,0-0.1,0
					h-0.3l0.7-1.9h0.4L25.7,48.9z M24.4,48.2h0.6l-0.2-0.6c0,0,0-0.1,0-0.1c0,0,0-0.1,0-0.1c0,0,0,0.1,0,0.1c0,0,0,0.1,0,0.1
					L24.4,48.2z"/>
				<path fill="#FFFFFF" d="M26.9,48.9h-0.1c0,0-0.1,0-0.1,0c0,0,0,0,0-0.1l0-0.1c0,0-0.1,0.1-0.1,0.1c0,0-0.1,0-0.1,0.1
					c0,0-0.1,0-0.1,0c0,0-0.1,0-0.1,0c-0.1,0-0.1,0-0.2,0c0,0-0.1,0-0.1-0.1c0,0-0.1-0.1-0.1-0.1c0,0,0-0.1,0-0.2c0-0.1,0-0.1,0-0.2
					c0,0,0.1-0.1,0.1-0.1c0.1,0,0.1-0.1,0.2-0.1s0.2,0,0.4,0v-0.1c0-0.1,0-0.2-0.1-0.2c0,0-0.1-0.1-0.2-0.1c-0.1,0-0.1,0-0.1,0
					c0,0-0.1,0-0.1,0c0,0,0,0-0.1,0c0,0,0,0-0.1,0c0,0,0,0-0.1,0c0,0,0,0,0,0l-0.1-0.1c0.2-0.1,0.3-0.2,0.6-0.2c0.1,0,0.1,0,0.2,0
					c0.1,0,0.1,0.1,0.2,0.1c0,0,0.1,0.1,0.1,0.2c0,0.1,0,0.1,0,0.2V48.9z M26.3,48.7C26.3,48.7,26.3,48.7,26.3,48.7
					c0.1,0,0.1,0,0.2,0c0,0,0,0,0.1,0c0,0,0,0,0.1-0.1v-0.2c-0.1,0-0.2,0-0.2,0c-0.1,0-0.1,0-0.2,0c0,0-0.1,0-0.1,0.1
					c0,0,0,0.1,0,0.1c0,0.1,0,0.1,0.1,0.1C26.2,48.7,26.2,48.7,26.3,48.7"/>
				<path fill="#FFFFFF" d="M27.2,48.9v-1.3h0.2c0,0,0.1,0,0.1,0c0,0,0,0,0,0.1l0,0.2c0-0.1,0.1-0.1,0.2-0.2c0.1,0,0.1-0.1,0.2-0.1
					c0.1,0,0.1,0,0.2,0l0,0.2c0,0,0,0,0,0c0,0,0,0,0,0c0,0,0,0-0.1,0c0,0-0.1,0-0.1,0c-0.1,0-0.1,0-0.2,0.1c0,0-0.1,0.1-0.1,0.2v0.8
					H27.2z"/>
				<path fill="#FFFFFF" d="M28.9,47.5c0.1,0,0.2,0,0.3,0c0.1,0,0.2,0.1,0.2,0.1c0.1,0.1,0.1,0.1,0.1,0.2c0,0.1,0,0.2,0,0.3
					c0,0.1,0,0.2,0,0.3c0,0.1-0.1,0.2-0.1,0.2c-0.1,0.1-0.1,0.1-0.2,0.1c-0.1,0-0.2,0-0.3,0c-0.1,0-0.2,0-0.3,0
					c-0.1,0-0.2-0.1-0.2-0.1c-0.1-0.1-0.1-0.1-0.1-0.2c0-0.1,0-0.2,0-0.3c0-0.1,0-0.2,0-0.3c0-0.1,0.1-0.2,0.1-0.2
					c0.1-0.1,0.1-0.1,0.2-0.1C28.7,47.6,28.8,47.5,28.9,47.5 M28.9,48.7c0.1,0,0.2,0,0.2-0.1c0.1-0.1,0.1-0.2,0.1-0.3
					c0-0.1,0-0.3-0.1-0.3c-0.1-0.1-0.1-0.1-0.2-0.1c-0.1,0-0.2,0-0.3,0.1c-0.1,0.1-0.1,0.2-0.1,0.3c0,0.1,0,0.3,0.1,0.3
					C28.7,48.6,28.8,48.7,28.9,48.7"/>
				<path fill="#FFFFFF" d="M29.8,48.9v-1.3H30c0,0,0.1,0,0.1,0.1l0,0.1c0,0,0.1-0.1,0.1-0.1c0,0,0.1,0,0.1-0.1c0,0,0.1,0,0.1,0
					c0,0,0.1,0,0.1,0c0.1,0,0.1,0,0.2,0c0.1,0,0.1,0.1,0.1,0.1c0,0,0.1,0.1,0.1,0.2c0,0.1,0,0.1,0,0.2v0.9h-0.3v-0.9
					c0-0.1,0-0.1-0.1-0.2c0,0-0.1-0.1-0.2-0.1c-0.1,0-0.1,0-0.2,0c0,0-0.1,0.1-0.1,0.1v1H29.8z"/>
				<path fill="#FFFFFF" d="M32.6,48.2c0,0.1,0,0.2,0,0.3c0,0.1-0.1,0.2-0.1,0.2c-0.1,0.1-0.1,0.1-0.2,0.1c-0.1,0-0.2,0-0.3,0
					c0,0-0.1,0-0.1,0c0,0-0.1,0-0.1,0l0-0.2c0,0,0,0,0,0c0,0,0,0,0.1,0c0,0,0,0,0.1,0c0,0,0.1,0,0.1,0c0.1,0,0.1,0,0.1,0
					c0,0,0.1,0,0.1-0.1c0,0,0-0.1,0.1-0.1c0-0.1,0-0.1,0-0.2V47h0.4V48.2z"/>
				<path fill="#FFFFFF" d="M33.2,47.6v0.9c0,0.1,0,0.1,0.1,0.2c0,0,0.1,0.1,0.2,0.1c0.1,0,0.1,0,0.2,0c0,0,0.1-0.1,0.1-0.1v-1h0.3
					v1.3h-0.2c0,0-0.1,0-0.1-0.1l0-0.1c0,0-0.1,0.1-0.1,0.1c0,0-0.1,0-0.1,0.1c0,0-0.1,0-0.1,0c0,0-0.1,0-0.1,0c-0.1,0-0.1,0-0.2,0
					c-0.1,0-0.1-0.1-0.1-0.1c0,0-0.1-0.1-0.1-0.2c0-0.1,0-0.1,0-0.2v-0.9H33.2z"/>
				<path fill="#FFFFFF" d="M35.4,48.9C35.3,48.9,35.3,48.9,35.4,48.9l-0.1-0.2c0,0-0.1,0.1-0.1,0.1c0,0-0.1,0-0.1,0.1
					c0,0-0.1,0-0.1,0c0,0-0.1,0-0.1,0c-0.1,0-0.1,0-0.2,0c-0.1,0-0.1-0.1-0.2-0.1c0-0.1-0.1-0.1-0.1-0.2c0-0.1,0-0.2,0-0.3
					c0-0.1,0-0.2,0-0.3c0-0.1,0.1-0.2,0.1-0.2c0.1-0.1,0.1-0.1,0.2-0.1c0.1,0,0.2-0.1,0.2-0.1c0.1,0,0.1,0,0.2,0
					c0.1,0,0.1,0.1,0.1,0.1V47h0.3v2H35.4z M34.9,48.7c0.1,0,0.1,0,0.2,0c0,0,0.1-0.1,0.1-0.1v-0.6c0,0-0.1-0.1-0.1-0.1
					c0,0-0.1,0-0.1,0c0,0-0.1,0-0.1,0c0,0-0.1,0-0.1,0.1c0,0,0,0.1-0.1,0.1c0,0.1,0,0.1,0,0.2c0,0.1,0,0.1,0,0.2
					c0,0.1,0,0.1,0.1,0.1c0,0,0.1,0.1,0.1,0.1C34.9,48.7,34.9,48.7,34.9,48.7"/>
				<path fill="#FFFFFF" d="M36.4,47.5c0.1,0,0.1,0,0.2,0c0.1,0,0.1,0,0.1,0.1h0.4v0.1c0,0,0,0,0,0c0,0,0,0-0.1,0l-0.1,0
					c0,0,0,0,0,0.1c0,0,0,0.1,0,0.1c0,0.1,0,0.1,0,0.2c0,0.1-0.1,0.1-0.1,0.1c0,0-0.1,0.1-0.2,0.1c-0.1,0-0.1,0-0.2,0
					c-0.1,0-0.1,0-0.1,0c0,0-0.1,0.1-0.1,0.1c0,0,0,0,0,0.1c0,0,0.1,0,0.1,0c0,0,0.1,0,0.1,0c0.1,0,0.1,0,0.2,0c0.1,0,0.1,0,0.2,0
					c0.1,0,0.1,0,0.1,0.1c0,0,0.1,0.1,0.1,0.1c0,0,0,0.1,0,0.2c0,0.1,0,0.1,0,0.2c0,0.1-0.1,0.1-0.1,0.2c-0.1,0-0.1,0.1-0.2,0.1
					c-0.1,0-0.2,0-0.3,0c-0.1,0-0.2,0-0.3,0c-0.1,0-0.1,0-0.2-0.1c0,0-0.1-0.1-0.1-0.1c0,0,0-0.1,0-0.1c0-0.1,0-0.1,0.1-0.2
					c0,0,0.1-0.1,0.2-0.1c0,0-0.1,0-0.1-0.1c0,0,0-0.1,0-0.1c0,0,0,0,0-0.1c0,0,0,0,0-0.1c0,0,0,0,0.1-0.1c0,0,0,0,0.1-0.1
					c-0.1,0-0.1-0.1-0.2-0.1c0-0.1-0.1-0.1-0.1-0.2c0-0.1,0-0.1,0-0.2c0-0.1,0.1-0.1,0.1-0.1c0,0,0.1-0.1,0.2-0.1
					C36.2,47.5,36.3,47.5,36.4,47.5 M36.7,49C36.7,48.9,36.7,48.9,36.7,49c0-0.1-0.1-0.1-0.1-0.1c0,0-0.1,0-0.1,0c0,0-0.1,0-0.1,0
					h-0.1c0,0-0.1,0-0.1,0c0,0-0.1,0-0.1,0.1c0,0,0,0.1,0,0.1c0,0,0,0,0,0.1c0,0,0,0,0.1,0.1c0,0,0.1,0,0.1,0c0,0,0.1,0,0.2,0
					c0.1,0,0.1,0,0.2,0c0,0,0.1,0,0.1,0C36.7,49.1,36.7,49.1,36.7,49C36.7,49,36.7,49,36.7,49 M36.4,48.2c0,0,0.1,0,0.1,0
					c0,0,0.1,0,0.1,0c0,0,0,0,0-0.1c0,0,0-0.1,0-0.1c0-0.1,0-0.1-0.1-0.2c0,0-0.1-0.1-0.2-0.1c-0.1,0-0.1,0-0.2,0.1
					c0,0-0.1,0.1-0.1,0.2c0,0,0,0.1,0,0.1c0,0,0,0.1,0,0.1c0,0,0,0,0.1,0C36.3,48.2,36.4,48.2,36.4,48.2"/>
				<path fill="#FFFFFF" d="M37.8,47.5c0.1,0,0.2,0,0.2,0c0.1,0,0.1,0.1,0.2,0.1c0.1,0.1,0.1,0.1,0.1,0.2c0,0.1,0,0.2,0,0.3
					c0,0,0,0,0,0.1c0,0,0,0,0,0c0,0,0,0,0,0c0,0,0,0,0,0h-0.8c0,0.1,0,0.2,0.1,0.3c0.1,0.1,0.2,0.1,0.3,0.1c0.1,0,0.1,0,0.1,0
					c0,0,0.1,0,0.1,0c0,0,0.1,0,0.1,0c0,0,0,0,0.1,0c0,0,0,0,0,0c0,0,0,0,0,0l0.1,0.1c0,0-0.1,0.1-0.1,0.1c0,0-0.1,0.1-0.1,0.1
					c0,0-0.1,0-0.1,0c-0.1,0-0.1,0-0.1,0c-0.1,0-0.2,0-0.3,0c-0.1,0-0.2-0.1-0.2-0.1c-0.1-0.1-0.1-0.1-0.1-0.2
					c0-0.1-0.1-0.2-0.1-0.3c0-0.1,0-0.2,0-0.3c0-0.1,0.1-0.2,0.1-0.2c0.1-0.1,0.1-0.1,0.2-0.1C37.7,47.6,37.7,47.5,37.8,47.5
					 M37.9,47.8c-0.1,0-0.2,0-0.2,0.1c-0.1,0.1-0.1,0.1-0.1,0.2h0.6c0,0,0-0.1,0-0.1c0,0,0-0.1-0.1-0.1c0,0-0.1-0.1-0.1-0.1
					C37.9,47.8,37.9,47.8,37.9,47.8"/>
			</g>
			<g>
				<path fill="#FFFFFF" d="M30.3,51.2C30.4,51.2,30.4,51.2,30.3,51.2l0.1,0.1c-0.1,0.1-0.1,0.1-0.2,0.1c-0.1,0-0.2,0.1-0.3,0.1
					c-0.1,0-0.2,0-0.3,0c-0.1,0-0.1-0.1-0.2-0.1c-0.1-0.1-0.1-0.1-0.1-0.2c0-0.1,0-0.2,0-0.3c0-0.1,0-0.1,0-0.2c0-0.1,0-0.1,0.1-0.2
					c0,0,0.1-0.1,0.1-0.1c0,0,0.1-0.1,0.1-0.1c0,0,0.1,0,0.2-0.1c0.1,0,0.1,0,0.2,0c0,0,0.1,0,0.1,0c0,0,0.1,0,0.1,0
					c0,0,0.1,0,0.1,0.1c0,0,0.1,0,0.1,0.1l-0.1,0.1c0,0,0,0,0,0c0,0,0,0,0,0c0,0,0,0,0,0c0,0,0,0-0.1,0c0,0,0,0-0.1,0
					c0,0-0.1,0-0.1,0c-0.1,0-0.1,0-0.1,0c0,0-0.1,0-0.1,0.1c0,0-0.1,0.1-0.1,0.1c0,0.1,0,0.1,0,0.2c0,0.1,0,0.1,0,0.2
					c0,0.1,0,0.1,0.1,0.1c0,0,0.1,0.1,0.1,0.1c0,0,0.1,0,0.1,0c0,0,0.1,0,0.1,0c0,0,0,0,0.1,0C30.2,51.3,30.2,51.3,30.3,51.2
					C30.3,51.3,30.3,51.3,30.3,51.2C30.3,51.2,30.3,51.2,30.3,51.2C30.3,51.2,30.3,51.2,30.3,51.2"/>
				<polygon fill="#FFFFFF" points="30.9,50.5 30.9,50.8 31.3,50.8 31.3,51 30.9,51 30.9,51.3 31.4,51.3 31.4,51.5 30.6,51.5 
					30.6,50.3 31.4,50.3 31.4,50.5 				"/>
				<path fill="#FFFFFF" d="M32.8,50.9c0,0.1,0,0.2,0,0.3c0,0.1-0.1,0.1-0.1,0.2c-0.1,0.1-0.1,0.1-0.2,0.1c-0.1,0-0.2,0-0.3,0
					c-0.1,0-0.2,0-0.3,0c-0.1,0-0.1-0.1-0.2-0.1c-0.1-0.1-0.1-0.1-0.1-0.2c0-0.1,0-0.2,0-0.3c0-0.1,0-0.2,0-0.3
					c0-0.1,0.1-0.1,0.1-0.2c0.1-0.1,0.1-0.1,0.2-0.1c0.1,0,0.2,0,0.3,0c0.1,0,0.2,0,0.3,0c0.1,0,0.1,0.1,0.2,0.1
					c0.1,0.1,0.1,0.1,0.1,0.2C32.8,50.7,32.8,50.8,32.8,50.9 M32.6,50.9c0-0.1,0-0.1,0-0.2c0-0.1,0-0.1-0.1-0.1c0,0-0.1-0.1-0.1-0.1
					c0,0-0.1,0-0.2,0c-0.1,0-0.1,0-0.2,0c0,0-0.1,0-0.1,0.1c0,0-0.1,0.1-0.1,0.1c0,0.1,0,0.1,0,0.2c0,0.1,0,0.1,0,0.2
					c0,0.1,0,0.1,0.1,0.1c0,0,0.1,0.1,0.1,0.1c0,0,0.1,0,0.2,0c0.1,0,0.1,0,0.2,0c0,0,0.1,0,0.1-0.1c0,0,0.1-0.1,0.1-0.1
					C32.6,51,32.6,51,32.6,50.9"/>
			</g>
			<g>
				<rect x="23" y="54" fill="#FFFFFF" width="16" height="1"/>
				<rect x="23" y="56" fill="#FFFFFF" width="16" height="1"/>
				<rect x="23" y="58" fill="#FFFFFF" width="11" height="1"/>
			</g>
		</g>
		<path fill="#FFFFFF" d="M41.5,21.8l1-1c0.1-0.1,0.1-0.3,0-0.4l-0.1-0.1c-0.1-0.1-0.3-0.1-0.4,0l-1,1l-1-1c-0.1-0.1-0.3-0.1-0.4,0
			l-0.1,0.1c-0.1,0.1-0.1,0.3,0,0.4l1,1l-1,1c-0.1,0.1-0.1,0.3,0,0.4l0.1,0.1c0.1,0.1,0.3,0.1,0.4,0l1-1l1,1c0.1,0.1,0.3,0.1,0.4,0
			l0.1-0.1c0.1-0.1,0.1-0.3,0-0.4L41.5,21.8z"/>
	</g>
</g>
<g>
</g>
<g>
</g>
<g>
</g>
<g>
</g>
<g>
</g>
<g>
</g>
</svg>
