<?xml version="1.0" encoding="utf-8"?>
<!-- Generator: Adobe Illustrator 24.3.0, SVG Export Plug-In . SVG Version: 6.00 Build 0)  -->
<svg version="1.1" id="Layer_1" xmlns="http://www.w3.org/2000/svg" xmlns:xlink="http://www.w3.org/1999/xlink" x="0px" y="0px"
	 viewBox="0 0 151 91" enable-background="new 0 0 151 91" xml:space="preserve">
<g>
	<rect x="0.5" y="0.5" fill="#F7F8F9" stroke="#D2D2D2" stroke-miterlimit="10" width="150" height="90"/>
	<g>
		<rect x="24" y="46" fill="#DADEE2" width="26" height="25"/>
		<g>
			<rect x="50" y="46" fill="#BDC5CB" width="26" height="25"/>
			<rect x="102" y="46" fill="#BDC5CB" width="26" height="25"/>
			<rect x="50" y="21" fill="#DADEE2" width="26" height="25"/>
			<rect x="24" y="21" fill="#BDC5CB" width="26" height="25"/>
			<rect x="76" y="21" fill="#BDC5CB" width="26" height="25"/>
			<rect x="102" y="21" fill="#DADEE2" width="26" height="25"/>
			<rect x="76" y="46" fill="#DADEE2" width="26" height="25"/>
			<polygon fill="#BDC5CB" points="55,33.5 50,37 50,30 			"/>
			<polygon fill="#BDC5CB" points="107,33.5 102,37 102,30 			"/>
			<polygon fill="#BDC5CB" points="45,58.5 50,55 50,62 			"/>
			<polygon fill="#BDC5CB" points="97,58.5 102,55 102,62 			"/>
		</g>
	</g>
	<polygon fill="#BDC5CB" points="107,56.2 102,59.7 102,52.7 	"/>
</g>
<g>
</g>
<g>
</g>
<g>
</g>
<g>
</g>
<g>
</g>
<g>
</g>
</svg>
