<?xml version="1.0" encoding="utf-8"?>
<!-- Generator: Adobe Illustrator 24.3.0, SVG Export Plug-In . SVG Version: 6.00 Build 0)  -->
<svg version="1.1" id="Layer_1" xmlns="http://www.w3.org/2000/svg" xmlns:xlink="http://www.w3.org/1999/xlink" x="0px" y="0px"
	 viewBox="0 0 90.6 90.6" enable-background="new 0 0 90.6 90.6" xml:space="preserve">
<g>
	<g>
		<g>
			<rect x="0.3" y="0.3" fill="#F2F2F2" stroke="#E2E2E2" stroke-width="0.5616" stroke-miterlimit="10" width="90" height="90"/>
		</g>
		<g>
			<path fill-rule="evenodd" clip-rule="evenodd" fill="#666666" d="M24,47.5c-0.5,0.4-1.2,1-1.7,1.4c0.5,2.7,1.2,5.4,1.7,8
				c0.5-2.6,1.1-5.3,1.6-8C25,48.5,24.5,47.9,24,47.5z M23.9,45.3c-3.5,0-6.5-3.6-6.5-7.9c-0.6-1.6-0.2-7.2,3.5-7.1
				c4.1-2.1,7.1,0.2,9.1,1.6c0.7,1.5,1.2,3.8,0.3,5.2C30.4,41.6,27.6,45.3,23.9,45.3z M23.9,44.4c-3.1,0-5.6-3.2-5.6-7.1
				c0-0.6,0.1-1.2,0.1-1.6c0.4-1.1,1.4-1.6,2.1-1c2.5,2.1,5.6,2,8.5,1.6c0.7-0.1,0.6,0.7,0.5,1.4C29.4,41.4,27,44.4,23.9,44.4z
				 M10.7,61.1c0-3.1,0.1-6.1,0-9.1c0-2.5,1.2-3.1,3.1-3.7l4.9-1.8c0.4-0.4,0.8-1,1.2-1.4c1.4,0.5,2.9,1.2,4.2,1.7
				c1.4-0.5,2.7-1.2,4.1-1.7c0.4,0.4,0.7,1,1.2,1.4l5,1.8c1.9,0.6,3,1.2,3,3.7c0,3,0,6,0,9.1C28.3,61.1,19.5,61.1,10.7,61.1z
				 M24.2,58.2c1.7-3.7,3.3-7.4,5-11.1c0.3,0.5,0.7,1.2,1.2,1.7c-0.6,0.6-1.3,1.3-1.8,1.9c0.4,0.5,1,1.1,1.5,1.6
				C28.1,54.2,26.2,56.2,24.2,58.2z M23.7,58.2c-1.6-3.7-3.3-7.4-4.9-11.1c-0.4,0.5-0.8,1.2-1.2,1.7c0.5,0.6,1.2,1.3,1.8,1.9
				c-0.5,0.5-1.1,1.1-1.6,1.6C19.8,54.2,21.8,56.2,23.7,58.2z"/>
		</g>
	</g>
	<g>
		<g>
			<g>
				<path fill="#999999" d="M51.7,48.2h-5.9c-0.7,0-1.2,0.6-1.2,1.2v5.9c0,0.7,0.6,1.2,1.2,1.2h2.5v-3h-1v-1.5h1v-1
					c0-0.8,0.7-1.5,1.5-1.5h1.5v1.5h-1.5v1h1.5L51,53.6h-1.2v3h2c0.7,0,1.2-0.6,1.2-1.2v-5.9C52.9,48.7,52.4,48.2,51.7,48.2z"/>
				<g>
					<path fill="#999999" d="M63.3,48.6c-0.3-0.3-0.7-0.5-1.1-0.5h-5.3c-0.4,0-0.8,0.2-1.1,0.5c-0.3,0.3-0.5,0.7-0.5,1.1V55
						c0,0.4,0.2,0.8,0.5,1.1c0.3,0.3,0.7,0.5,1.1,0.5h5.3c0.4,0,0.8-0.2,1.1-0.5c0.3-0.3,0.5-0.7,0.5-1.1v-5.3
						C63.8,49.3,63.6,48.9,63.3,48.6z M61.8,51.4c0,0,0,0.1,0,0.1c0,0.3,0,0.6-0.1,0.9c-0.1,0.3-0.2,0.6-0.4,0.9
						c-0.2,0.3-0.4,0.5-0.7,0.8c-0.3,0.2-0.6,0.4-0.9,0.5c-0.4,0.1-0.7,0.2-1.2,0.2c-0.6,0-1.2-0.2-1.8-0.5c0.1,0,0.2,0,0.3,0
						c0.5,0,1-0.2,1.4-0.5c-0.3,0-0.5-0.1-0.7-0.2c-0.2-0.2-0.3-0.3-0.4-0.6c0.1,0,0.2,0,0.2,0c0.1,0,0.2,0,0.3,0
						c-0.3-0.1-0.5-0.2-0.7-0.4c-0.2-0.2-0.3-0.5-0.3-0.7v0c0.2,0.1,0.4,0.1,0.6,0.1c-0.3-0.2-0.5-0.5-0.5-1c0-0.2,0.1-0.4,0.2-0.6
						c0.3,0.4,0.6,0.6,1.1,0.9c0.4,0.2,0.9,0.3,1.3,0.4c0-0.1,0-0.2,0-0.3c0-0.3,0.1-0.6,0.3-0.8c0.2-0.2,0.5-0.3,0.8-0.3
						c0.3,0,0.6,0.1,0.8,0.4c0.3,0,0.5-0.1,0.7-0.3c-0.1,0.3-0.3,0.5-0.5,0.6c0.2,0,0.5-0.1,0.7-0.2C62.2,51,62,51.2,61.8,51.4z"/>
				</g>
				<path fill="#999999" d="M73.3,48.1h-6c-0.7,0-1.2,0.6-1.2,1.2v6c0,0.7,0.6,1.2,1.2,1.2h6c0.7,0,1.2-0.6,1.2-1.2v-6
					C74.6,48.7,74,48.1,73.3,48.1z M69.1,54.8h-1v-3.5h1V54.8z M69.1,50.9h-1v-1h1V50.9z M72.6,54.8h-1v-2c0-0.3-0.2-0.5-0.5-0.5
					s-0.5,0.2-0.5,0.5v2h-1v-3.5h1v0.2c0.3-0.1,0.4-0.2,0.7-0.2c0.7,0,1.2,0.6,1.2,1.3V54.8z"/>
			</g>
			<g>
				<path fill="#444444" d="M48.9,38.5h-0.6c-0.1,0-0.1,0-0.2-0.1c0,0-0.1-0.1-0.1-0.1l-0.3-0.9h-1.8l-0.3,0.9c0,0,0,0.1-0.1,0.1
					c0,0-0.1,0.1-0.2,0.1h-0.6l1.7-4.5h0.8L48.9,38.5z M46,36.9h1.4l-0.5-1.5c0-0.1-0.1-0.1-0.1-0.2c0-0.1-0.1-0.2-0.1-0.3
					c0,0.1-0.1,0.2-0.1,0.3c0,0.1-0.1,0.2-0.1,0.2L46,36.9z"/>
				<path fill="#444444" d="M51.8,38.5h-0.3c-0.1,0-0.1,0-0.2,0c0,0-0.1-0.1-0.1-0.1l-0.1-0.2c-0.1,0.1-0.2,0.1-0.2,0.2
					c-0.1,0.1-0.2,0.1-0.2,0.1c-0.1,0-0.2,0.1-0.3,0.1c-0.1,0-0.2,0-0.3,0c-0.1,0-0.3,0-0.4-0.1c-0.1,0-0.2-0.1-0.3-0.2
					c-0.1-0.1-0.1-0.2-0.2-0.3c0-0.1-0.1-0.2-0.1-0.4c0-0.1,0-0.2,0.1-0.4c0.1-0.1,0.2-0.2,0.3-0.3s0.3-0.2,0.6-0.2
					c0.2-0.1,0.5-0.1,0.9-0.1v-0.2c0-0.2,0-0.4-0.1-0.5c-0.1-0.1-0.2-0.2-0.4-0.2c-0.1,0-0.2,0-0.3,0c-0.1,0-0.2,0.1-0.2,0.1
					c-0.1,0-0.1,0.1-0.2,0.1c-0.1,0-0.1,0-0.2,0c-0.1,0-0.1,0-0.1,0c0,0-0.1-0.1-0.1-0.1l-0.1-0.2c0.4-0.3,0.8-0.5,1.3-0.5
					c0.2,0,0.3,0,0.5,0.1c0.1,0.1,0.3,0.1,0.4,0.3s0.2,0.2,0.2,0.4c0.1,0.1,0.1,0.3,0.1,0.5V38.5z M50.3,38.1c0.1,0,0.1,0,0.2,0
					c0.1,0,0.1,0,0.2-0.1c0.1,0,0.1-0.1,0.2-0.1c0.1,0,0.1-0.1,0.2-0.1v-0.5c-0.2,0-0.4,0-0.6,0c-0.1,0-0.3,0.1-0.4,0.1
					c-0.1,0-0.2,0.1-0.2,0.2c0,0.1-0.1,0.1-0.1,0.2c0,0.1,0,0.2,0.1,0.3C50.1,38,50.2,38.1,50.3,38.1z"/>
				<path fill="#444444" d="M52.5,38.5v-3.2H53c0.1,0,0.1,0,0.2,0c0,0,0.1,0.1,0.1,0.1l0,0.4c0.1-0.2,0.2-0.3,0.4-0.5
					c0.2-0.1,0.3-0.2,0.5-0.2c0.2,0,0.3,0,0.4,0.1L54.4,36c0,0,0,0.1,0,0.1c0,0,0,0-0.1,0c0,0-0.1,0-0.1,0c-0.1,0-0.1,0-0.2,0
					c-0.2,0-0.3,0-0.4,0.1c-0.1,0.1-0.2,0.2-0.3,0.4v2H52.5z"/>
				<path fill="#444444" d="M56.4,35.3c0.2,0,0.4,0,0.6,0.1c0.2,0.1,0.4,0.2,0.5,0.3c0.1,0.1,0.2,0.3,0.3,0.5
					c0.1,0.2,0.1,0.4,0.1,0.7c0,0.3,0,0.5-0.1,0.7c-0.1,0.2-0.2,0.4-0.3,0.5c-0.1,0.1-0.3,0.3-0.5,0.3c-0.2,0.1-0.4,0.1-0.6,0.1
					c-0.2,0-0.5,0-0.6-0.1c-0.2-0.1-0.4-0.2-0.5-0.3c-0.1-0.1-0.2-0.3-0.3-0.5c-0.1-0.2-0.1-0.4-0.1-0.7c0-0.2,0-0.5,0.1-0.7
					c0.1-0.2,0.2-0.4,0.3-0.5c0.1-0.1,0.3-0.2,0.5-0.3C55.9,35.4,56.2,35.3,56.4,35.3z M56.4,38c0.3,0,0.5-0.1,0.6-0.3
					c0.1-0.2,0.2-0.4,0.2-0.8c0-0.3-0.1-0.6-0.2-0.8c-0.1-0.2-0.3-0.3-0.6-0.3c-0.3,0-0.5,0.1-0.6,0.3c-0.1,0.2-0.2,0.4-0.2,0.8
					c0,0.3,0.1,0.6,0.2,0.8C55.9,37.9,56.1,38,56.4,38z"/>
				<path fill="#444444" d="M58.5,38.5v-3.2H59c0.1,0,0.2,0,0.2,0.1l0.1,0.2c0.1-0.1,0.1-0.1,0.2-0.2c0.1-0.1,0.1-0.1,0.2-0.1
					c0.1,0,0.2-0.1,0.3-0.1c0.1,0,0.2,0,0.3,0c0.2,0,0.3,0,0.5,0.1c0.1,0.1,0.2,0.1,0.3,0.2c0.1,0.1,0.2,0.2,0.2,0.4
					c0,0.1,0.1,0.3,0.1,0.5v2h-0.8v-2c0-0.2,0-0.3-0.1-0.4c-0.1-0.1-0.2-0.2-0.4-0.2c-0.1,0-0.3,0-0.4,0.1c-0.1,0.1-0.2,0.1-0.3,0.2
					v2.3H58.5z"/>
				<path fill="#444444" d="M65.1,37c0,0.3,0,0.5-0.1,0.7c-0.1,0.2-0.2,0.4-0.3,0.5c-0.1,0.1-0.3,0.3-0.5,0.3
					c-0.2,0.1-0.4,0.1-0.6,0.1c-0.1,0-0.2,0-0.3,0c-0.1,0-0.2,0-0.3-0.1l0-0.5c0,0,0-0.1,0.1-0.1c0,0,0.1,0,0.1,0c0,0,0.1,0,0.1,0
					s0.1,0,0.2,0c0.1,0,0.2,0,0.3-0.1c0.1,0,0.2-0.1,0.2-0.2c0.1-0.1,0.1-0.2,0.1-0.3c0-0.1,0-0.3,0-0.4v-2.9h0.8V37z"/>
				<path fill="#444444" d="M66.6,35.4v2c0,0.2,0,0.3,0.1,0.4c0.1,0.1,0.2,0.2,0.4,0.2c0.1,0,0.3,0,0.4-0.1c0.1-0.1,0.2-0.1,0.3-0.2
					v-2.3h0.8v3.2h-0.5c-0.1,0-0.2,0-0.2-0.1l-0.1-0.3c-0.1,0.1-0.1,0.1-0.2,0.2c-0.1,0.1-0.1,0.1-0.2,0.1c-0.1,0-0.2,0.1-0.3,0.1
					c-0.1,0-0.2,0-0.3,0c-0.2,0-0.3,0-0.5-0.1c-0.1-0.1-0.2-0.1-0.3-0.2c-0.1-0.1-0.2-0.2-0.2-0.4c0-0.1-0.1-0.3-0.1-0.5v-2H66.6z"
					/>
				<path fill="#444444" d="M71.7,38.5c-0.1,0-0.2,0-0.2-0.1l-0.1-0.3c-0.1,0.1-0.1,0.1-0.2,0.2c-0.1,0.1-0.1,0.1-0.2,0.2
					c-0.1,0-0.2,0.1-0.3,0.1c-0.1,0-0.2,0-0.3,0c-0.2,0-0.3,0-0.5-0.1c-0.1-0.1-0.3-0.2-0.4-0.3c-0.1-0.1-0.2-0.3-0.2-0.5
					c-0.1-0.2-0.1-0.4-0.1-0.7c0-0.2,0-0.5,0.1-0.7c0.1-0.2,0.2-0.4,0.3-0.5c0.1-0.1,0.3-0.3,0.4-0.3c0.2-0.1,0.4-0.1,0.6-0.1
					c0.2,0,0.3,0,0.5,0.1c0.1,0.1,0.2,0.1,0.3,0.2V34h0.8v4.6H71.7z M70.6,38c0.2,0,0.3,0,0.4-0.1c0.1-0.1,0.2-0.2,0.3-0.3v-1.4
					c-0.1-0.1-0.2-0.2-0.3-0.2c-0.1,0-0.2-0.1-0.3-0.1c-0.1,0-0.2,0-0.3,0.1c-0.1,0-0.2,0.1-0.2,0.2c-0.1,0.1-0.1,0.2-0.1,0.3
					c0,0.1-0.1,0.3-0.1,0.5c0,0.2,0,0.3,0,0.5c0,0.1,0.1,0.2,0.1,0.3c0.1,0.1,0.1,0.1,0.2,0.2C70.5,38,70.5,38,70.6,38z"/>
				<path fill="#444444" d="M74,35.3c0.1,0,0.3,0,0.4,0c0.1,0,0.2,0.1,0.3,0.1h0.9v0.3c0,0,0,0.1,0,0.1c0,0-0.1,0-0.1,0.1L75.2,36
					c0,0.1,0,0.1,0,0.2c0,0.1,0,0.1,0,0.2c0,0.2,0,0.3-0.1,0.4c-0.1,0.1-0.1,0.2-0.3,0.3s-0.2,0.2-0.4,0.2c-0.2,0-0.3,0.1-0.5,0.1
					c-0.1,0-0.2,0-0.3,0c-0.1,0.1-0.1,0.1-0.1,0.2c0,0.1,0,0.1,0.1,0.1c0.1,0,0.1,0.1,0.2,0.1s0.2,0,0.3,0s0.2,0,0.4,0
					c0.1,0,0.3,0,0.4,0.1c0.1,0,0.2,0.1,0.3,0.1c0.1,0.1,0.2,0.1,0.2,0.2c0.1,0.1,0.1,0.2,0.1,0.4c0,0.1,0,0.3-0.1,0.4
					c-0.1,0.1-0.2,0.2-0.3,0.4c-0.1,0.1-0.3,0.2-0.5,0.2c-0.2,0.1-0.4,0.1-0.6,0.1c-0.2,0-0.4,0-0.6-0.1c-0.2,0-0.3-0.1-0.4-0.2
					c-0.1-0.1-0.2-0.2-0.3-0.3c-0.1-0.1-0.1-0.2-0.1-0.3c0-0.1,0-0.3,0.1-0.4c0.1-0.1,0.2-0.2,0.4-0.2c-0.1,0-0.1-0.1-0.2-0.2
					c0-0.1-0.1-0.2-0.1-0.3c0,0,0-0.1,0-0.1c0,0,0-0.1,0.1-0.1c0,0,0.1-0.1,0.1-0.1c0.1,0,0.1-0.1,0.2-0.1c-0.2-0.1-0.3-0.2-0.4-0.3
					c-0.1-0.1-0.1-0.3-0.1-0.5c0-0.2,0-0.3,0.1-0.4c0.1-0.1,0.1-0.2,0.3-0.3c0.1-0.1,0.2-0.2,0.4-0.2C73.7,35.4,73.9,35.3,74,35.3z
					 M74.9,38.7c0-0.1,0-0.1-0.1-0.2c0,0-0.1-0.1-0.2-0.1c-0.1,0-0.1,0-0.2,0c-0.1,0-0.2,0-0.3,0s-0.2,0-0.3,0c-0.1,0-0.2,0-0.3,0
					c-0.1,0-0.2,0.1-0.2,0.2c-0.1,0.1-0.1,0.1-0.1,0.2c0,0.1,0,0.1,0,0.2c0,0,0.1,0.1,0.1,0.1c0.1,0,0.1,0.1,0.2,0.1
					c0.1,0,0.2,0,0.4,0c0.1,0,0.3,0,0.4,0c0.1,0,0.2-0.1,0.3-0.1s0.1-0.1,0.1-0.1C74.9,38.8,74.9,38.7,74.9,38.7z M74,36.9
					c0.1,0,0.2,0,0.2,0c0.1,0,0.1-0.1,0.2-0.1c0,0,0.1-0.1,0.1-0.2c0-0.1,0-0.1,0-0.2c0-0.2,0-0.3-0.1-0.4c-0.1-0.1-0.2-0.1-0.4-0.1
					s-0.3,0-0.4,0.1c-0.1,0.1-0.1,0.2-0.1,0.4c0,0.1,0,0.1,0,0.2c0,0.1,0.1,0.1,0.1,0.2c0,0,0.1,0.1,0.2,0.1
					C73.9,36.9,73.9,36.9,74,36.9z"/>
				<path fill="#444444" d="M77.4,35.3c0.2,0,0.4,0,0.5,0.1c0.2,0.1,0.3,0.2,0.4,0.3s0.2,0.3,0.3,0.4c0.1,0.2,0.1,0.4,0.1,0.6
					c0,0.1,0,0.1,0,0.1c0,0,0,0.1,0,0.1c0,0,0,0-0.1,0c0,0-0.1,0-0.1,0h-2c0,0.3,0.1,0.6,0.3,0.7c0.2,0.2,0.4,0.2,0.6,0.2
					c0.1,0,0.2,0,0.3,0c0.1,0,0.2-0.1,0.2-0.1c0.1,0,0.1-0.1,0.2-0.1c0,0,0.1,0,0.1,0c0,0,0.1,0,0.1,0c0,0,0,0,0.1,0.1l0.2,0.3
					c-0.1,0.1-0.2,0.2-0.3,0.2c-0.1,0.1-0.2,0.1-0.3,0.2c-0.1,0-0.2,0.1-0.3,0.1c-0.1,0-0.2,0-0.3,0c-0.2,0-0.4,0-0.6-0.1
					c-0.2-0.1-0.4-0.2-0.5-0.3c-0.1-0.1-0.2-0.3-0.3-0.5c-0.1-0.2-0.1-0.5-0.1-0.7c0-0.2,0-0.4,0.1-0.6c0.1-0.2,0.2-0.4,0.3-0.5
					c0.1-0.1,0.3-0.3,0.5-0.3C77,35.4,77.2,35.3,77.4,35.3z M77.5,35.9c-0.2,0-0.4,0.1-0.5,0.2c-0.1,0.1-0.2,0.3-0.2,0.5h1.4
					c0-0.1,0-0.2,0-0.3c0-0.1-0.1-0.2-0.1-0.2c-0.1-0.1-0.1-0.1-0.2-0.2C77.7,35.9,77.6,35.9,77.5,35.9z"/>
			</g>
		</g>
		<g>
			<path fill="#222222" d="M46.7,43.7C46.8,43.7,46.8,43.7,46.7,43.7l0.3,0.3c-0.1,0.2-0.3,0.3-0.4,0.3c-0.2,0.1-0.4,0.1-0.6,0.1
				c-0.2,0-0.4,0-0.6-0.1c-0.2-0.1-0.3-0.2-0.5-0.3c-0.1-0.1-0.2-0.3-0.3-0.5c-0.1-0.2-0.1-0.4-0.1-0.6c0-0.1,0-0.3,0-0.4
				c0-0.1,0.1-0.3,0.1-0.4c0.1-0.1,0.1-0.2,0.2-0.3c0.1-0.1,0.2-0.2,0.3-0.2c0.1-0.1,0.2-0.1,0.4-0.1c0.1,0,0.3-0.1,0.4-0.1
				c0.1,0,0.2,0,0.3,0c0.1,0,0.2,0,0.3,0.1c0.1,0,0.2,0.1,0.2,0.1c0.1,0,0.1,0.1,0.2,0.2l-0.2,0.3c0,0,0,0,0,0c0,0,0,0-0.1,0
				c0,0-0.1,0-0.1,0c0,0-0.1,0-0.1-0.1c0,0-0.1-0.1-0.2-0.1c-0.1,0-0.2,0-0.3,0c-0.1,0-0.2,0-0.3,0.1c-0.1,0-0.2,0.1-0.3,0.2
				c-0.1,0.1-0.1,0.2-0.2,0.3c0,0.1-0.1,0.3-0.1,0.4c0,0.2,0,0.3,0.1,0.4c0,0.1,0.1,0.2,0.2,0.3c0.1,0.1,0.2,0.2,0.3,0.2
				c0.1,0,0.2,0.1,0.3,0.1c0.1,0,0.1,0,0.2,0c0.1,0,0.1,0,0.2,0c0,0,0.1,0,0.1-0.1c0,0,0.1-0.1,0.1-0.1
				C46.7,43.8,46.7,43.7,46.7,43.7C46.7,43.7,46.7,43.7,46.7,43.7z"/>
			<path fill="#222222" d="M48,42v0.8h1v0.5h-1V44h1.3v0.5h-1.9v-3h1.9V42H48z"/>
			<path fill="#222222" d="M52.6,43c0,0.2,0,0.4-0.1,0.6c-0.1,0.2-0.2,0.3-0.3,0.5s-0.3,0.2-0.5,0.3c-0.2,0.1-0.4,0.1-0.6,0.1
				s-0.4,0-0.6-0.1c-0.2-0.1-0.3-0.2-0.5-0.3c-0.1-0.1-0.2-0.3-0.3-0.5c-0.1-0.2-0.1-0.4-0.1-0.6c0-0.2,0-0.4,0.1-0.6
				c0.1-0.2,0.2-0.3,0.3-0.5c0.1-0.1,0.3-0.2,0.5-0.3c0.2-0.1,0.4-0.1,0.6-0.1s0.4,0,0.6,0.1c0.2,0.1,0.3,0.2,0.5,0.3
				c0.1,0.1,0.2,0.3,0.3,0.5C52.6,42.6,52.6,42.8,52.6,43z M52,43c0-0.2,0-0.3-0.1-0.4c0-0.1-0.1-0.2-0.2-0.3
				c-0.1-0.1-0.2-0.2-0.3-0.2c-0.1,0-0.2-0.1-0.4-0.1s-0.3,0-0.4,0.1c-0.1,0-0.2,0.1-0.3,0.2c-0.1,0.1-0.1,0.2-0.2,0.3
				c0,0.1-0.1,0.3-0.1,0.4c0,0.2,0,0.3,0.1,0.4c0,0.1,0.1,0.2,0.2,0.3c0.1,0.1,0.2,0.2,0.3,0.2c0.1,0,0.2,0.1,0.4,0.1s0.3,0,0.4-0.1
				s0.2-0.1,0.3-0.2c0.1-0.1,0.1-0.2,0.2-0.3C51.9,43.3,52,43.1,52,43z"/>
		</g>
	</g>
</g>
<g>
</g>
<g>
</g>
<g>
</g>
<g>
</g>
<g>
</g>
<g>
</g>
</svg>
